%TF.GenerationSoftware,KiCad,Pcbnew,(6.0.0)*%
%TF.CreationDate,2022-01-23T23:40:48+07:00*%
%TF.ProjectId,NarwhelMainV2,4e617277-6865-46c4-9d61-696e56322e6b,rev?*%
%TF.SameCoordinates,Original*%
%TF.FileFunction,Paste,Top*%
%TF.FilePolarity,Positive*%
%FSLAX46Y46*%
G04 Gerber Fmt 4.6, Leading zero omitted, Abs format (unit mm)*
G04 Created by KiCad (PCBNEW (6.0.0)) date 2022-01-23 23:40:48*
%MOMM*%
%LPD*%
G01*
G04 APERTURE LIST*
G04 Aperture macros list*
%AMRoundRect*
0 Rectangle with rounded corners*
0 $1 Rounding radius*
0 $2 $3 $4 $5 $6 $7 $8 $9 X,Y pos of 4 corners*
0 Add a 4 corners polygon primitive as box body*
4,1,4,$2,$3,$4,$5,$6,$7,$8,$9,$2,$3,0*
0 Add four circle primitives for the rounded corners*
1,1,$1+$1,$2,$3*
1,1,$1+$1,$4,$5*
1,1,$1+$1,$6,$7*
1,1,$1+$1,$8,$9*
0 Add four rect primitives between the rounded corners*
20,1,$1+$1,$2,$3,$4,$5,0*
20,1,$1+$1,$4,$5,$6,$7,0*
20,1,$1+$1,$6,$7,$8,$9,0*
20,1,$1+$1,$8,$9,$2,$3,0*%
G04 Aperture macros list end*
%ADD10RoundRect,0.237500X-0.237500X0.300000X-0.237500X-0.300000X0.237500X-0.300000X0.237500X0.300000X0*%
%ADD11RoundRect,0.237500X-0.300000X-0.237500X0.300000X-0.237500X0.300000X0.237500X-0.300000X0.237500X0*%
%ADD12RoundRect,0.237500X-0.250000X-0.237500X0.250000X-0.237500X0.250000X0.237500X-0.250000X0.237500X0*%
%ADD13RoundRect,0.237500X0.250000X0.237500X-0.250000X0.237500X-0.250000X-0.237500X0.250000X-0.237500X0*%
%ADD14RoundRect,0.237500X0.300000X0.237500X-0.300000X0.237500X-0.300000X-0.237500X0.300000X-0.237500X0*%
%ADD15RoundRect,0.160000X-0.197500X-0.160000X0.197500X-0.160000X0.197500X0.160000X-0.197500X0.160000X0*%
%ADD16R,0.650000X1.500000*%
%ADD17RoundRect,0.237500X-0.287500X-0.237500X0.287500X-0.237500X0.287500X0.237500X-0.287500X0.237500X0*%
%ADD18RoundRect,0.237500X0.237500X-0.300000X0.237500X0.300000X-0.237500X0.300000X-0.237500X-0.300000X0*%
%ADD19R,1.200000X1.400000*%
%ADD20RoundRect,0.250000X1.500000X0.550000X-1.500000X0.550000X-1.500000X-0.550000X1.500000X-0.550000X0*%
%ADD21R,0.850000X0.300000*%
%ADD22R,0.300000X0.850000*%
%ADD23R,3.400000X3.400000*%
%ADD24RoundRect,0.237500X0.287500X0.237500X-0.287500X0.237500X-0.287500X-0.237500X0.287500X-0.237500X0*%
%ADD25R,1.500000X0.650000*%
%ADD26R,0.600000X1.200000*%
%ADD27R,0.300000X0.800000*%
%ADD28R,2.500000X1.750000*%
%ADD29R,1.000000X1.500000*%
%ADD30RoundRect,0.100000X0.637500X0.100000X-0.637500X0.100000X-0.637500X-0.100000X0.637500X-0.100000X0*%
%ADD31R,0.340000X0.800000*%
%ADD32R,0.340000X0.650000*%
%ADD33R,2.290000X1.710000*%
%ADD34R,1.475000X0.450000*%
%ADD35RoundRect,0.250000X-0.412500X-0.650000X0.412500X-0.650000X0.412500X0.650000X-0.412500X0.650000X0*%
%ADD36RoundRect,0.237500X0.237500X-0.250000X0.237500X0.250000X-0.237500X0.250000X-0.237500X-0.250000X0*%
%ADD37RoundRect,0.237500X-0.237500X0.250000X-0.237500X-0.250000X0.237500X-0.250000X0.237500X0.250000X0*%
%ADD38R,1.475000X0.300000*%
%ADD39R,0.300000X1.475000*%
%ADD40R,1.500000X1.500000*%
%ADD41RoundRect,0.237500X-0.237500X0.287500X-0.237500X-0.287500X0.237500X-0.287500X0.237500X0.287500X0*%
%ADD42RoundRect,0.250000X-0.550000X1.500000X-0.550000X-1.500000X0.550000X-1.500000X0.550000X1.500000X0*%
%ADD43R,3.050000X2.750000*%
%ADD44R,2.200000X1.200000*%
%ADD45RoundRect,0.150000X0.587500X0.150000X-0.587500X0.150000X-0.587500X-0.150000X0.587500X-0.150000X0*%
G04 APERTURE END LIST*
D10*
%TO.C,C37*%
X182850000Y-113312500D03*
X182850000Y-115037500D03*
%TD*%
D11*
%TO.C,C33*%
X144875000Y-59705000D03*
X146600000Y-59705000D03*
%TD*%
D12*
%TO.C,R5*%
X160862500Y-105600000D03*
X162687500Y-105600000D03*
%TD*%
D13*
%TO.C,R8*%
X118037500Y-103750000D03*
X116212500Y-103750000D03*
%TD*%
D14*
%TO.C,C6*%
X125250000Y-129500000D03*
X123525000Y-129500000D03*
%TD*%
D15*
%TO.C,R16*%
X179202500Y-82500000D03*
X180397500Y-82500000D03*
%TD*%
D10*
%TO.C,C2*%
X130825000Y-110087500D03*
X130825000Y-111812500D03*
%TD*%
D15*
%TO.C,R17*%
X179202500Y-81200000D03*
X180397500Y-81200000D03*
%TD*%
D16*
%TO.C,IC7*%
X184695000Y-118700000D03*
X185965000Y-118700000D03*
X187235000Y-118700000D03*
X188505000Y-118700000D03*
X188505000Y-113300000D03*
X187235000Y-113300000D03*
X185965000Y-113300000D03*
X184695000Y-113300000D03*
%TD*%
D12*
%TO.C,R7*%
X116212500Y-105650000D03*
X118037500Y-105650000D03*
%TD*%
D11*
%TO.C,C32*%
X144875000Y-58105000D03*
X146600000Y-58105000D03*
%TD*%
D10*
%TO.C,C20*%
X147125000Y-124037500D03*
X147125000Y-125762500D03*
%TD*%
D11*
%TO.C,C34*%
X182112500Y-137600000D03*
X183837500Y-137600000D03*
%TD*%
D12*
%TO.C,R3*%
X160862500Y-102100000D03*
X162687500Y-102100000D03*
%TD*%
D14*
%TO.C,C10*%
X134287500Y-113450000D03*
X132562500Y-113450000D03*
%TD*%
D10*
%TO.C,C17*%
X166200000Y-80037500D03*
X166200000Y-81762500D03*
%TD*%
D17*
%TO.C,D11*%
X184643750Y-126800000D03*
X186393750Y-126800000D03*
%TD*%
%TO.C,D10*%
X184643750Y-125000000D03*
X186393750Y-125000000D03*
%TD*%
%TO.C,FB1*%
X132550000Y-110050000D03*
X134300000Y-110050000D03*
%TD*%
D10*
%TO.C,C14*%
X175850000Y-89887500D03*
X175850000Y-91612500D03*
%TD*%
D12*
%TO.C,R9*%
X130800000Y-98000000D03*
X132625000Y-98000000D03*
%TD*%
D18*
%TO.C,C1*%
X138800000Y-95862500D03*
X138800000Y-94137500D03*
%TD*%
D19*
%TO.C,Y1*%
X133125000Y-105150000D03*
X133125000Y-107350000D03*
X134725000Y-107350000D03*
X134725000Y-105150000D03*
%TD*%
D11*
%TO.C,C24*%
X118137500Y-120250000D03*
X119862500Y-120250000D03*
%TD*%
D20*
%TO.C,C25*%
X122700000Y-49700000D03*
X117300000Y-49700000D03*
%TD*%
D14*
%TO.C,C8*%
X134287500Y-111750000D03*
X132562500Y-111750000D03*
%TD*%
D10*
%TO.C,C26*%
X128250000Y-60700000D03*
X128250000Y-62425000D03*
%TD*%
D18*
%TO.C,C29*%
X140875000Y-57112500D03*
X140875000Y-55387500D03*
%TD*%
D10*
%TO.C,C7*%
X153500000Y-115137500D03*
X153500000Y-116862500D03*
%TD*%
D21*
%TO.C,IC8*%
X175100000Y-127350000D03*
X175100000Y-127850000D03*
X175100000Y-128350000D03*
X175100000Y-128850000D03*
X175100000Y-129350000D03*
X175100000Y-129850000D03*
X175100000Y-130350000D03*
X175100000Y-130850000D03*
D22*
X175800000Y-131550000D03*
X176300000Y-131550000D03*
X176800000Y-131550000D03*
X177300000Y-131550000D03*
X177800000Y-131550000D03*
X178300000Y-131550000D03*
X178800000Y-131550000D03*
X179300000Y-131550000D03*
D21*
X180000000Y-130850000D03*
X180000000Y-130350000D03*
X180000000Y-129850000D03*
X180000000Y-129350000D03*
X180000000Y-128850000D03*
X180000000Y-128350000D03*
X180000000Y-127850000D03*
X180000000Y-127350000D03*
D22*
X179300000Y-126650000D03*
X178800000Y-126650000D03*
X178300000Y-126650000D03*
X177800000Y-126650000D03*
X177300000Y-126650000D03*
X176800000Y-126650000D03*
X176300000Y-126650000D03*
X175800000Y-126650000D03*
D23*
X177550000Y-129100000D03*
%TD*%
D11*
%TO.C,C16*%
X157337500Y-100100000D03*
X159062500Y-100100000D03*
%TD*%
D13*
%TO.C,R11*%
X161800000Y-118800000D03*
X159975000Y-118800000D03*
%TD*%
D24*
%TO.C,D5*%
X166150000Y-105600000D03*
X164400000Y-105600000D03*
%TD*%
D25*
%TO.C,IC6*%
X121850000Y-69455000D03*
X121850000Y-68185000D03*
X121850000Y-66915000D03*
X121850000Y-65645000D03*
X116450000Y-65645000D03*
X116450000Y-66915000D03*
X116450000Y-68185000D03*
X116450000Y-69455000D03*
%TD*%
D26*
%TO.C,IC4*%
X146285000Y-48595000D03*
X145335000Y-48595000D03*
X144385000Y-48595000D03*
X144385000Y-51095000D03*
X146285000Y-51095000D03*
%TD*%
D18*
%TO.C,C30*%
X142475000Y-57112500D03*
X142475000Y-55387500D03*
%TD*%
D14*
%TO.C,C12*%
X131287500Y-105150000D03*
X129562500Y-105150000D03*
%TD*%
D24*
%TO.C,D9*%
X127175000Y-68700000D03*
X125425000Y-68700000D03*
%TD*%
D11*
%TO.C,C22*%
X118000000Y-93650000D03*
X119725000Y-93650000D03*
%TD*%
%TO.C,C21*%
X122062500Y-93650000D03*
X123787500Y-93650000D03*
%TD*%
D14*
%TO.C,C11*%
X135687500Y-103200000D03*
X133962500Y-103200000D03*
%TD*%
D27*
%TO.C,IC5*%
X140200000Y-62705000D03*
X141150000Y-62705000D03*
X142100000Y-62705000D03*
X142100000Y-59705000D03*
X141150000Y-59705000D03*
X140200000Y-59705000D03*
D28*
X141150000Y-61205000D03*
%TD*%
D29*
%TO.C,D8*%
X118750000Y-132050000D03*
X115550000Y-132050000D03*
X115550000Y-136950000D03*
X118750000Y-136950000D03*
%TD*%
D24*
%TO.C,D3*%
X166150000Y-102100000D03*
X164400000Y-102100000D03*
%TD*%
D10*
%TO.C,C15*%
X151200000Y-116737500D03*
X151200000Y-118462500D03*
%TD*%
D17*
%TO.C,FB3*%
X182100000Y-136000000D03*
X183850000Y-136000000D03*
%TD*%
D14*
%TO.C,C13*%
X131287500Y-107350000D03*
X129562500Y-107350000D03*
%TD*%
D24*
%TO.C,D6*%
X166150000Y-107350000D03*
X164400000Y-107350000D03*
%TD*%
D13*
%TO.C,R12*%
X161812500Y-115800000D03*
X159987500Y-115800000D03*
%TD*%
D30*
%TO.C,U2*%
X123862500Y-118575000D03*
X123862500Y-117925000D03*
X123862500Y-117275000D03*
X123862500Y-116625000D03*
X123862500Y-115975000D03*
X123862500Y-115325000D03*
X123862500Y-114675000D03*
X123862500Y-114025000D03*
X123862500Y-113375000D03*
X123862500Y-112725000D03*
X118137500Y-112725000D03*
X118137500Y-113375000D03*
X118137500Y-114025000D03*
X118137500Y-114675000D03*
X118137500Y-115325000D03*
X118137500Y-115975000D03*
X118137500Y-116625000D03*
X118137500Y-117275000D03*
X118137500Y-117925000D03*
X118137500Y-118575000D03*
%TD*%
D11*
%TO.C,C35*%
X183487500Y-130100000D03*
X185212500Y-130100000D03*
%TD*%
D14*
%TO.C,C36*%
X116062500Y-71200000D03*
X114337500Y-71200000D03*
%TD*%
%TO.C,C5*%
X118750000Y-129500000D03*
X117025000Y-129500000D03*
%TD*%
D30*
%TO.C,U1*%
X123787500Y-91575000D03*
X123787500Y-90925000D03*
X123787500Y-90275000D03*
X123787500Y-89625000D03*
X123787500Y-88975000D03*
X123787500Y-88325000D03*
X123787500Y-87675000D03*
X123787500Y-87025000D03*
X123787500Y-86375000D03*
X123787500Y-85725000D03*
X118062500Y-85725000D03*
X118062500Y-86375000D03*
X118062500Y-87025000D03*
X118062500Y-87675000D03*
X118062500Y-88325000D03*
X118062500Y-88975000D03*
X118062500Y-89625000D03*
X118062500Y-90275000D03*
X118062500Y-90925000D03*
X118062500Y-91575000D03*
%TD*%
D14*
%TO.C,C4*%
X131750000Y-129500000D03*
X130025000Y-129500000D03*
%TD*%
D31*
%TO.C,Q1*%
X139360000Y-50795000D03*
X140010000Y-50795000D03*
X140660000Y-50795000D03*
X141310000Y-50795000D03*
D32*
X141310000Y-47720000D03*
X140660000Y-47720000D03*
X140010000Y-47720000D03*
X139360000Y-47720000D03*
D33*
X140335000Y-48900000D03*
%TD*%
D24*
%TO.C,D4*%
X166150000Y-103850000D03*
X164400000Y-103850000D03*
%TD*%
D29*
%TO.C,D7*%
X125250000Y-132050000D03*
X122050000Y-132050000D03*
X122050000Y-136950000D03*
X125250000Y-136950000D03*
%TD*%
%TO.C,D1*%
X131750000Y-132050000D03*
X128550000Y-132050000D03*
X128550000Y-136950000D03*
X131750000Y-136950000D03*
%TD*%
D12*
%TO.C,R6*%
X160862500Y-107350000D03*
X162687500Y-107350000D03*
%TD*%
D13*
%TO.C,R14*%
X190031250Y-126800000D03*
X188206250Y-126800000D03*
%TD*%
D18*
%TO.C,C38*%
X180400000Y-134862500D03*
X180400000Y-133137500D03*
%TD*%
D34*
%TO.C,IC2*%
X175138000Y-83175000D03*
X175138000Y-82525000D03*
X175138000Y-81875000D03*
X175138000Y-81225000D03*
X175138000Y-80575000D03*
X175138000Y-79925000D03*
X175138000Y-79275000D03*
X175138000Y-78625000D03*
X169262000Y-78625000D03*
X169262000Y-79275000D03*
X169262000Y-79925000D03*
X169262000Y-80575000D03*
X169262000Y-81225000D03*
X169262000Y-81875000D03*
X169262000Y-82525000D03*
X169262000Y-83175000D03*
%TD*%
D12*
%TO.C,R4*%
X160862500Y-103850000D03*
X162687500Y-103850000D03*
%TD*%
D11*
%TO.C,C3*%
X155837500Y-98000000D03*
X157562500Y-98000000D03*
%TD*%
D10*
%TO.C,C18*%
X164600000Y-80037500D03*
X164600000Y-81762500D03*
%TD*%
D35*
%TO.C,C19*%
X150362500Y-133500000D03*
X153487500Y-133500000D03*
%TD*%
D36*
%TO.C,R15*%
X181400000Y-86012500D03*
X181400000Y-84187500D03*
%TD*%
D18*
%TO.C,C28*%
X139275000Y-57112500D03*
X139275000Y-55387500D03*
%TD*%
D17*
%TO.C,D2*%
X144575000Y-63505000D03*
X146325000Y-63505000D03*
%TD*%
D13*
%TO.C,R10*%
X127212500Y-70300000D03*
X125387500Y-70300000D03*
%TD*%
%TO.C,R13*%
X190031250Y-125000000D03*
X188206250Y-125000000D03*
%TD*%
D12*
%TO.C,R2*%
X144537500Y-61905000D03*
X146362500Y-61905000D03*
%TD*%
D11*
%TO.C,C31*%
X144875000Y-56505000D03*
X146600000Y-56505000D03*
%TD*%
D10*
%TO.C,C9*%
X138700000Y-115137500D03*
X138700000Y-116862500D03*
%TD*%
D37*
%TO.C,R1*%
X134650000Y-135175000D03*
X134650000Y-137000000D03*
%TD*%
D38*
%TO.C,IC1*%
X138462000Y-99500000D03*
X138462000Y-100000000D03*
X138462000Y-100500000D03*
X138462000Y-101000000D03*
X138462000Y-101500000D03*
X138462000Y-102000000D03*
X138462000Y-102500000D03*
X138462000Y-103000000D03*
X138462000Y-103500000D03*
X138462000Y-104000000D03*
X138462000Y-104500000D03*
X138462000Y-105000000D03*
X138462000Y-105500000D03*
X138462000Y-106000000D03*
X138462000Y-106500000D03*
X138462000Y-107000000D03*
X138462000Y-107500000D03*
X138462000Y-108000000D03*
X138462000Y-108500000D03*
X138462000Y-109000000D03*
X138462000Y-109500000D03*
X138462000Y-110000000D03*
X138462000Y-110500000D03*
X138462000Y-111000000D03*
X138462000Y-111500000D03*
D39*
X140200000Y-113238000D03*
X140700000Y-113238000D03*
X141200000Y-113238000D03*
X141700000Y-113238000D03*
X142200000Y-113238000D03*
X142700000Y-113238000D03*
X143200000Y-113238000D03*
X143700000Y-113238000D03*
X144200000Y-113238000D03*
X144700000Y-113238000D03*
X145200000Y-113238000D03*
X145700000Y-113238000D03*
X146200000Y-113238000D03*
X146700000Y-113238000D03*
X147200000Y-113238000D03*
X147700000Y-113238000D03*
X148200000Y-113238000D03*
X148700000Y-113238000D03*
X149200000Y-113238000D03*
X149700000Y-113238000D03*
X150200000Y-113238000D03*
X150700000Y-113238000D03*
X151200000Y-113238000D03*
X151700000Y-113238000D03*
X152200000Y-113238000D03*
D38*
X153938000Y-111500000D03*
X153938000Y-111000000D03*
X153938000Y-110500000D03*
X153938000Y-110000000D03*
X153938000Y-109500000D03*
X153938000Y-109000000D03*
X153938000Y-108500000D03*
X153938000Y-108000000D03*
X153938000Y-107500000D03*
X153938000Y-107000000D03*
X153938000Y-106500000D03*
X153938000Y-106000000D03*
X153938000Y-105500000D03*
X153938000Y-105000000D03*
X153938000Y-104500000D03*
X153938000Y-104000000D03*
X153938000Y-103500000D03*
X153938000Y-103000000D03*
X153938000Y-102500000D03*
X153938000Y-102000000D03*
X153938000Y-101500000D03*
X153938000Y-101000000D03*
X153938000Y-100500000D03*
X153938000Y-100000000D03*
X153938000Y-99500000D03*
D39*
X152200000Y-97762000D03*
X151700000Y-97762000D03*
X151200000Y-97762000D03*
X150700000Y-97762000D03*
X150200000Y-97762000D03*
X149700000Y-97762000D03*
X149200000Y-97762000D03*
X148700000Y-97762000D03*
X148200000Y-97762000D03*
X147700000Y-97762000D03*
X147200000Y-97762000D03*
X146700000Y-97762000D03*
X146200000Y-97762000D03*
X145700000Y-97762000D03*
X145200000Y-97762000D03*
X144700000Y-97762000D03*
X144200000Y-97762000D03*
X143700000Y-97762000D03*
X143200000Y-97762000D03*
X142700000Y-97762000D03*
X142200000Y-97762000D03*
X141700000Y-97762000D03*
X141200000Y-97762000D03*
X140700000Y-97762000D03*
X140200000Y-97762000D03*
%TD*%
D40*
%TO.C,SW1*%
X172900000Y-97900000D03*
X172900000Y-90100000D03*
%TD*%
D41*
%TO.C,FB2*%
X136200000Y-54775000D03*
X136200000Y-56525000D03*
%TD*%
D16*
%TO.C,IC3*%
X148820000Y-129400000D03*
X150090000Y-129400000D03*
X151360000Y-129400000D03*
X152630000Y-129400000D03*
X152630000Y-124000000D03*
X151360000Y-124000000D03*
X150090000Y-124000000D03*
X148820000Y-124000000D03*
%TD*%
D42*
%TO.C,C27*%
X133650000Y-61950000D03*
X133650000Y-67350000D03*
%TD*%
D43*
%TO.C,U3*%
X120825000Y-59175000D03*
X120825000Y-62225000D03*
X117475000Y-59175000D03*
X117475000Y-62225000D03*
D44*
X125450000Y-62980000D03*
X125450000Y-60700000D03*
X125450000Y-58420000D03*
%TD*%
D11*
%TO.C,C23*%
X122137500Y-120250000D03*
X123862500Y-120250000D03*
%TD*%
D45*
%TO.C,Q2*%
X114287500Y-54450000D03*
X114287500Y-52550000D03*
X112412500Y-53500000D03*
%TD*%
M02*
