%TF.GenerationSoftware,KiCad,Pcbnew,(6.0.0)*%
%TF.CreationDate,2022-01-23T23:40:48+07:00*%
%TF.ProjectId,NarwhelMainV2,4e617277-6865-46c4-9d61-696e56322e6b,rev?*%
%TF.SameCoordinates,Original*%
%TF.FileFunction,Soldermask,Top*%
%TF.FilePolarity,Negative*%
%FSLAX46Y46*%
G04 Gerber Fmt 4.6, Leading zero omitted, Abs format (unit mm)*
G04 Created by KiCad (PCBNEW (6.0.0)) date 2022-01-23 23:40:48*
%MOMM*%
%LPD*%
G01*
G04 APERTURE LIST*
G04 Aperture macros list*
%AMRoundRect*
0 Rectangle with rounded corners*
0 $1 Rounding radius*
0 $2 $3 $4 $5 $6 $7 $8 $9 X,Y pos of 4 corners*
0 Add a 4 corners polygon primitive as box body*
4,1,4,$2,$3,$4,$5,$6,$7,$8,$9,$2,$3,0*
0 Add four circle primitives for the rounded corners*
1,1,$1+$1,$2,$3*
1,1,$1+$1,$4,$5*
1,1,$1+$1,$6,$7*
1,1,$1+$1,$8,$9*
0 Add four rect primitives between the rounded corners*
20,1,$1+$1,$2,$3,$4,$5,0*
20,1,$1+$1,$4,$5,$6,$7,0*
20,1,$1+$1,$6,$7,$8,$9,0*
20,1,$1+$1,$8,$9,$2,$3,0*%
%AMFreePoly0*
4,1,22,0.500000,-0.750000,0.000000,-0.750000,0.000000,-0.745033,-0.079941,-0.743568,-0.215256,-0.701293,-0.333266,-0.622738,-0.424486,-0.514219,-0.481581,-0.384460,-0.499164,-0.250000,-0.500000,-0.250000,-0.500000,0.250000,-0.499164,0.250000,-0.499963,0.256109,-0.478152,0.396186,-0.417904,0.524511,-0.324060,0.630769,-0.204165,0.706417,-0.067858,0.745374,0.000000,0.744959,0.000000,0.750000,
0.500000,0.750000,0.500000,-0.750000,0.500000,-0.750000,$1*%
%AMFreePoly1*
4,1,20,0.000000,0.744959,0.073905,0.744508,0.209726,0.703889,0.328688,0.626782,0.421226,0.519385,0.479903,0.390333,0.500000,0.250000,0.500000,-0.250000,0.499851,-0.262216,0.476331,-0.402017,0.414519,-0.529596,0.319384,-0.634700,0.198574,-0.708877,0.061801,-0.746166,0.000000,-0.745033,0.000000,-0.750000,-0.500000,-0.750000,-0.500000,0.750000,0.000000,0.750000,0.000000,0.744959,
0.000000,0.744959,$1*%
%AMFreePoly2*
4,1,6,1.000000,0.000000,0.500000,-0.750000,-0.500000,-0.750000,-0.500000,0.750000,0.500000,0.750000,1.000000,0.000000,1.000000,0.000000,$1*%
G04 Aperture macros list end*
%ADD10RoundRect,0.237500X-0.237500X0.300000X-0.237500X-0.300000X0.237500X-0.300000X0.237500X0.300000X0*%
%ADD11RoundRect,0.237500X-0.300000X-0.237500X0.300000X-0.237500X0.300000X0.237500X-0.300000X0.237500X0*%
%ADD12RoundRect,0.237500X-0.250000X-0.237500X0.250000X-0.237500X0.250000X0.237500X-0.250000X0.237500X0*%
%ADD13RoundRect,0.250000X0.725000X-0.600000X0.725000X0.600000X-0.725000X0.600000X-0.725000X-0.600000X0*%
%ADD14O,1.950000X1.700000*%
%ADD15RoundRect,0.237500X0.250000X0.237500X-0.250000X0.237500X-0.250000X-0.237500X0.250000X-0.237500X0*%
%ADD16RoundRect,0.237500X0.300000X0.237500X-0.300000X0.237500X-0.300000X-0.237500X0.300000X-0.237500X0*%
%ADD17RoundRect,0.160000X-0.197500X-0.160000X0.197500X-0.160000X0.197500X0.160000X-0.197500X0.160000X0*%
%ADD18R,1.700000X1.700000*%
%ADD19O,1.700000X1.700000*%
%ADD20R,0.650000X1.500000*%
%ADD21C,0.800000*%
%ADD22C,6.400000*%
%ADD23R,2.400000X2.400000*%
%ADD24C,2.400000*%
%ADD25R,2.600000X2.600000*%
%ADD26C,2.600000*%
%ADD27RoundRect,0.237500X-0.287500X-0.237500X0.287500X-0.237500X0.287500X0.237500X-0.287500X0.237500X0*%
%ADD28RoundRect,0.237500X0.237500X-0.300000X0.237500X0.300000X-0.237500X0.300000X-0.237500X-0.300000X0*%
%ADD29R,1.200000X1.400000*%
%ADD30RoundRect,0.250000X1.500000X0.550000X-1.500000X0.550000X-1.500000X-0.550000X1.500000X-0.550000X0*%
%ADD31R,0.850000X0.300000*%
%ADD32R,0.300000X0.850000*%
%ADD33R,3.400000X3.400000*%
%ADD34C,3.250000*%
%ADD35R,1.300000X1.300000*%
%ADD36C,1.300000*%
%ADD37C,2.550000*%
%ADD38RoundRect,0.237500X0.287500X0.237500X-0.287500X0.237500X-0.287500X-0.237500X0.287500X-0.237500X0*%
%ADD39R,1.500000X0.650000*%
%ADD40R,0.600000X1.200000*%
%ADD41RoundRect,0.250000X0.600000X0.725000X-0.600000X0.725000X-0.600000X-0.725000X0.600000X-0.725000X0*%
%ADD42O,1.700000X1.950000*%
%ADD43FreePoly0,270.000000*%
%ADD44FreePoly1,270.000000*%
%ADD45C,2.000000*%
%ADD46R,0.300000X0.800000*%
%ADD47R,2.500000X1.750000*%
%ADD48R,1.000000X1.500000*%
%ADD49R,1.500000X1.500000*%
%ADD50FreePoly2,0.000000*%
%ADD51FreePoly2,180.000000*%
%ADD52RoundRect,0.100000X0.637500X0.100000X-0.637500X0.100000X-0.637500X-0.100000X0.637500X-0.100000X0*%
%ADD53R,0.340000X0.800000*%
%ADD54R,0.340000X0.650000*%
%ADD55R,2.290000X1.710000*%
%ADD56R,1.475000X0.450000*%
%ADD57RoundRect,0.250000X-0.412500X-0.650000X0.412500X-0.650000X0.412500X0.650000X-0.412500X0.650000X0*%
%ADD58RoundRect,0.237500X0.237500X-0.250000X0.237500X0.250000X-0.237500X0.250000X-0.237500X-0.250000X0*%
%ADD59RoundRect,0.237500X-0.237500X0.250000X-0.237500X-0.250000X0.237500X-0.250000X0.237500X0.250000X0*%
%ADD60R,1.475000X0.300000*%
%ADD61R,0.300000X1.475000*%
%ADD62RoundRect,0.237500X-0.237500X0.287500X-0.237500X-0.287500X0.237500X-0.287500X0.237500X0.287500X0*%
%ADD63RoundRect,0.250000X-0.550000X1.500000X-0.550000X-1.500000X0.550000X-1.500000X0.550000X1.500000X0*%
%ADD64R,2.200000X1.200000*%
%ADD65R,6.400000X5.800000*%
%ADD66RoundRect,0.150000X0.587500X0.150000X-0.587500X0.150000X-0.587500X-0.150000X0.587500X-0.150000X0*%
G04 APERTURE END LIST*
%TO.C,G\u002A\u002A\u002A*%
G36*
X196753755Y-101884848D02*
G01*
X192771140Y-101892918D01*
X192180504Y-101894051D01*
X191650252Y-101894908D01*
X191177190Y-101895457D01*
X190758123Y-101895666D01*
X190389855Y-101895504D01*
X190069192Y-101894939D01*
X189792940Y-101893939D01*
X189557903Y-101892472D01*
X189360887Y-101890508D01*
X189198697Y-101888013D01*
X189068138Y-101884957D01*
X188966015Y-101881307D01*
X188889134Y-101877032D01*
X188834299Y-101872100D01*
X188798317Y-101866480D01*
X188777992Y-101860139D01*
X188770179Y-101853181D01*
X188764273Y-101781320D01*
X188770132Y-101757689D01*
X188778310Y-101750623D01*
X188799259Y-101744279D01*
X188836163Y-101738619D01*
X188892209Y-101733605D01*
X188970581Y-101729199D01*
X189074466Y-101725365D01*
X189207047Y-101722062D01*
X189371512Y-101719255D01*
X189571044Y-101716904D01*
X189808831Y-101714973D01*
X190088056Y-101713422D01*
X190411905Y-101712215D01*
X190783565Y-101711314D01*
X191206219Y-101710680D01*
X191683054Y-101710275D01*
X192217255Y-101710063D01*
X192781151Y-101710004D01*
X196773873Y-101710004D01*
X196753755Y-101884848D01*
G37*
G36*
X186490640Y-102982684D02*
G01*
X186502286Y-103059256D01*
X186517045Y-103174219D01*
X186530505Y-103290699D01*
X186548100Y-103445596D01*
X186565303Y-103589557D01*
X186579736Y-103703032D01*
X186586707Y-103752495D01*
X186605060Y-103871706D01*
X186367186Y-103871706D01*
X186386551Y-103736600D01*
X186398550Y-103645078D01*
X186414567Y-103512400D01*
X186431975Y-103360640D01*
X186440475Y-103283615D01*
X186455809Y-103149295D01*
X186469530Y-103041202D01*
X186479801Y-102973188D01*
X186483846Y-102956926D01*
X186490640Y-102982684D01*
G37*
G36*
X181183656Y-93717209D02*
G01*
X181247635Y-93662229D01*
X181399782Y-93597067D01*
X181543804Y-93589140D01*
X181683003Y-93631067D01*
X181818984Y-93721056D01*
X181909474Y-93842185D01*
X181954324Y-93981770D01*
X181953386Y-94127127D01*
X181906513Y-94265572D01*
X181813557Y-94384422D01*
X181692710Y-94463094D01*
X181570969Y-94509837D01*
X181473188Y-94519876D01*
X181371154Y-94492843D01*
X181294592Y-94457903D01*
X181171098Y-94366700D01*
X181080610Y-94240635D01*
X181036154Y-94099574D01*
X181033730Y-94059981D01*
X181054995Y-93945759D01*
X181071280Y-93909114D01*
X181450157Y-93909114D01*
X181481950Y-93999951D01*
X181499608Y-94022332D01*
X181580343Y-94074218D01*
X181667892Y-94064187D01*
X181733104Y-94016888D01*
X181780044Y-93956655D01*
X181796683Y-93912697D01*
X181770912Y-93835181D01*
X181709139Y-93766734D01*
X181634672Y-93731671D01*
X181622308Y-93730780D01*
X181527890Y-93756578D01*
X181467988Y-93822006D01*
X181450157Y-93909114D01*
X181071280Y-93909114D01*
X181109578Y-93822934D01*
X181183656Y-93717209D01*
G37*
G36*
X191428974Y-103216479D02*
G01*
X191429546Y-103516738D01*
X191431393Y-103758587D01*
X191434707Y-103947186D01*
X191439684Y-104087693D01*
X191446517Y-104185270D01*
X191455399Y-104245075D01*
X191466524Y-104272270D01*
X191468711Y-104274057D01*
X191534563Y-104294197D01*
X191625700Y-104300379D01*
X191714665Y-104293157D01*
X191774004Y-104273089D01*
X191779752Y-104267763D01*
X191787507Y-104227803D01*
X191794989Y-104131649D01*
X191801928Y-103986688D01*
X191808057Y-103800304D01*
X191813107Y-103579884D01*
X191816809Y-103332813D01*
X191817944Y-103217306D01*
X191826345Y-102202745D01*
X192176033Y-102202745D01*
X192185553Y-103140542D01*
X192188287Y-103457065D01*
X192189056Y-103716546D01*
X192187282Y-103925510D01*
X192182390Y-104090479D01*
X192173802Y-104217978D01*
X192160942Y-104314530D01*
X192143233Y-104386658D01*
X192120099Y-104440886D01*
X192090964Y-104483737D01*
X192064251Y-104512910D01*
X191979314Y-104576010D01*
X191896725Y-104602769D01*
X191892370Y-104602870D01*
X191831476Y-104613996D01*
X191810451Y-104636294D01*
X191782479Y-104652799D01*
X191712714Y-104661283D01*
X191622379Y-104662154D01*
X191532699Y-104655823D01*
X191464897Y-104642700D01*
X191441468Y-104629158D01*
X191399494Y-104606406D01*
X191369466Y-104602870D01*
X191307837Y-104577383D01*
X191232656Y-104511621D01*
X191159868Y-104421629D01*
X191116763Y-104348552D01*
X191105247Y-104306283D01*
X191096393Y-104228774D01*
X191090067Y-104111079D01*
X191086135Y-103948254D01*
X191084461Y-103735353D01*
X191084912Y-103467433D01*
X191086491Y-103235912D01*
X191095181Y-102202745D01*
X191262078Y-102193136D01*
X191428974Y-102183528D01*
X191428974Y-103216479D01*
G37*
G36*
X196753755Y-105159191D02*
G01*
X192771140Y-105167261D01*
X192178354Y-105168389D01*
X191645998Y-105169224D01*
X191170922Y-105169736D01*
X190749977Y-105169896D01*
X190380014Y-105169672D01*
X190057884Y-105169037D01*
X189780436Y-105167959D01*
X189544523Y-105166409D01*
X189346994Y-105164357D01*
X189184700Y-105161774D01*
X189054493Y-105158629D01*
X188953222Y-105154893D01*
X188877738Y-105150536D01*
X188824893Y-105145527D01*
X188791536Y-105139838D01*
X188774519Y-105133439D01*
X188770892Y-105129381D01*
X188761203Y-105058679D01*
X188764330Y-105025941D01*
X188767946Y-105017494D01*
X188777551Y-105009916D01*
X188796422Y-105003159D01*
X188827836Y-104997179D01*
X188875070Y-104991926D01*
X188941399Y-104987354D01*
X189030101Y-104983415D01*
X189144452Y-104980064D01*
X189287730Y-104977252D01*
X189463210Y-104974933D01*
X189674170Y-104973059D01*
X189923887Y-104971584D01*
X190215636Y-104970460D01*
X190552694Y-104969640D01*
X190938339Y-104969077D01*
X191375847Y-104968724D01*
X191868495Y-104968535D01*
X192419559Y-104968461D01*
X192764578Y-104968452D01*
X196753755Y-104968452D01*
X196753755Y-105159191D01*
G37*
G36*
X188281790Y-101773584D02*
G01*
X188281790Y-105079716D01*
X178554130Y-105079716D01*
X178554130Y-104602870D01*
X178903817Y-104602870D01*
X179315547Y-104602870D01*
X179332979Y-103537914D01*
X179507822Y-104070290D01*
X179682666Y-104602665D01*
X179913141Y-104602768D01*
X180143617Y-104602870D01*
X180187745Y-104602870D01*
X180617582Y-104602870D01*
X180637034Y-104483659D01*
X180651513Y-104392354D01*
X180661721Y-104323475D01*
X180662615Y-104316763D01*
X180690057Y-104284188D01*
X180767620Y-104265148D01*
X180831237Y-104259612D01*
X180931753Y-104260177D01*
X180992144Y-104284244D01*
X181022428Y-104343709D01*
X181032625Y-104450468D01*
X181033296Y-104499554D01*
X181033730Y-104602870D01*
X181921885Y-104602870D01*
X181930811Y-104213446D01*
X181937140Y-104045731D01*
X181947045Y-103921279D01*
X181959759Y-103847325D01*
X181971527Y-103829396D01*
X181991272Y-103860473D01*
X182021851Y-103941265D01*
X182059164Y-104059688D01*
X182099110Y-104203657D01*
X182100989Y-104210873D01*
X182198661Y-104586975D01*
X182647947Y-104605513D01*
X182573655Y-104341926D01*
X182529550Y-104188105D01*
X182482357Y-104027681D01*
X182441551Y-103892817D01*
X182437827Y-103880820D01*
X182376291Y-103683300D01*
X182453078Y-103579222D01*
X182522347Y-103456053D01*
X182580858Y-103300100D01*
X182618278Y-103142158D01*
X182626204Y-103063246D01*
X182631856Y-103065447D01*
X182646163Y-103123253D01*
X182667725Y-103229489D01*
X182695140Y-103376978D01*
X182727010Y-103558548D01*
X182752989Y-103712758D01*
X182788669Y-103926826D01*
X182821762Y-104123048D01*
X182850595Y-104291683D01*
X182873495Y-104422993D01*
X182888787Y-104507238D01*
X182893661Y-104531343D01*
X182906754Y-104567141D01*
X182934419Y-104588478D01*
X182990564Y-104599059D01*
X183089097Y-104602590D01*
X183162105Y-104602870D01*
X183261189Y-104603976D01*
X183332873Y-104601429D01*
X183382952Y-104586437D01*
X183417220Y-104550206D01*
X183441471Y-104483942D01*
X183461498Y-104378852D01*
X183483096Y-104226142D01*
X183502177Y-104086734D01*
X183524652Y-103937824D01*
X183546079Y-103817242D01*
X183564274Y-103735881D01*
X183577052Y-103704632D01*
X183578685Y-103705257D01*
X183590538Y-103744046D01*
X183608469Y-103833025D01*
X183630137Y-103959364D01*
X183653201Y-104110234D01*
X183655472Y-104126024D01*
X183678284Y-104280495D01*
X183699286Y-104413588D01*
X183716251Y-104511799D01*
X183726955Y-104561624D01*
X183727481Y-104563133D01*
X183765790Y-104586327D01*
X183861113Y-104599384D01*
X183991434Y-104602870D01*
X184119793Y-104600745D01*
X184197936Y-104592511D01*
X184239139Y-104575382D01*
X184256486Y-104547238D01*
X184266870Y-104497961D01*
X184285004Y-104397896D01*
X184308808Y-104259070D01*
X184336204Y-104093512D01*
X184354041Y-103982970D01*
X184401484Y-103684341D01*
X184439192Y-103446952D01*
X184468295Y-103269396D01*
X184489926Y-103150269D01*
X184505213Y-103088166D01*
X184515289Y-103081682D01*
X184521284Y-103129412D01*
X184524327Y-103229950D01*
X184525551Y-103381892D01*
X184526086Y-103583833D01*
X184526720Y-103768390D01*
X184530601Y-104602870D01*
X185007447Y-104602870D01*
X185007447Y-103617388D01*
X185166395Y-103617388D01*
X185275292Y-103625150D01*
X185324683Y-103648129D01*
X185327592Y-103657126D01*
X185328797Y-103702018D01*
X185330552Y-103797719D01*
X185332645Y-103931460D01*
X185334869Y-104090475D01*
X185335539Y-104141919D01*
X185341239Y-104586975D01*
X185555820Y-104596375D01*
X185770400Y-104605775D01*
X185770400Y-104568900D01*
X185844370Y-104568900D01*
X185859286Y-104590302D01*
X185907232Y-104600081D01*
X186001021Y-104602767D01*
X186051929Y-104602870D01*
X186271089Y-104602870D01*
X186290957Y-104503527D01*
X186305575Y-104405399D01*
X186310826Y-104327022D01*
X186315332Y-104282375D01*
X186339425Y-104260834D01*
X186398968Y-104255971D01*
X186477559Y-104259469D01*
X186644292Y-104269078D01*
X186697152Y-104602870D01*
X187935008Y-104602870D01*
X187925608Y-104388290D01*
X187916208Y-104173709D01*
X187550626Y-104154641D01*
X187550626Y-102218640D01*
X187137359Y-102218640D01*
X187137359Y-103305849D01*
X187136620Y-103559977D01*
X187134519Y-103791298D01*
X187131231Y-103992800D01*
X187126932Y-104157475D01*
X187121798Y-104278311D01*
X187116004Y-104348298D01*
X187110909Y-104362858D01*
X187099938Y-104324876D01*
X187081607Y-104231900D01*
X187057237Y-104091915D01*
X187028151Y-103912912D01*
X186995672Y-103702879D01*
X186961121Y-103469802D01*
X186948026Y-103378965D01*
X186913091Y-103135066D01*
X186880386Y-102907311D01*
X186851181Y-102704498D01*
X186826746Y-102535426D01*
X186808350Y-102408895D01*
X186797264Y-102333703D01*
X186795473Y-102321957D01*
X186779353Y-102218640D01*
X186481510Y-102218640D01*
X186352713Y-102220151D01*
X186251947Y-102224209D01*
X186193114Y-102230102D01*
X186183667Y-102233912D01*
X186179223Y-102272130D01*
X186166738Y-102364519D01*
X186147478Y-102502355D01*
X186122713Y-102676917D01*
X186093710Y-102879479D01*
X186061738Y-103101320D01*
X186028065Y-103333717D01*
X185993959Y-103567945D01*
X185960687Y-103795282D01*
X185929519Y-104007005D01*
X185901723Y-104194390D01*
X185878565Y-104348715D01*
X185861316Y-104461255D01*
X185851242Y-104523289D01*
X185849673Y-104531343D01*
X185844370Y-104568900D01*
X185770400Y-104568900D01*
X185770400Y-102218640D01*
X185357134Y-102218640D01*
X185357134Y-103172332D01*
X185007447Y-103172332D01*
X185007447Y-102218640D01*
X184188861Y-102218640D01*
X184171465Y-102306062D01*
X184162167Y-102364749D01*
X184146877Y-102474831D01*
X184127143Y-102624571D01*
X184104514Y-102802233D01*
X184081484Y-102988306D01*
X184058377Y-103173527D01*
X184037358Y-103334272D01*
X184019754Y-103461001D01*
X184006892Y-103544171D01*
X184000103Y-103574238D01*
X183999941Y-103574171D01*
X183993032Y-103541369D01*
X183979209Y-103455530D01*
X183959963Y-103326638D01*
X183936786Y-103164677D01*
X183911166Y-102979631D01*
X183911128Y-102979348D01*
X183879097Y-102740522D01*
X183854207Y-102557180D01*
X183833271Y-102422068D01*
X183813103Y-102327936D01*
X183790517Y-102267531D01*
X183762327Y-102233600D01*
X183725347Y-102218893D01*
X183676390Y-102216157D01*
X183612271Y-102218140D01*
X183576909Y-102218640D01*
X183501599Y-102217018D01*
X183444552Y-102217256D01*
X183402199Y-102227015D01*
X183370968Y-102253954D01*
X183347291Y-102305731D01*
X183327595Y-102390006D01*
X183308310Y-102514439D01*
X183285868Y-102686687D01*
X183258300Y-102902119D01*
X183234483Y-103080896D01*
X183211991Y-103242543D01*
X183192681Y-103374241D01*
X183178409Y-103463172D01*
X183173142Y-103490229D01*
X183162595Y-103490091D01*
X183146172Y-103432004D01*
X183124923Y-103321220D01*
X183099897Y-103162991D01*
X183081027Y-103029278D01*
X183055308Y-102839996D01*
X183031108Y-102662728D01*
X183010328Y-102511345D01*
X182994870Y-102399716D01*
X182988391Y-102353746D01*
X182969008Y-102218640D01*
X182520771Y-102218640D01*
X182539352Y-102321957D01*
X182556034Y-102421197D01*
X182574347Y-102539130D01*
X182578640Y-102568327D01*
X182599347Y-102711381D01*
X182507519Y-102538864D01*
X182427504Y-102412487D01*
X182335553Y-102322707D01*
X182219911Y-102264144D01*
X182068822Y-102231417D01*
X181870532Y-102219145D01*
X181807996Y-102218640D01*
X181479621Y-102218640D01*
X181471256Y-103307439D01*
X181468825Y-103596567D01*
X181466290Y-103826713D01*
X181463408Y-104002472D01*
X181459935Y-104128443D01*
X181455628Y-104209220D01*
X181450244Y-104249401D01*
X181443541Y-104253583D01*
X181435274Y-104226361D01*
X181425432Y-104173709D01*
X181412390Y-104093401D01*
X181392502Y-103967333D01*
X181367192Y-103804855D01*
X181337889Y-103615316D01*
X181306019Y-103408065D01*
X181273008Y-103192451D01*
X181240283Y-102977823D01*
X181209270Y-102773532D01*
X181181398Y-102588925D01*
X181158091Y-102433354D01*
X181140777Y-102316165D01*
X181130882Y-102246710D01*
X181129099Y-102231748D01*
X181099678Y-102225969D01*
X181020881Y-102221492D01*
X180906909Y-102218967D01*
X180843597Y-102218640D01*
X180707688Y-102219631D01*
X180622429Y-102224649D01*
X180574897Y-102236762D01*
X180552169Y-102259037D01*
X180542273Y-102290167D01*
X180531898Y-102346822D01*
X180514405Y-102452653D01*
X180491995Y-102593940D01*
X180466873Y-102756967D01*
X180459334Y-102806750D01*
X180432802Y-102982558D01*
X180399636Y-103202137D01*
X180362722Y-103446393D01*
X180324944Y-103696234D01*
X180289980Y-103927338D01*
X180187745Y-104602870D01*
X180143617Y-104602870D01*
X180143617Y-102218640D01*
X179698561Y-102218640D01*
X179697594Y-102798803D01*
X179696012Y-102978933D01*
X179692192Y-103131158D01*
X179686569Y-103246579D01*
X179679578Y-103316298D01*
X179671653Y-103331417D01*
X179671580Y-103331281D01*
X179654702Y-103286199D01*
X179623574Y-103191043D01*
X179581641Y-103056805D01*
X179532349Y-102894479D01*
X179489756Y-102751185D01*
X179332979Y-102218774D01*
X178903817Y-102218640D01*
X178903817Y-104602870D01*
X178554130Y-104602870D01*
X178554130Y-101773584D01*
X188281790Y-101773584D01*
G37*
G36*
X192420569Y-103845784D02*
G01*
X192421127Y-103541754D01*
X192422012Y-103391132D01*
X192430350Y-102202745D01*
X192734496Y-102193717D01*
X192941179Y-102194337D01*
X193098429Y-102212716D01*
X193218839Y-102252648D01*
X193315003Y-102317927D01*
X193380964Y-102388487D01*
X193479412Y-102510649D01*
X193479412Y-104405953D01*
X193376384Y-104504412D01*
X193299780Y-104564993D01*
X193230320Y-104599684D01*
X193211364Y-104602870D01*
X193149795Y-104618270D01*
X193128615Y-104636456D01*
X193088153Y-104651923D01*
X193001281Y-104660912D01*
X192884783Y-104663901D01*
X192755447Y-104661373D01*
X192630059Y-104653807D01*
X192525404Y-104641683D01*
X192458269Y-104625481D01*
X192444687Y-104616887D01*
X192436505Y-104574925D01*
X192429933Y-104473118D01*
X192425041Y-104315181D01*
X192424529Y-104280945D01*
X192764143Y-104280945D01*
X192867459Y-104294304D01*
X192936179Y-104304421D01*
X192989771Y-104310363D01*
X193030178Y-104305364D01*
X193059343Y-104282656D01*
X193079212Y-104235472D01*
X193091727Y-104157043D01*
X193098833Y-104040602D01*
X193102473Y-103879382D01*
X193104591Y-103666615D01*
X193106418Y-103462343D01*
X193108255Y-103176678D01*
X193107279Y-102950988D01*
X193103380Y-102781726D01*
X193096446Y-102665344D01*
X193086365Y-102598295D01*
X193078683Y-102580177D01*
X193024329Y-102552104D01*
X192932628Y-102537388D01*
X192903304Y-102536537D01*
X192764143Y-102536537D01*
X192764143Y-104280945D01*
X192424529Y-104280945D01*
X192421897Y-104104832D01*
X192420569Y-103845784D01*
G37*
G36*
X189662771Y-102231245D02*
G01*
X189777998Y-102309407D01*
X189847122Y-102429892D01*
X189871233Y-102593457D01*
X189871277Y-102601804D01*
X189868968Y-102733746D01*
X189856534Y-102813559D01*
X189825717Y-102852663D01*
X189768256Y-102862483D01*
X189687611Y-102855799D01*
X189596578Y-102842326D01*
X189550882Y-102819832D01*
X189532509Y-102773922D01*
X189526940Y-102727403D01*
X189510728Y-102640558D01*
X189485531Y-102579295D01*
X189483310Y-102576402D01*
X189418011Y-102540503D01*
X189338140Y-102545163D01*
X189275227Y-102587210D01*
X189268390Y-102598027D01*
X189248010Y-102670738D01*
X189237710Y-102778761D01*
X189237196Y-102899965D01*
X189246174Y-103012221D01*
X189264353Y-103093397D01*
X189275219Y-103113602D01*
X189322628Y-103153314D01*
X189407708Y-103209424D01*
X189505695Y-103266230D01*
X189619327Y-103333271D01*
X189722727Y-103403031D01*
X189783855Y-103451990D01*
X189818520Y-103486184D01*
X189842544Y-103520393D01*
X189857877Y-103566299D01*
X189866471Y-103635587D01*
X189870277Y-103739939D01*
X189871246Y-103891040D01*
X189871277Y-103975468D01*
X189871277Y-104417023D01*
X189778353Y-104509946D01*
X189705184Y-104569120D01*
X189638451Y-104601056D01*
X189624702Y-104602870D01*
X189562090Y-104613904D01*
X189540688Y-104626158D01*
X189494450Y-104642971D01*
X189413753Y-104651901D01*
X189323707Y-104652610D01*
X189249417Y-104644757D01*
X189217037Y-104630533D01*
X189174393Y-104606927D01*
X189141530Y-104602870D01*
X189086892Y-104580264D01*
X189015750Y-104523049D01*
X188982896Y-104488722D01*
X188922114Y-104410867D01*
X188894603Y-104340813D01*
X188890374Y-104247937D01*
X188892181Y-104210562D01*
X188901690Y-104046550D01*
X189056466Y-104046550D01*
X189150358Y-104049561D01*
X189201449Y-104066578D01*
X189230487Y-104109574D01*
X189247205Y-104156637D01*
X189287385Y-104238666D01*
X189351189Y-104278870D01*
X189384758Y-104287375D01*
X189444799Y-104295163D01*
X189484176Y-104282643D01*
X189507202Y-104239788D01*
X189518195Y-104156570D01*
X189521468Y-104022962D01*
X189521589Y-103969403D01*
X189519461Y-103840514D01*
X189506326Y-103750965D01*
X189472061Y-103685565D01*
X189406545Y-103629121D01*
X189299653Y-103566441D01*
X189227456Y-103527977D01*
X189116343Y-103460949D01*
X189017358Y-103387131D01*
X188965191Y-103336986D01*
X188931654Y-103293407D01*
X188909175Y-103248387D01*
X188895552Y-103188603D01*
X188888586Y-103100732D01*
X188886078Y-102971455D01*
X188885795Y-102856214D01*
X188889791Y-102641432D01*
X188905347Y-102481215D01*
X188937815Y-102366851D01*
X188992547Y-102289629D01*
X189074895Y-102240838D01*
X189190211Y-102211768D01*
X189289649Y-102198874D01*
X189500351Y-102194652D01*
X189662771Y-102231245D01*
G37*
G36*
X182909700Y-94603347D02*
G01*
X182939204Y-94673075D01*
X182941114Y-94699333D01*
X182968894Y-94789814D01*
X183044689Y-94849539D01*
X183157177Y-94870597D01*
X183184366Y-94869368D01*
X183272725Y-94852623D01*
X183325563Y-94809229D01*
X183354380Y-94757063D01*
X183414308Y-94663911D01*
X183477558Y-94632758D01*
X183533253Y-94656027D01*
X183569099Y-94721025D01*
X183559046Y-94805098D01*
X183512606Y-94896146D01*
X183439292Y-94982071D01*
X183348618Y-95050775D01*
X183250097Y-95090157D01*
X183188505Y-95094485D01*
X183131433Y-95085353D01*
X183046538Y-95067412D01*
X183036940Y-95065178D01*
X182929089Y-95017251D01*
X182840165Y-94936978D01*
X182777291Y-94838552D01*
X182747586Y-94736163D01*
X182758171Y-94644003D01*
X182798060Y-94589103D01*
X182857180Y-94571140D01*
X182909700Y-94603347D01*
G37*
G36*
X190936233Y-102520643D02*
G01*
X190801126Y-102530418D01*
X190666020Y-102540193D01*
X190666020Y-103569656D01*
X190665444Y-103869425D01*
X190663588Y-104110791D01*
X190660256Y-104298918D01*
X190655254Y-104438974D01*
X190648387Y-104536124D01*
X190639460Y-104595533D01*
X190628278Y-104622369D01*
X190626283Y-104623976D01*
X190570846Y-104641709D01*
X190482016Y-104655112D01*
X190454719Y-104657326D01*
X190359450Y-104655091D01*
X190311529Y-104630059D01*
X190303718Y-104615850D01*
X190299027Y-104572760D01*
X190294751Y-104474136D01*
X190291036Y-104328019D01*
X190288027Y-104142454D01*
X190285868Y-103925485D01*
X190284706Y-103685154D01*
X190284543Y-103552951D01*
X190284543Y-102540021D01*
X189982541Y-102520643D01*
X189982541Y-102202745D01*
X190936233Y-102202745D01*
X190936233Y-102520643D01*
G37*
G36*
X194302313Y-104057173D02*
G01*
X194295638Y-103867278D01*
X194291084Y-103655991D01*
X194288717Y-103433852D01*
X194288606Y-103211401D01*
X194290820Y-102999178D01*
X194295426Y-102807723D01*
X194302491Y-102647576D01*
X194312085Y-102529278D01*
X194321969Y-102470597D01*
X194367070Y-102357392D01*
X194435901Y-102280131D01*
X194540114Y-102231467D01*
X194691359Y-102204055D01*
X194753677Y-102198413D01*
X194962826Y-102192382D01*
X195122425Y-102212058D01*
X195242227Y-102260229D01*
X195331987Y-102339684D01*
X195354623Y-102370195D01*
X195434481Y-102487717D01*
X195434481Y-104381465D01*
X195320487Y-104492168D01*
X195242542Y-104556957D01*
X195172959Y-104596811D01*
X195147520Y-104602870D01*
X195087498Y-104618564D01*
X195068347Y-104635552D01*
X195030050Y-104651451D01*
X194953130Y-104660148D01*
X194858207Y-104661936D01*
X194765902Y-104657108D01*
X194696836Y-104645958D01*
X194671527Y-104629902D01*
X194644522Y-104608883D01*
X194599126Y-104602870D01*
X194491155Y-104573318D01*
X194395199Y-104493312D01*
X194334377Y-104393103D01*
X194321750Y-104330626D01*
X194316042Y-104269078D01*
X194687422Y-104269078D01*
X194798686Y-104285757D01*
X194868622Y-104297535D01*
X194923445Y-104305055D01*
X194964982Y-104301716D01*
X194995058Y-104280919D01*
X195015500Y-104236064D01*
X195028134Y-104160550D01*
X195034786Y-104047778D01*
X195037282Y-103891148D01*
X195037447Y-103684060D01*
X195037109Y-103424015D01*
X195037109Y-102552432D01*
X194687422Y-102552432D01*
X194687422Y-104269078D01*
X194316042Y-104269078D01*
X194311039Y-104215136D01*
X194302313Y-104057173D01*
G37*
G36*
X196210956Y-102191072D02*
G01*
X196361556Y-102222268D01*
X196486853Y-102283337D01*
X196540550Y-102331612D01*
X196580663Y-102387540D01*
X196601175Y-102450182D01*
X196606631Y-102540675D01*
X196604129Y-102627331D01*
X196594806Y-102838540D01*
X196460183Y-102856508D01*
X196350041Y-102860195D01*
X196287507Y-102830199D01*
X196262651Y-102759888D01*
X196261014Y-102723518D01*
X196249807Y-102614464D01*
X196211490Y-102555561D01*
X196139015Y-102536630D01*
X196131572Y-102536537D01*
X196044140Y-102559442D01*
X196007814Y-102598027D01*
X195987435Y-102670738D01*
X195977134Y-102778761D01*
X195976620Y-102899965D01*
X195985598Y-103012221D01*
X196003777Y-103093397D01*
X196014643Y-103113602D01*
X196062052Y-103153314D01*
X196147132Y-103209424D01*
X196245119Y-103266230D01*
X196358751Y-103333271D01*
X196462151Y-103403031D01*
X196523279Y-103451990D01*
X196557944Y-103486184D01*
X196581968Y-103520393D01*
X196597301Y-103566299D01*
X196605896Y-103635587D01*
X196609701Y-103739939D01*
X196610670Y-103891040D01*
X196610701Y-103975468D01*
X196610701Y-104417023D01*
X196517777Y-104509946D01*
X196443666Y-104569218D01*
X196374896Y-104601108D01*
X196360704Y-104602870D01*
X196298794Y-104616992D01*
X196276834Y-104634781D01*
X196236251Y-104651398D01*
X196158292Y-104658139D01*
X196068288Y-104655637D01*
X195991566Y-104644527D01*
X195954138Y-104626713D01*
X195913585Y-104606109D01*
X195883608Y-104602870D01*
X195827693Y-104581153D01*
X195756457Y-104526985D01*
X195735222Y-104506185D01*
X195680154Y-104439271D01*
X195652171Y-104370463D01*
X195642521Y-104273681D01*
X195641853Y-104228025D01*
X195641114Y-104046550D01*
X195797194Y-104046550D01*
X195890912Y-104048993D01*
X195941449Y-104065342D01*
X195969200Y-104109127D01*
X195988902Y-104173709D01*
X196018175Y-104256218D01*
X196056297Y-104294170D01*
X196121916Y-104305828D01*
X196123923Y-104305933D01*
X196182754Y-104302456D01*
X196221913Y-104278065D01*
X196245313Y-104222521D01*
X196256864Y-104125586D01*
X196260478Y-103977019D01*
X196260580Y-103948160D01*
X196257497Y-103821894D01*
X196240512Y-103734424D01*
X196198894Y-103670419D01*
X196121909Y-103614546D01*
X195998826Y-103551474D01*
X195974906Y-103540056D01*
X195848606Y-103479359D01*
X195758947Y-103428745D01*
X195699409Y-103375966D01*
X195663469Y-103308774D01*
X195644606Y-103214923D01*
X195636298Y-103082164D01*
X195632022Y-102898251D01*
X195631977Y-102896058D01*
X195629148Y-102716457D01*
X195630201Y-102587968D01*
X195636376Y-102498178D01*
X195648912Y-102434673D01*
X195669050Y-102385040D01*
X195685955Y-102355697D01*
X195772553Y-102272060D01*
X195899934Y-102216434D01*
X196051575Y-102189282D01*
X196210956Y-102191072D01*
G37*
G36*
X183308412Y-98485794D02*
G01*
X182787958Y-98358256D01*
X182303516Y-98182935D01*
X181857541Y-97961579D01*
X181452487Y-97695933D01*
X181090807Y-97387745D01*
X180774955Y-97038761D01*
X180507385Y-96650727D01*
X180367315Y-96392321D01*
X180200959Y-96003688D01*
X180085489Y-95614998D01*
X180019903Y-95217214D01*
X180005147Y-94849734D01*
X180225376Y-94849734D01*
X180225397Y-94859316D01*
X180229474Y-95132642D01*
X180242468Y-95358576D01*
X180267748Y-95553061D01*
X180308679Y-95732041D01*
X180368629Y-95911461D01*
X180450966Y-96107265D01*
X180520211Y-96255306D01*
X180752055Y-96668152D01*
X181030322Y-97037835D01*
X181355123Y-97364433D01*
X181726569Y-97648026D01*
X182144773Y-97888691D01*
X182609846Y-98086507D01*
X183121899Y-98241553D01*
X183433855Y-98310633D01*
X183567127Y-98335152D01*
X183689940Y-98353744D01*
X183814637Y-98367228D01*
X183953564Y-98376421D01*
X184119066Y-98382140D01*
X184323487Y-98385202D01*
X184578285Y-98386424D01*
X184808319Y-98384804D01*
X185042011Y-98379412D01*
X185270728Y-98370823D01*
X185485835Y-98359615D01*
X185678699Y-98346364D01*
X185840687Y-98331645D01*
X185963165Y-98316037D01*
X186037500Y-98300114D01*
X186056508Y-98287732D01*
X186045456Y-98254267D01*
X186016549Y-98178701D01*
X185978045Y-98082350D01*
X185916069Y-97906376D01*
X185869359Y-97727287D01*
X185842130Y-97564779D01*
X185838595Y-97438546D01*
X185839150Y-97433241D01*
X185859500Y-97362399D01*
X185911378Y-97332931D01*
X185937297Y-97328856D01*
X185996977Y-97328574D01*
X186020880Y-97358543D01*
X186025188Y-97424226D01*
X186040668Y-97575820D01*
X186081519Y-97758073D01*
X186141071Y-97946727D01*
X186212653Y-98117526D01*
X186219760Y-98131791D01*
X186387076Y-98412313D01*
X186598041Y-98686248D01*
X186844974Y-98948565D01*
X187120190Y-99194233D01*
X187416009Y-99418222D01*
X187724746Y-99615498D01*
X188038721Y-99781032D01*
X188350249Y-99909792D01*
X188651648Y-99996746D01*
X188935236Y-100036863D01*
X189124218Y-100033909D01*
X189247643Y-100018297D01*
X189367717Y-99996942D01*
X189402795Y-99988933D01*
X189503844Y-99947728D01*
X189608010Y-99882153D01*
X189633271Y-99861569D01*
X189694124Y-99803686D01*
X189731570Y-99750781D01*
X189742250Y-99695802D01*
X189722802Y-99631699D01*
X189669867Y-99551420D01*
X189580085Y-99447914D01*
X189450095Y-99314130D01*
X189303365Y-99169268D01*
X189045799Y-98907084D01*
X188839677Y-98675065D01*
X188682262Y-98470103D01*
X188664485Y-98444176D01*
X188416305Y-98124433D01*
X188136632Y-97856649D01*
X187819640Y-97636448D01*
X187459505Y-97459455D01*
X187250316Y-97382061D01*
X187093777Y-97327836D01*
X186988871Y-97285815D01*
X186925988Y-97251117D01*
X186895520Y-97218859D01*
X186888759Y-97198370D01*
X186893613Y-97143806D01*
X186933762Y-97117010D01*
X187015981Y-97117223D01*
X187147049Y-97143687D01*
X187215819Y-97161768D01*
X187621749Y-97304531D01*
X187993799Y-97500429D01*
X188329902Y-97748346D01*
X188373725Y-97786922D01*
X188529241Y-97926743D01*
X189017468Y-97749715D01*
X189727374Y-97483603D01*
X190377285Y-97221566D01*
X190970530Y-96961986D01*
X191510437Y-96703245D01*
X192000335Y-96443726D01*
X192443554Y-96181811D01*
X192843421Y-95915883D01*
X192950733Y-95838530D01*
X192989008Y-95823460D01*
X193040790Y-95834964D01*
X193120751Y-95877907D01*
X193177409Y-95913675D01*
X193346046Y-96013432D01*
X193556497Y-96123717D01*
X193789971Y-96235832D01*
X194027679Y-96341077D01*
X194250831Y-96430756D01*
X194425980Y-96491679D01*
X194744783Y-96578930D01*
X195058485Y-96639006D01*
X195378468Y-96672331D01*
X195716118Y-96679326D01*
X196082820Y-96660413D01*
X196489957Y-96616016D01*
X196753755Y-96578037D01*
X197067888Y-96526041D01*
X197319311Y-96476848D01*
X197508822Y-96430239D01*
X197637218Y-96385995D01*
X197705297Y-96343895D01*
X197717087Y-96312643D01*
X197682009Y-96258485D01*
X197598070Y-96181470D01*
X197473505Y-96086707D01*
X197316551Y-95979303D01*
X197135445Y-95864368D01*
X196938423Y-95747010D01*
X196733723Y-95632337D01*
X196529579Y-95525459D01*
X196334230Y-95431484D01*
X196207137Y-95376118D01*
X195870168Y-95250082D01*
X195516021Y-95141217D01*
X195162562Y-95053962D01*
X194827657Y-94992760D01*
X194544642Y-94962889D01*
X194456364Y-94951814D01*
X194407968Y-94927316D01*
X194401097Y-94883927D01*
X194437394Y-94816181D01*
X194518503Y-94718609D01*
X194646067Y-94585743D01*
X194663157Y-94568587D01*
X194872977Y-94334328D01*
X195026978Y-94102297D01*
X195130884Y-93858756D01*
X195190418Y-93589970D01*
X195211304Y-93282201D01*
X195211483Y-93252666D01*
X195192962Y-92978793D01*
X195139411Y-92717741D01*
X195055293Y-92476701D01*
X194945067Y-92262868D01*
X194813197Y-92083433D01*
X194664143Y-91945590D01*
X194502366Y-91856533D01*
X194332329Y-91823453D01*
X194324982Y-91823396D01*
X194238495Y-91832587D01*
X194180995Y-91855421D01*
X194173940Y-91863026D01*
X194162006Y-91909788D01*
X194149077Y-92004855D01*
X194136949Y-92133013D01*
X194129648Y-92238468D01*
X194117791Y-92401432D01*
X194102074Y-92519534D01*
X194078388Y-92611489D01*
X194042622Y-92696013D01*
X194019389Y-92740484D01*
X193905384Y-92909609D01*
X193752276Y-93064048D01*
X193550431Y-93212730D01*
X193429870Y-93286740D01*
X193204147Y-93439948D01*
X193010012Y-93614428D01*
X192859573Y-93798344D01*
X192796641Y-93905624D01*
X192735822Y-94081821D01*
X192705039Y-94289518D01*
X192705833Y-94503376D01*
X192739745Y-94698060D01*
X192747012Y-94721695D01*
X192776209Y-94819369D01*
X192783012Y-94877282D01*
X192767971Y-94914970D01*
X192752950Y-94931817D01*
X192697838Y-94945575D01*
X192594292Y-94932101D01*
X192449735Y-94894536D01*
X192271587Y-94836022D01*
X192067270Y-94759701D01*
X191844205Y-94668717D01*
X191609814Y-94566210D01*
X191371517Y-94455323D01*
X191136736Y-94339199D01*
X190912892Y-94220979D01*
X190707407Y-94103805D01*
X190527702Y-93990820D01*
X190522966Y-93987648D01*
X190341957Y-93863929D01*
X190166341Y-93738674D01*
X189986103Y-93604208D01*
X189791228Y-93452856D01*
X189571700Y-93276942D01*
X189317505Y-93068792D01*
X189235482Y-93000979D01*
X188815388Y-92658554D01*
X188437211Y-92361910D01*
X188099720Y-92110129D01*
X187801684Y-91902292D01*
X187544622Y-91739120D01*
X187053799Y-91465277D01*
X186558982Y-91225691D01*
X186069891Y-91024252D01*
X185596244Y-90864854D01*
X185147760Y-90751387D01*
X185014516Y-90726000D01*
X184906189Y-90711285D01*
X184766456Y-90698255D01*
X184608505Y-90687426D01*
X184445525Y-90679316D01*
X184290706Y-90674441D01*
X184157236Y-90673317D01*
X184058304Y-90676461D01*
X184007100Y-90684389D01*
X184003918Y-90686416D01*
X184007278Y-90720435D01*
X184027732Y-90799459D01*
X184061254Y-90908524D01*
X184074136Y-90947482D01*
X184115333Y-91076111D01*
X184136480Y-91167222D01*
X184139961Y-91242787D01*
X184128163Y-91324776D01*
X184119490Y-91365226D01*
X184088179Y-91472189D01*
X184040528Y-91556395D01*
X183960974Y-91642584D01*
X183923029Y-91677511D01*
X183732162Y-91811532D01*
X183505183Y-91910832D01*
X183261531Y-91969905D01*
X183020646Y-91983248D01*
X182894573Y-91968762D01*
X182758290Y-91914327D01*
X182630367Y-91812998D01*
X182524429Y-91681242D01*
X182454098Y-91535527D01*
X182437274Y-91438015D01*
X182641524Y-91438015D01*
X182645041Y-91486233D01*
X182685716Y-91557387D01*
X182750640Y-91635227D01*
X182826903Y-91703499D01*
X182878168Y-91735925D01*
X182965667Y-91773071D01*
X183049508Y-91788321D01*
X183150892Y-91782683D01*
X183291022Y-91757166D01*
X183297184Y-91755863D01*
X183510278Y-91692725D01*
X183686555Y-91604215D01*
X183819199Y-91495775D01*
X183901391Y-91372845D01*
X183926596Y-91253485D01*
X183918932Y-91161795D01*
X183899620Y-91064981D01*
X183874180Y-90983365D01*
X183848133Y-90937269D01*
X183839619Y-90933283D01*
X183808843Y-90953117D01*
X183746920Y-91004447D01*
X183686941Y-91058184D01*
X183585745Y-91142012D01*
X183478249Y-91217000D01*
X183427161Y-91246487D01*
X183283140Y-91306432D01*
X183110915Y-91358414D01*
X182938231Y-91395336D01*
X182792838Y-91410100D01*
X182787400Y-91410129D01*
X182702325Y-91416425D01*
X182648084Y-91432117D01*
X182641524Y-91438015D01*
X182437274Y-91438015D01*
X182432478Y-91410221D01*
X182426334Y-91312099D01*
X182410815Y-91218255D01*
X182390294Y-91148881D01*
X182370508Y-91124022D01*
X182336537Y-91140487D01*
X182261263Y-91185166D01*
X182156267Y-91250981D01*
X182048637Y-91320663D01*
X181674349Y-91603128D01*
X181331241Y-91936212D01*
X181025068Y-92312260D01*
X180761586Y-92723617D01*
X180546551Y-93162626D01*
X180431292Y-93471950D01*
X180356528Y-93713364D01*
X180301582Y-93925545D01*
X180263722Y-94126883D01*
X180240221Y-94335767D01*
X180228348Y-94570587D01*
X180225376Y-94849734D01*
X180005147Y-94849734D01*
X180003202Y-94801300D01*
X180034384Y-94358220D01*
X180097473Y-93955154D01*
X180221861Y-93464307D01*
X180402289Y-92991843D01*
X180634587Y-92543766D01*
X180914586Y-92126079D01*
X181238118Y-91744786D01*
X181601012Y-91405889D01*
X181999101Y-91115391D01*
X182121741Y-91040349D01*
X182221856Y-90982218D01*
X182226810Y-90978974D01*
X182591427Y-90978974D01*
X182596317Y-91094476D01*
X182617261Y-91169836D01*
X182663668Y-91209510D01*
X182744949Y-91217953D01*
X182870512Y-91199621D01*
X182997747Y-91171372D01*
X183220711Y-91101159D01*
X183415266Y-91005219D01*
X183571040Y-90890299D01*
X183677659Y-90763145D01*
X183703368Y-90712443D01*
X183723944Y-90641379D01*
X183718299Y-90568994D01*
X183686985Y-90473645D01*
X183631676Y-90328821D01*
X183477418Y-90473111D01*
X183365365Y-90568314D01*
X183249351Y-90643332D01*
X183115366Y-90704266D01*
X182949400Y-90757215D01*
X182737443Y-90808279D01*
X182678849Y-90820790D01*
X182624123Y-90838835D01*
X182598693Y-90875543D01*
X182591613Y-90950719D01*
X182591427Y-90978974D01*
X182226810Y-90978974D01*
X182291893Y-90936357D01*
X182336138Y-90890525D01*
X182358876Y-90832478D01*
X182364393Y-90749975D01*
X182356975Y-90630773D01*
X182340908Y-90462630D01*
X182337279Y-90424648D01*
X182329886Y-90340835D01*
X182528281Y-90340835D01*
X182534504Y-90477250D01*
X182555456Y-90561417D01*
X182596209Y-90603929D01*
X182659717Y-90615386D01*
X182739162Y-90605216D01*
X182851117Y-90578822D01*
X182948399Y-90549352D01*
X183179613Y-90448102D01*
X183356751Y-90317493D01*
X183461726Y-90190482D01*
X183509375Y-90111877D01*
X183524727Y-90055607D01*
X183511208Y-89991413D01*
X183490531Y-89936164D01*
X183457708Y-89854172D01*
X183434887Y-89801517D01*
X183430427Y-89793244D01*
X183403291Y-89805243D01*
X183342494Y-89848211D01*
X183283295Y-89894944D01*
X183121044Y-90007356D01*
X182936594Y-90102646D01*
X182755021Y-90168921D01*
X182663172Y-90189045D01*
X182578695Y-90204799D01*
X182539696Y-90231264D01*
X182528709Y-90288094D01*
X182528281Y-90340835D01*
X182329886Y-90340835D01*
X182304670Y-90054958D01*
X182279769Y-89728387D01*
X182484329Y-89728387D01*
X182488471Y-89815905D01*
X182492277Y-89912127D01*
X182496058Y-90019507D01*
X182631164Y-89998539D01*
X182739368Y-89971272D01*
X182865384Y-89925003D01*
X182930447Y-89895284D01*
X183049905Y-89823406D01*
X183167230Y-89734121D01*
X183214040Y-89690705D01*
X183282215Y-89618120D01*
X183312990Y-89567565D01*
X183313468Y-89515657D01*
X183290752Y-89439017D01*
X183290619Y-89438616D01*
X183258815Y-89355161D01*
X183230329Y-89301229D01*
X183222861Y-89293417D01*
X183186345Y-89302500D01*
X183113333Y-89340790D01*
X183018882Y-89400286D01*
X183008447Y-89407361D01*
X182883062Y-89484196D01*
X182747918Y-89553690D01*
X182649559Y-89594367D01*
X182551247Y-89631885D01*
X182500829Y-89665562D01*
X182484431Y-89706651D01*
X182484329Y-89728387D01*
X182279769Y-89728387D01*
X182276467Y-89685080D01*
X182252886Y-89321755D01*
X182246692Y-89206090D01*
X182432809Y-89206090D01*
X182439252Y-89327201D01*
X182464092Y-89400533D01*
X182514507Y-89428161D01*
X182597674Y-89412162D01*
X182720769Y-89354611D01*
X182798060Y-89311743D01*
X182905712Y-89242584D01*
X183004555Y-89166540D01*
X183045488Y-89128537D01*
X183133968Y-89036106D01*
X183069271Y-88885173D01*
X183004573Y-88734241D01*
X182906904Y-88816424D01*
X182824020Y-88874855D01*
X182710785Y-88940878D01*
X182621188Y-88986095D01*
X182520153Y-89034940D01*
X182463867Y-89072794D01*
X182439201Y-89114986D01*
X182433030Y-89176846D01*
X182432809Y-89206090D01*
X182246692Y-89206090D01*
X182234142Y-88971724D01*
X182220453Y-88641728D01*
X182219607Y-88611258D01*
X182400688Y-88611258D01*
X182410018Y-88739222D01*
X182436852Y-88815339D01*
X182470229Y-88835161D01*
X182511118Y-88818693D01*
X182586982Y-88775764D01*
X182670506Y-88722767D01*
X182788482Y-88641830D01*
X182859354Y-88582598D01*
X182890381Y-88533804D01*
X182888820Y-88484180D01*
X182862820Y-88424178D01*
X182819311Y-88351875D01*
X182779894Y-88332561D01*
X182724882Y-88360257D01*
X182703673Y-88375871D01*
X182630887Y-88415828D01*
X182534631Y-88451669D01*
X182520882Y-88455559D01*
X182442765Y-88481937D01*
X182408803Y-88519569D01*
X182400783Y-88592052D01*
X182400688Y-88611258D01*
X182219607Y-88611258D01*
X182212034Y-88338507D01*
X182209101Y-88068802D01*
X182210819Y-87926504D01*
X182400688Y-87926504D01*
X182403883Y-88099789D01*
X182413526Y-88210673D01*
X182429709Y-88260012D01*
X182436097Y-88262945D01*
X182483706Y-88248357D01*
X182561486Y-88211679D01*
X182595046Y-88193512D01*
X182669274Y-88148050D01*
X182712877Y-88114095D01*
X182717778Y-88106090D01*
X182702172Y-88059307D01*
X182663455Y-87977230D01*
X182610580Y-87876050D01*
X182552498Y-87771959D01*
X182498163Y-87681148D01*
X182456526Y-87619809D01*
X182439640Y-87603046D01*
X182421292Y-87614104D01*
X182409270Y-87666685D01*
X182402696Y-87768094D01*
X182400688Y-87925637D01*
X182400688Y-87926504D01*
X182210819Y-87926504D01*
X182211871Y-87839355D01*
X182220558Y-87656905D01*
X182235379Y-87528194D01*
X182243308Y-87492418D01*
X182292567Y-87381825D01*
X182360084Y-87330104D01*
X182442381Y-87336381D01*
X182535977Y-87399781D01*
X182637393Y-87519427D01*
X182693274Y-87605596D01*
X182740719Y-87687262D01*
X182789069Y-87776679D01*
X182843007Y-87883438D01*
X182907212Y-88017125D01*
X182986366Y-88187328D01*
X183085149Y-88403637D01*
X183115064Y-88469579D01*
X183145485Y-88540796D01*
X183194775Y-88660945D01*
X183258842Y-88819667D01*
X183333595Y-89006603D01*
X183414942Y-89211396D01*
X183498793Y-89423688D01*
X183581055Y-89633121D01*
X183657638Y-89829336D01*
X183724449Y-90001976D01*
X183777399Y-90140683D01*
X183811968Y-90233909D01*
X183897531Y-90472332D01*
X184301488Y-90475166D01*
X184687741Y-90491441D01*
X185059256Y-90536836D01*
X185431513Y-90614601D01*
X185819994Y-90727986D01*
X186240182Y-90880242D01*
X186250701Y-90884368D01*
X186588229Y-91023428D01*
X186909040Y-91170006D01*
X187220353Y-91328708D01*
X187529388Y-91504136D01*
X187843362Y-91700893D01*
X188169496Y-91923584D01*
X188515009Y-92176812D01*
X188887118Y-92465181D01*
X189293045Y-92793293D01*
X189458010Y-92929641D01*
X189816838Y-93221688D01*
X190142983Y-93473449D01*
X190446411Y-93691790D01*
X190737089Y-93883579D01*
X191024982Y-94055682D01*
X191320058Y-94214966D01*
X191333604Y-94221911D01*
X191512687Y-94309814D01*
X191707592Y-94399243D01*
X191904722Y-94484547D01*
X192090474Y-94560073D01*
X192251250Y-94620168D01*
X192373449Y-94659181D01*
X192403569Y-94666590D01*
X192503947Y-94688233D01*
X192503026Y-94392298D01*
X192516325Y-94151441D01*
X192562554Y-93947434D01*
X192648723Y-93759069D01*
X192772486Y-93577215D01*
X192891597Y-93446973D01*
X193048051Y-93309977D01*
X193220327Y-93183503D01*
X193384043Y-93086278D01*
X193506448Y-93007437D01*
X193636252Y-92897541D01*
X193753705Y-92775527D01*
X193839059Y-92660333D01*
X193851402Y-92638110D01*
X193889048Y-92542739D01*
X193916061Y-92418103D01*
X193935215Y-92249790D01*
X193940896Y-92173083D01*
X193952384Y-92028478D01*
X193965768Y-91903558D01*
X193979115Y-91814575D01*
X193987354Y-91782483D01*
X194053047Y-91704450D01*
X194162293Y-91654878D01*
X194301115Y-91635163D01*
X194455536Y-91646702D01*
X194611576Y-91690891D01*
X194664931Y-91714799D01*
X194853333Y-91842390D01*
X195019938Y-92021176D01*
X195161673Y-92241593D01*
X195275463Y-92494075D01*
X195358236Y-92769059D01*
X195406918Y-93056978D01*
X195418435Y-93348270D01*
X195389714Y-93633367D01*
X195343403Y-93826149D01*
X195218985Y-94144485D01*
X195052694Y-94432385D01*
X194909508Y-94614670D01*
X194764071Y-94776431D01*
X194884695Y-94795535D01*
X195134477Y-94842494D01*
X195412622Y-94906910D01*
X195689027Y-94981264D01*
X195927221Y-95055850D01*
X196175213Y-95149011D01*
X196430496Y-95259513D01*
X196686334Y-95383127D01*
X196935993Y-95515621D01*
X197172737Y-95652765D01*
X197389833Y-95790328D01*
X197580543Y-95924079D01*
X197738134Y-96049788D01*
X197855871Y-96163223D01*
X197927017Y-96260154D01*
X197945870Y-96323906D01*
X197919111Y-96393959D01*
X197849555Y-96473384D01*
X197753278Y-96547554D01*
X197646360Y-96601843D01*
X197636517Y-96605338D01*
X197482715Y-96648767D01*
X197278736Y-96693147D01*
X197037924Y-96736640D01*
X196773618Y-96777411D01*
X196499163Y-96813624D01*
X196227898Y-96843442D01*
X195973168Y-96865029D01*
X195748312Y-96876549D01*
X195655639Y-96877964D01*
X195142611Y-96846442D01*
X194628484Y-96752576D01*
X194116978Y-96597423D01*
X193611813Y-96382035D01*
X193278219Y-96204245D01*
X193163151Y-96138662D01*
X193070064Y-96087166D01*
X193011683Y-96056712D01*
X192998695Y-96051431D01*
X192967684Y-96069086D01*
X192901029Y-96115240D01*
X192818411Y-96175989D01*
X192594669Y-96330653D01*
X192317270Y-96499673D01*
X191993579Y-96679564D01*
X191630963Y-96866837D01*
X191236788Y-97058007D01*
X190818420Y-97249587D01*
X190383226Y-97438089D01*
X189938572Y-97620027D01*
X189491824Y-97791914D01*
X189124218Y-97924622D01*
X188977469Y-97977236D01*
X188852347Y-98024574D01*
X188761289Y-98061755D01*
X188716728Y-98083897D01*
X188715278Y-98085127D01*
X188721440Y-98120283D01*
X188758865Y-98194574D01*
X188820085Y-98296708D01*
X188897636Y-98415398D01*
X188984049Y-98539353D01*
X189071860Y-98657285D01*
X189153601Y-98757905D01*
X189179545Y-98787106D01*
X189247487Y-98856293D01*
X189347872Y-98952522D01*
X189465179Y-99061105D01*
X189545899Y-99133798D01*
X189701191Y-99277582D01*
X189811008Y-99394828D01*
X189882049Y-99495336D01*
X189921011Y-99588906D01*
X189934590Y-99685338D01*
X189934856Y-99702964D01*
X189924792Y-99797909D01*
X189886464Y-99879339D01*
X189821121Y-99960117D01*
X189664068Y-100087934D01*
X189465252Y-100175409D01*
X189231555Y-100223140D01*
X188969856Y-100231729D01*
X188687037Y-100201774D01*
X188389978Y-100133874D01*
X188085558Y-100028630D01*
X187780660Y-99886640D01*
X187567536Y-99763770D01*
X187244596Y-99544158D01*
X186937273Y-99301711D01*
X186658841Y-99048035D01*
X186422576Y-98794735D01*
X186335882Y-98687027D01*
X186239997Y-98570257D01*
X186166898Y-98500243D01*
X186120961Y-98481169D01*
X186120584Y-98481269D01*
X186062606Y-98492787D01*
X185967650Y-98507462D01*
X185905507Y-98515819D01*
X185812426Y-98531200D01*
X185751846Y-98548060D01*
X185738620Y-98557856D01*
X185748709Y-98594769D01*
X185775929Y-98677832D01*
X185815722Y-98793429D01*
X185848674Y-98886575D01*
X185955879Y-99206610D01*
X186031871Y-99481761D01*
X186078782Y-99721281D01*
X186098738Y-99934421D01*
X186099711Y-99977464D01*
X186094961Y-100145147D01*
X186073553Y-100263505D01*
X186030457Y-100345718D01*
X185960642Y-100404967D01*
X185929985Y-100422191D01*
X185831737Y-100457920D01*
X185719791Y-100464598D01*
X185576887Y-100442182D01*
X185492262Y-100421085D01*
X185209505Y-100313993D01*
X184924039Y-100144894D01*
X184637623Y-99915206D01*
X184352018Y-99626344D01*
X184068984Y-99279725D01*
X184061869Y-99270215D01*
X183957126Y-99125040D01*
X183851982Y-98971074D01*
X183761431Y-98830642D01*
X183718175Y-98758383D01*
X183624796Y-98594610D01*
X183863044Y-98594610D01*
X183880349Y-98632991D01*
X183926901Y-98710777D01*
X183994603Y-98815915D01*
X184075357Y-98936353D01*
X184161067Y-99060039D01*
X184243634Y-99174921D01*
X184314962Y-99268948D01*
X184322247Y-99278089D01*
X184597332Y-99593706D01*
X184867366Y-99848856D01*
X185131483Y-100042906D01*
X185388819Y-100175220D01*
X185638509Y-100245164D01*
X185639129Y-100245261D01*
X185772505Y-100253812D01*
X185856307Y-100227868D01*
X185895839Y-100165034D01*
X185900508Y-100127346D01*
X185893526Y-99894815D01*
X185856206Y-99637458D01*
X185786820Y-99347107D01*
X185683639Y-99015591D01*
X185637443Y-98883348D01*
X185530237Y-98583976D01*
X184696650Y-98581346D01*
X184473929Y-98581223D01*
X184273646Y-98582224D01*
X184104113Y-98584218D01*
X183973640Y-98587072D01*
X183890540Y-98590654D01*
X183863044Y-98594610D01*
X183624796Y-98594610D01*
X183593963Y-98540533D01*
X183308412Y-98485794D01*
G37*
G36*
X182612480Y-102782908D02*
G01*
X182616679Y-102847992D01*
X182612480Y-102862382D01*
X182600877Y-102866376D01*
X182596446Y-102822645D01*
X182601442Y-102777515D01*
X182612480Y-102782908D01*
G37*
G36*
X180852633Y-103069327D02*
G01*
X180854263Y-103076963D01*
X180872300Y-103178817D01*
X180891391Y-103307813D01*
X180909878Y-103449471D01*
X180926104Y-103589311D01*
X180938413Y-103712854D01*
X180945147Y-103805619D01*
X180944649Y-103853125D01*
X180943414Y-103856056D01*
X180899658Y-103869337D01*
X180829133Y-103870771D01*
X180764059Y-103861644D01*
X180737722Y-103847864D01*
X180736478Y-103809174D01*
X180742594Y-103719759D01*
X180754980Y-103591912D01*
X180772547Y-103437924D01*
X180777861Y-103394860D01*
X180800006Y-103225604D01*
X180817210Y-103114018D01*
X180830820Y-103054508D01*
X180842179Y-103041477D01*
X180852633Y-103069327D01*
G37*
G36*
X181995814Y-102650985D02*
G01*
X182060369Y-102697947D01*
X182072871Y-102708456D01*
X182119654Y-102754093D01*
X182146406Y-102802735D01*
X182158669Y-102873318D01*
X182161987Y-102984778D01*
X182162065Y-103013139D01*
X182160087Y-103134797D01*
X182150205Y-103211862D01*
X182126889Y-103263277D01*
X182084611Y-103307985D01*
X182073071Y-103318066D01*
X182006915Y-103368600D01*
X181958910Y-103394112D01*
X181953859Y-103394860D01*
X181941728Y-103364875D01*
X181932119Y-103282095D01*
X181925879Y-103157280D01*
X181923842Y-103013383D01*
X181926202Y-102859211D01*
X181932715Y-102737095D01*
X181942537Y-102657796D01*
X181953859Y-102631907D01*
X181995814Y-102650985D01*
G37*
G36*
X184662276Y-94096075D02*
G01*
X184793833Y-93987837D01*
X184944358Y-93934807D01*
X185102175Y-93940709D01*
X185127978Y-93947567D01*
X185274722Y-94019894D01*
X185379600Y-94128367D01*
X185441765Y-94260682D01*
X185460366Y-94404533D01*
X185434555Y-94547616D01*
X185363481Y-94677626D01*
X185246296Y-94782257D01*
X185187760Y-94813597D01*
X185093724Y-94854006D01*
X185028340Y-94868985D01*
X184962610Y-94859921D01*
X184869326Y-94828841D01*
X184713604Y-94745437D01*
X184605279Y-94629497D01*
X184547334Y-94491578D01*
X184542751Y-94342237D01*
X184574509Y-94250078D01*
X184945781Y-94250078D01*
X184968463Y-94332450D01*
X185014520Y-94380667D01*
X185078932Y-94417786D01*
X185118711Y-94430154D01*
X185167918Y-94413308D01*
X185222902Y-94380667D01*
X185280712Y-94309049D01*
X185289526Y-94224896D01*
X185255792Y-94146788D01*
X185185959Y-94093304D01*
X185118711Y-94080467D01*
X185027354Y-94105506D01*
X184967561Y-94168236D01*
X184945781Y-94250078D01*
X184574509Y-94250078D01*
X184594513Y-94192029D01*
X184662276Y-94096075D01*
G37*
G36*
X194059966Y-103391132D02*
G01*
X194061698Y-103726672D01*
X194061690Y-104002537D01*
X194059850Y-104222610D01*
X194056090Y-104390774D01*
X194050319Y-104510914D01*
X194042448Y-104586910D01*
X194032385Y-104622648D01*
X194031394Y-104623993D01*
X193971079Y-104654315D01*
X193871559Y-104661214D01*
X193871085Y-104661186D01*
X193783306Y-104647191D01*
X193740784Y-104612903D01*
X193731849Y-104588651D01*
X193728453Y-104542692D01*
X193725787Y-104440739D01*
X193723895Y-104290374D01*
X193722819Y-104099179D01*
X193722602Y-103874735D01*
X193723289Y-103624625D01*
X193724870Y-103363071D01*
X193733730Y-102202745D01*
X194051627Y-102202745D01*
X194059966Y-103391132D01*
G37*
%TD*%
D10*
%TO.C,C37*%
X182850000Y-113312500D03*
X182850000Y-115037500D03*
%TD*%
D11*
%TO.C,C33*%
X144875000Y-59705000D03*
X146600000Y-59705000D03*
%TD*%
D12*
%TO.C,R5*%
X160862500Y-105600000D03*
X162687500Y-105600000D03*
%TD*%
D13*
%TO.C,J8*%
X165025000Y-65450000D03*
D14*
X165025000Y-62950000D03*
X165025000Y-60450000D03*
%TD*%
D15*
%TO.C,R8*%
X118037500Y-103750000D03*
X116212500Y-103750000D03*
%TD*%
D16*
%TO.C,C6*%
X125250000Y-129500000D03*
X123525000Y-129500000D03*
%TD*%
D17*
%TO.C,R16*%
X179202500Y-82500000D03*
X180397500Y-82500000D03*
%TD*%
D18*
%TO.C,J7*%
X130500000Y-49760000D03*
D19*
X130500000Y-52300000D03*
X130500000Y-54840000D03*
%TD*%
D10*
%TO.C,C2*%
X130825000Y-110087500D03*
X130825000Y-111812500D03*
%TD*%
D17*
%TO.C,R17*%
X179202500Y-81200000D03*
X180397500Y-81200000D03*
%TD*%
D20*
%TO.C,IC7*%
X184695000Y-118700000D03*
X185965000Y-118700000D03*
X187235000Y-118700000D03*
X188505000Y-118700000D03*
X188505000Y-113300000D03*
X187235000Y-113300000D03*
X185965000Y-113300000D03*
X184695000Y-113300000D03*
%TD*%
D12*
%TO.C,R7*%
X116212500Y-105650000D03*
X118037500Y-105650000D03*
%TD*%
D21*
%TO.C,H1*%
X103302944Y-48302944D03*
X106697056Y-48302944D03*
D22*
X105000000Y-50000000D03*
D21*
X106697056Y-51697056D03*
X102600000Y-50000000D03*
X105000000Y-47600000D03*
X105000000Y-52400000D03*
X107400000Y-50000000D03*
X103302944Y-51697056D03*
%TD*%
D11*
%TO.C,C32*%
X144875000Y-58105000D03*
X146600000Y-58105000D03*
%TD*%
D10*
%TO.C,C20*%
X147125000Y-124037500D03*
X147125000Y-125762500D03*
%TD*%
D11*
%TO.C,C34*%
X182112500Y-137600000D03*
X183837500Y-137600000D03*
%TD*%
D12*
%TO.C,R3*%
X160862500Y-102100000D03*
X162687500Y-102100000D03*
%TD*%
D13*
%TO.C,J12*%
X179350000Y-53900000D03*
D14*
X179350000Y-51400000D03*
X179350000Y-48900000D03*
%TD*%
D16*
%TO.C,C10*%
X134287500Y-113450000D03*
X132562500Y-113450000D03*
%TD*%
D23*
%TO.C,J4*%
X105275000Y-77600000D03*
D24*
X105275000Y-81100000D03*
X105275000Y-84600000D03*
X105275000Y-88100000D03*
X105275000Y-91600000D03*
X105275000Y-95100000D03*
X105275000Y-98600000D03*
X105275000Y-102100000D03*
X105275000Y-105600000D03*
X105275000Y-109100000D03*
X105275000Y-112600000D03*
X105275000Y-116100000D03*
X105275000Y-119600000D03*
X105275000Y-123100000D03*
X105275000Y-126600000D03*
X105275000Y-130100000D03*
%TD*%
D10*
%TO.C,C17*%
X166200000Y-80037500D03*
X166200000Y-81762500D03*
%TD*%
D25*
%TO.C,J6*%
X105395000Y-59100000D03*
D26*
X105395000Y-64100000D03*
%TD*%
D27*
%TO.C,D11*%
X184643750Y-126800000D03*
X186393750Y-126800000D03*
%TD*%
%TO.C,D10*%
X184643750Y-125000000D03*
X186393750Y-125000000D03*
%TD*%
%TO.C,FB1*%
X132550000Y-110050000D03*
X134300000Y-110050000D03*
%TD*%
D10*
%TO.C,C14*%
X175850000Y-89887500D03*
X175850000Y-91612500D03*
%TD*%
D12*
%TO.C,R9*%
X130800000Y-98000000D03*
X132625000Y-98000000D03*
%TD*%
D28*
%TO.C,C1*%
X138800000Y-95862500D03*
X138800000Y-94137500D03*
%TD*%
D29*
%TO.C,Y1*%
X133125000Y-105150000D03*
X133125000Y-107350000D03*
X134725000Y-107350000D03*
X134725000Y-105150000D03*
%TD*%
D11*
%TO.C,C24*%
X118137500Y-120250000D03*
X119862500Y-120250000D03*
%TD*%
D30*
%TO.C,C25*%
X122700000Y-49700000D03*
X117300000Y-49700000D03*
%TD*%
D16*
%TO.C,C8*%
X134287500Y-111750000D03*
X132562500Y-111750000D03*
%TD*%
D18*
%TO.C,J5*%
X139075000Y-133650000D03*
D19*
X139075000Y-131110000D03*
X139075000Y-128570000D03*
X139075000Y-126030000D03*
%TD*%
D10*
%TO.C,C26*%
X128250000Y-60700000D03*
X128250000Y-62425000D03*
%TD*%
D28*
%TO.C,C29*%
X140875000Y-57112500D03*
X140875000Y-55387500D03*
%TD*%
D10*
%TO.C,C7*%
X153500000Y-115137500D03*
X153500000Y-116862500D03*
%TD*%
D31*
%TO.C,IC8*%
X175100000Y-127350000D03*
X175100000Y-127850000D03*
X175100000Y-128350000D03*
X175100000Y-128850000D03*
X175100000Y-129350000D03*
X175100000Y-129850000D03*
X175100000Y-130350000D03*
X175100000Y-130850000D03*
D32*
X175800000Y-131550000D03*
X176300000Y-131550000D03*
X176800000Y-131550000D03*
X177300000Y-131550000D03*
X177800000Y-131550000D03*
X178300000Y-131550000D03*
X178800000Y-131550000D03*
X179300000Y-131550000D03*
D31*
X180000000Y-130850000D03*
X180000000Y-130350000D03*
X180000000Y-129850000D03*
X180000000Y-129350000D03*
X180000000Y-128850000D03*
X180000000Y-128350000D03*
X180000000Y-127850000D03*
X180000000Y-127350000D03*
D32*
X179300000Y-126650000D03*
X178800000Y-126650000D03*
X178300000Y-126650000D03*
X177800000Y-126650000D03*
X177300000Y-126650000D03*
X176800000Y-126650000D03*
X176300000Y-126650000D03*
X175800000Y-126650000D03*
D33*
X177550000Y-129100000D03*
%TD*%
D21*
%TO.C,H3*%
X103302944Y-141697056D03*
X103302944Y-138302944D03*
X107400000Y-140000000D03*
X105000000Y-137600000D03*
X105000000Y-142400000D03*
X106697056Y-141697056D03*
X102600000Y-140000000D03*
X106697056Y-138302944D03*
D22*
X105000000Y-140000000D03*
%TD*%
D13*
%TO.C,J11*%
X172225000Y-53900000D03*
D14*
X172225000Y-51400000D03*
X172225000Y-48900000D03*
%TD*%
D34*
%TO.C,J3*%
X193515000Y-76755000D03*
X193515000Y-64055000D03*
D35*
X190975000Y-66835000D03*
D36*
X189195000Y-67855000D03*
X190975000Y-68875000D03*
X189195000Y-69895000D03*
X190975000Y-70915000D03*
X189195000Y-71935000D03*
X190975000Y-72955000D03*
X189195000Y-73975000D03*
X184375000Y-63545000D03*
X184375000Y-65835000D03*
X184375000Y-74975000D03*
X184375000Y-77265000D03*
D37*
X190085000Y-62280000D03*
X190085000Y-78530000D03*
%TD*%
D11*
%TO.C,C16*%
X157337500Y-100100000D03*
X159062500Y-100100000D03*
%TD*%
D15*
%TO.C,R11*%
X161800000Y-118800000D03*
X159975000Y-118800000D03*
%TD*%
D38*
%TO.C,D5*%
X166150000Y-105600000D03*
X164400000Y-105600000D03*
%TD*%
D39*
%TO.C,IC6*%
X121850000Y-69455000D03*
X121850000Y-68185000D03*
X121850000Y-66915000D03*
X121850000Y-65645000D03*
X116450000Y-65645000D03*
X116450000Y-66915000D03*
X116450000Y-68185000D03*
X116450000Y-69455000D03*
%TD*%
D40*
%TO.C,IC4*%
X146285000Y-48595000D03*
X145335000Y-48595000D03*
X144385000Y-48595000D03*
X144385000Y-51095000D03*
X146285000Y-51095000D03*
%TD*%
D18*
%TO.C,J1*%
X170725000Y-109725000D03*
D19*
X170725000Y-112265000D03*
X170725000Y-114805000D03*
%TD*%
D41*
%TO.C,J16*%
X145600000Y-80800000D03*
D42*
X143100000Y-80800000D03*
X140600000Y-80800000D03*
X138100000Y-80800000D03*
X135600000Y-80800000D03*
X133100000Y-80800000D03*
%TD*%
D28*
%TO.C,C30*%
X142475000Y-57112500D03*
X142475000Y-55387500D03*
%TD*%
D16*
%TO.C,C12*%
X131287500Y-105150000D03*
X129562500Y-105150000D03*
%TD*%
D43*
%TO.C,JP2*%
X135550000Y-50650000D03*
D44*
X135550000Y-51950000D03*
%TD*%
D38*
%TO.C,D9*%
X127175000Y-68700000D03*
X125425000Y-68700000D03*
%TD*%
D45*
%TO.C,TP1*%
X111100000Y-47500000D03*
%TD*%
D11*
%TO.C,C22*%
X118000000Y-93650000D03*
X119725000Y-93650000D03*
%TD*%
%TO.C,C21*%
X122062500Y-93650000D03*
X123787500Y-93650000D03*
%TD*%
D16*
%TO.C,C11*%
X135687500Y-103200000D03*
X133962500Y-103200000D03*
%TD*%
D46*
%TO.C,IC5*%
X140200000Y-62705000D03*
X141150000Y-62705000D03*
X142100000Y-62705000D03*
X142100000Y-59705000D03*
X141150000Y-59705000D03*
X140200000Y-59705000D03*
D47*
X141150000Y-61205000D03*
%TD*%
D48*
%TO.C,D8*%
X118750000Y-132050000D03*
X115550000Y-132050000D03*
X115550000Y-136950000D03*
X118750000Y-136950000D03*
%TD*%
D38*
%TO.C,D3*%
X166150000Y-102100000D03*
X164400000Y-102100000D03*
%TD*%
D10*
%TO.C,C15*%
X151200000Y-116737500D03*
X151200000Y-118462500D03*
%TD*%
D27*
%TO.C,FB3*%
X182100000Y-136000000D03*
X183850000Y-136000000D03*
%TD*%
D16*
%TO.C,C13*%
X131287500Y-107350000D03*
X129562500Y-107350000D03*
%TD*%
D38*
%TO.C,D6*%
X166150000Y-107350000D03*
X164400000Y-107350000D03*
%TD*%
D49*
%TO.C,JP1*%
X132000000Y-95600000D03*
X129600000Y-95600000D03*
D50*
X128800000Y-95600000D03*
D51*
X132800000Y-95600000D03*
%TD*%
D15*
%TO.C,R12*%
X161812500Y-115800000D03*
X159987500Y-115800000D03*
%TD*%
D52*
%TO.C,U2*%
X123862500Y-118575000D03*
X123862500Y-117925000D03*
X123862500Y-117275000D03*
X123862500Y-116625000D03*
X123862500Y-115975000D03*
X123862500Y-115325000D03*
X123862500Y-114675000D03*
X123862500Y-114025000D03*
X123862500Y-113375000D03*
X123862500Y-112725000D03*
X118137500Y-112725000D03*
X118137500Y-113375000D03*
X118137500Y-114025000D03*
X118137500Y-114675000D03*
X118137500Y-115325000D03*
X118137500Y-115975000D03*
X118137500Y-116625000D03*
X118137500Y-117275000D03*
X118137500Y-117925000D03*
X118137500Y-118575000D03*
%TD*%
D11*
%TO.C,C35*%
X183487500Y-130100000D03*
X185212500Y-130100000D03*
%TD*%
D16*
%TO.C,C36*%
X116062500Y-71200000D03*
X114337500Y-71200000D03*
%TD*%
%TO.C,C5*%
X118750000Y-129500000D03*
X117025000Y-129500000D03*
%TD*%
D52*
%TO.C,U1*%
X123787500Y-91575000D03*
X123787500Y-90925000D03*
X123787500Y-90275000D03*
X123787500Y-89625000D03*
X123787500Y-88975000D03*
X123787500Y-88325000D03*
X123787500Y-87675000D03*
X123787500Y-87025000D03*
X123787500Y-86375000D03*
X123787500Y-85725000D03*
X118062500Y-85725000D03*
X118062500Y-86375000D03*
X118062500Y-87025000D03*
X118062500Y-87675000D03*
X118062500Y-88325000D03*
X118062500Y-88975000D03*
X118062500Y-89625000D03*
X118062500Y-90275000D03*
X118062500Y-90925000D03*
X118062500Y-91575000D03*
%TD*%
D16*
%TO.C,C4*%
X131750000Y-129500000D03*
X130025000Y-129500000D03*
%TD*%
D53*
%TO.C,Q1*%
X139360000Y-50795000D03*
X140010000Y-50795000D03*
X140660000Y-50795000D03*
X141310000Y-50795000D03*
D54*
X141310000Y-47720000D03*
X140660000Y-47720000D03*
X140010000Y-47720000D03*
X139360000Y-47720000D03*
D55*
X140335000Y-48900000D03*
%TD*%
D38*
%TO.C,D4*%
X166150000Y-103850000D03*
X164400000Y-103850000D03*
%TD*%
D48*
%TO.C,D7*%
X125250000Y-132050000D03*
X122050000Y-132050000D03*
X122050000Y-136950000D03*
X125250000Y-136950000D03*
%TD*%
%TO.C,D1*%
X131750000Y-132050000D03*
X128550000Y-132050000D03*
X128550000Y-136950000D03*
X131750000Y-136950000D03*
%TD*%
D12*
%TO.C,R6*%
X160862500Y-107350000D03*
X162687500Y-107350000D03*
%TD*%
D15*
%TO.C,R14*%
X190031250Y-126800000D03*
X188206250Y-126800000D03*
%TD*%
D28*
%TO.C,C38*%
X180400000Y-134862500D03*
X180400000Y-133137500D03*
%TD*%
D21*
%TO.C,H4*%
X193302944Y-138302944D03*
X196697056Y-141697056D03*
X196697056Y-138302944D03*
D22*
X195000000Y-140000000D03*
D21*
X195000000Y-137600000D03*
X195000000Y-142400000D03*
X192600000Y-140000000D03*
X197400000Y-140000000D03*
X193302944Y-141697056D03*
%TD*%
D45*
%TO.C,TP2*%
X126900000Y-47600000D03*
%TD*%
D56*
%TO.C,IC2*%
X175138000Y-83175000D03*
X175138000Y-82525000D03*
X175138000Y-81875000D03*
X175138000Y-81225000D03*
X175138000Y-80575000D03*
X175138000Y-79925000D03*
X175138000Y-79275000D03*
X175138000Y-78625000D03*
X169262000Y-78625000D03*
X169262000Y-79275000D03*
X169262000Y-79925000D03*
X169262000Y-80575000D03*
X169262000Y-81225000D03*
X169262000Y-81875000D03*
X169262000Y-82525000D03*
X169262000Y-83175000D03*
%TD*%
D13*
%TO.C,J9*%
X172225000Y-65450000D03*
D14*
X172225000Y-62950000D03*
X172225000Y-60450000D03*
%TD*%
D13*
%TO.C,J15*%
X154875000Y-56350000D03*
D14*
X154875000Y-53850000D03*
X154875000Y-51350000D03*
X154875000Y-48850000D03*
%TD*%
D12*
%TO.C,R4*%
X160862500Y-103850000D03*
X162687500Y-103850000D03*
%TD*%
D11*
%TO.C,C3*%
X155837500Y-98000000D03*
X157562500Y-98000000D03*
%TD*%
D10*
%TO.C,C18*%
X164600000Y-80037500D03*
X164600000Y-81762500D03*
%TD*%
D57*
%TO.C,C19*%
X150362500Y-133500000D03*
X153487500Y-133500000D03*
%TD*%
D58*
%TO.C,R15*%
X181400000Y-86012500D03*
X181400000Y-84187500D03*
%TD*%
D28*
%TO.C,C28*%
X139275000Y-57112500D03*
X139275000Y-55387500D03*
%TD*%
D13*
%TO.C,J13*%
X186500000Y-53900000D03*
D14*
X186500000Y-51400000D03*
X186500000Y-48900000D03*
%TD*%
D27*
%TO.C,D2*%
X144575000Y-63505000D03*
X146325000Y-63505000D03*
%TD*%
D15*
%TO.C,R10*%
X127212500Y-70300000D03*
X125387500Y-70300000D03*
%TD*%
%TO.C,R13*%
X190031250Y-125000000D03*
X188206250Y-125000000D03*
%TD*%
D21*
%TO.C,H2*%
X193302944Y-51697056D03*
X197400000Y-50000000D03*
X195000000Y-47600000D03*
X196697056Y-51697056D03*
X195000000Y-52400000D03*
X196697056Y-48302944D03*
D22*
X195000000Y-50000000D03*
D21*
X193302944Y-48302944D03*
X192600000Y-50000000D03*
%TD*%
D12*
%TO.C,R2*%
X144537500Y-61905000D03*
X146362500Y-61905000D03*
%TD*%
D11*
%TO.C,C31*%
X144875000Y-56505000D03*
X146600000Y-56505000D03*
%TD*%
D18*
%TO.C,J2*%
X159100000Y-93475000D03*
D19*
X159100000Y-90935000D03*
X161640000Y-93475000D03*
X161640000Y-90935000D03*
X164180000Y-93475000D03*
X164180000Y-90935000D03*
X166720000Y-93475000D03*
X166720000Y-90935000D03*
%TD*%
D10*
%TO.C,C9*%
X138700000Y-115137500D03*
X138700000Y-116862500D03*
%TD*%
D59*
%TO.C,R1*%
X134650000Y-135175000D03*
X134650000Y-137000000D03*
%TD*%
D13*
%TO.C,J10*%
X165025000Y-53900000D03*
D14*
X165025000Y-51400000D03*
X165025000Y-48900000D03*
%TD*%
D60*
%TO.C,IC1*%
X138462000Y-99500000D03*
X138462000Y-100000000D03*
X138462000Y-100500000D03*
X138462000Y-101000000D03*
X138462000Y-101500000D03*
X138462000Y-102000000D03*
X138462000Y-102500000D03*
X138462000Y-103000000D03*
X138462000Y-103500000D03*
X138462000Y-104000000D03*
X138462000Y-104500000D03*
X138462000Y-105000000D03*
X138462000Y-105500000D03*
X138462000Y-106000000D03*
X138462000Y-106500000D03*
X138462000Y-107000000D03*
X138462000Y-107500000D03*
X138462000Y-108000000D03*
X138462000Y-108500000D03*
X138462000Y-109000000D03*
X138462000Y-109500000D03*
X138462000Y-110000000D03*
X138462000Y-110500000D03*
X138462000Y-111000000D03*
X138462000Y-111500000D03*
D61*
X140200000Y-113238000D03*
X140700000Y-113238000D03*
X141200000Y-113238000D03*
X141700000Y-113238000D03*
X142200000Y-113238000D03*
X142700000Y-113238000D03*
X143200000Y-113238000D03*
X143700000Y-113238000D03*
X144200000Y-113238000D03*
X144700000Y-113238000D03*
X145200000Y-113238000D03*
X145700000Y-113238000D03*
X146200000Y-113238000D03*
X146700000Y-113238000D03*
X147200000Y-113238000D03*
X147700000Y-113238000D03*
X148200000Y-113238000D03*
X148700000Y-113238000D03*
X149200000Y-113238000D03*
X149700000Y-113238000D03*
X150200000Y-113238000D03*
X150700000Y-113238000D03*
X151200000Y-113238000D03*
X151700000Y-113238000D03*
X152200000Y-113238000D03*
D60*
X153938000Y-111500000D03*
X153938000Y-111000000D03*
X153938000Y-110500000D03*
X153938000Y-110000000D03*
X153938000Y-109500000D03*
X153938000Y-109000000D03*
X153938000Y-108500000D03*
X153938000Y-108000000D03*
X153938000Y-107500000D03*
X153938000Y-107000000D03*
X153938000Y-106500000D03*
X153938000Y-106000000D03*
X153938000Y-105500000D03*
X153938000Y-105000000D03*
X153938000Y-104500000D03*
X153938000Y-104000000D03*
X153938000Y-103500000D03*
X153938000Y-103000000D03*
X153938000Y-102500000D03*
X153938000Y-102000000D03*
X153938000Y-101500000D03*
X153938000Y-101000000D03*
X153938000Y-100500000D03*
X153938000Y-100000000D03*
X153938000Y-99500000D03*
D61*
X152200000Y-97762000D03*
X151700000Y-97762000D03*
X151200000Y-97762000D03*
X150700000Y-97762000D03*
X150200000Y-97762000D03*
X149700000Y-97762000D03*
X149200000Y-97762000D03*
X148700000Y-97762000D03*
X148200000Y-97762000D03*
X147700000Y-97762000D03*
X147200000Y-97762000D03*
X146700000Y-97762000D03*
X146200000Y-97762000D03*
X145700000Y-97762000D03*
X145200000Y-97762000D03*
X144700000Y-97762000D03*
X144200000Y-97762000D03*
X143700000Y-97762000D03*
X143200000Y-97762000D03*
X142700000Y-97762000D03*
X142200000Y-97762000D03*
X141700000Y-97762000D03*
X141200000Y-97762000D03*
X140700000Y-97762000D03*
X140200000Y-97762000D03*
%TD*%
D49*
%TO.C,SW1*%
X172900000Y-97900000D03*
X172900000Y-90100000D03*
%TD*%
D62*
%TO.C,FB2*%
X136200000Y-54775000D03*
X136200000Y-56525000D03*
%TD*%
D20*
%TO.C,IC3*%
X148820000Y-129400000D03*
X150090000Y-129400000D03*
X151360000Y-129400000D03*
X152630000Y-129400000D03*
X152630000Y-124000000D03*
X151360000Y-124000000D03*
X150090000Y-124000000D03*
X148820000Y-124000000D03*
%TD*%
D63*
%TO.C,C27*%
X133650000Y-61950000D03*
X133650000Y-67350000D03*
%TD*%
D64*
%TO.C,U3*%
X125450000Y-62980000D03*
D65*
X119150000Y-60700000D03*
D64*
X125450000Y-60700000D03*
X125450000Y-58420000D03*
%TD*%
D11*
%TO.C,C23*%
X122137500Y-120250000D03*
X123862500Y-120250000D03*
%TD*%
D66*
%TO.C,Q2*%
X114287500Y-54450000D03*
X114287500Y-52550000D03*
X112412500Y-53500000D03*
%TD*%
M02*
