%TF.GenerationSoftware,KiCad,Pcbnew,(6.0.0)*%
%TF.CreationDate,2022-01-23T23:40:48+07:00*%
%TF.ProjectId,NarwhelMainV2,4e617277-6865-46c4-9d61-696e56322e6b,rev?*%
%TF.SameCoordinates,Original*%
%TF.FileFunction,Legend,Bot*%
%TF.FilePolarity,Positive*%
%FSLAX46Y46*%
G04 Gerber Fmt 4.6, Leading zero omitted, Abs format (unit mm)*
G04 Created by KiCad (PCBNEW (6.0.0)) date 2022-01-23 23:40:48*
%MOMM*%
%LPD*%
G01*
G04 APERTURE LIST*
%ADD10C,0.150000*%
%ADD11C,0.120000*%
G04 APERTURE END LIST*
D10*
%TO.C,J14*%
X179009523Y-138552380D02*
X179009523Y-139266666D01*
X179057142Y-139409523D01*
X179152380Y-139504761D01*
X179295238Y-139552380D01*
X179390476Y-139552380D01*
X178009523Y-139552380D02*
X178580952Y-139552380D01*
X178295238Y-139552380D02*
X178295238Y-138552380D01*
X178390476Y-138695238D01*
X178485714Y-138790476D01*
X178580952Y-138838095D01*
X177152380Y-138885714D02*
X177152380Y-139552380D01*
X177390476Y-138504761D02*
X177628571Y-139219047D01*
X177009523Y-139219047D01*
D11*
X174390000Y-144740000D02*
X174390000Y-145000000D01*
X174390000Y-140690000D02*
X174390000Y-142460000D01*
X182010000Y-140690000D02*
X181630000Y-140690000D01*
X174390000Y-140690000D02*
X174770000Y-140690000D01*
X182010000Y-142460000D02*
X182010000Y-140690000D01*
X182010000Y-145000000D02*
X182010000Y-144740000D01*
%TO.C,JP3*%
X149600000Y-50950000D02*
X150200000Y-50950000D01*
X151400000Y-47400000D02*
X151400000Y-48000000D01*
X151100000Y-47700000D02*
X151400000Y-48000000D01*
X151100000Y-47700000D02*
X151400000Y-47400000D01*
X150200000Y-46850000D02*
X149600000Y-46850000D01*
X148900000Y-47500000D02*
X148900000Y-50300000D01*
X150900000Y-50300000D02*
X150900000Y-47500000D01*
X150200000Y-50950000D02*
G75*
G03*
X150900000Y-50250000I1J699999D01*
G01*
X149600000Y-46850000D02*
G75*
G03*
X148900000Y-47550000I-1J-699999D01*
G01*
X150900000Y-47550000D02*
G75*
G03*
X150200000Y-46850000I-699999J1D01*
G01*
X148900000Y-50250000D02*
G75*
G03*
X149600000Y-50950000I699999J-1D01*
G01*
%TD*%
M02*
