M48
; DRILL file {KiCad (6.0.0)} date Sun Jan 23 23:40:45 2022
; FORMAT={-:-/ absolute / inch / decimal}
; #@! TF.CreationDate,2022-01-23T23:40:45+07:00
; #@! TF.GenerationSoftware,Kicad,Pcbnew,(6.0.0)
; #@! TF.FileFunction,Plated,1,4,PTH
FMAT,2
INCH
; #@! TA.AperFunction,Plated,PTH,ViaDrill
T1C0.0118
; #@! TA.AperFunction,Plated,PTH,ComponentDrill
T2C0.0197
; #@! TA.AperFunction,Plated,PTH,ComponentDrill
T3C0.0315
; #@! TA.AperFunction,Plated,PTH,ComponentDrill
T4C0.0374
; #@! TA.AperFunction,Plated,PTH,ComponentDrill
T5C0.0394
; #@! TA.AperFunction,Plated,PTH,ComponentDrill
T6C0.0472
; #@! TA.AperFunction,Plated,PTH,ComponentDrill
T7C0.0512
; #@! TA.AperFunction,Plated,PTH,ComponentDrill
T8C0.0669
; #@! TA.AperFunction,Plated,PTH,ComponentDrill
T9C0.1260
%
G90
G05
T1
X4.4488Y-2.6378
X4.4488Y-2.6772
X4.4882Y-2.6378
X4.4882Y-2.6772
X4.502Y-2.2795
X4.502Y-2.3189
X4.502Y-2.3583
X4.502Y-2.3976
X4.502Y-2.437
X4.502Y-2.4764
X4.5492Y-5.4409
X4.5669Y-5.0984
X4.5807Y-2.2402
X4.6043Y-3.687
X4.6083Y-4.7343
X4.6083Y-5.1378
X4.6201Y-2.2402
X4.6457Y-3.7264
X4.6476Y-3.3406
X4.6506Y-4.7717
X4.6516Y-4.4035
X4.6594Y-2.2402
X4.6752Y-5.0591
X4.6988Y-2.2402
X4.7146Y-3.7264
X4.7165Y-5.0984
X4.7195Y-4.7697
X4.7382Y-2.2402
X4.7638Y-2.8189
X4.7776Y-2.2402
X4.7874Y-2.7953
X4.8051Y-3.7264
X4.8051Y-5.4409
X4.8081Y-4.7697
X4.8169Y-2.2402
X4.8228Y-5.0984
X4.8346Y-4.3071
X4.8563Y-2.2795
X4.8563Y-2.3189
X4.8563Y-2.437
X4.8563Y-2.4764
X4.8642Y-5.1358
X4.874Y-3.7264
X4.877Y-4.7717
X4.8898Y-3.8898
X4.9163Y-4.7343
X4.9173Y-3.687
X4.9311Y-4.2441
X4.9311Y-5.0591
X4.9314Y-4.2084
X4.9488Y-4.0315
X4.9724Y-5.0984
X4.9882Y-4.622
X5.0236Y-4.2087
X5.053Y-4.2436
X5.061Y-5.4409
X5.0644Y-3.7473
X5.0644Y-3.7788
X5.0787Y-5.0984
X5.1014Y-4.1063
X5.1014Y-4.2598
X5.1142Y-4.3346
X5.1201Y-5.1358
X5.126Y-4.0315
X5.1476Y-2.9232
X5.1496Y-4.2953
X5.1496Y-4.4449
X5.1772Y-4.4685
X5.1831Y-4.3327
X5.1845Y-4.4021
X5.187Y-2.9232
X5.187Y-5.0591
X5.1978Y-4.187
X5.2047Y-4.5866
X5.219Y-4.4345
X5.2264Y-2.9232
X5.2283Y-5.0984
X5.2337Y-3.7473
X5.2337Y-3.7788
X5.2343Y-4.063
X5.2657Y-2.9232
X5.2736Y-4.0256
X5.2756Y-1.9291
X5.2992Y-4.6181
X5.2992Y-4.7402
X5.3051Y-2.9232
X5.315Y-2.0945
X5.315Y-3.8583
X5.3425Y-4.0276
X5.3445Y-2.9232
X5.3524Y-4.126
X5.378Y-2.3346
X5.378Y-2.3661
X5.3799Y-4.2598
X5.3839Y-2.9232
X5.3858Y-3.2795
X5.4016Y-3.8583
X5.4055Y-2.3189
X5.4055Y-2.3504
X5.4055Y-2.3819
X5.4213Y-4.5335
X5.4213Y-4.6004
X5.4232Y-2.9232
X5.4252Y-3.7047
X5.4252Y-3.7756
X5.4331Y-2.3346
X5.4331Y-2.3661
X5.4606Y-4.4941
X5.4626Y-2.9232
X5.4843Y-3.2795
X5.4901Y-4.4685
X5.502Y-2.9232
X5.502Y-4.6004
X5.5039Y-3.7067
X5.5039Y-3.7756
X5.5197Y-4.0157
X5.5197Y-4.0945
X5.5197Y-4.2717
X5.5282Y-3.7956
X5.5315Y-2.8937
X5.5394Y-3.9075
X5.561Y-2.8642
X5.5709Y-2.1063
X5.5827Y-3.2795
X5.5906Y-2.8346
X5.5906Y-4.1732
X5.5984Y-2.5197
X5.6201Y-2.8051
X5.6299Y-2.3937
X5.6299Y-2.4331
X5.6299Y-2.5197
X5.6496Y-2.7756
X5.685Y-3.2795
X5.7264Y-2.1299
X5.7283Y-4.1614
X5.7283Y-4.1969
X5.7539Y-4.8839
X5.7539Y-4.9508
X5.7618Y-2.1299
X5.7677Y-4.0827
X5.7756Y-4.0512
X5.7835Y-3.2795
X5.7933Y-4.8425
X5.7933Y-4.9921
X5.7972Y-2.1299
X5.8327Y-2.1299
X5.8661Y-4.2323
X5.878Y-3.9606
X5.9085Y-4.6398
X5.9085Y-4.8307
X5.9252Y-3.9134
X5.9488Y-4.1339
X5.976Y-4.0546
X5.9764Y-4.0866
X5.9803Y-4.1693
X5.9803Y-4.252
X5.9843Y-4.5394
X5.9902Y-4.6634
X6.0039Y-4.2126
X6.0072Y-3.9382
X6.0433Y-4.4902
X6.0433Y-4.6437
X6.0827Y-4.6004
X6.0846Y-4.5335
X6.0955Y-3.8602
X6.1201Y-3.9252
X6.1368Y-3.8209
X6.1378Y-4.0354
X6.1614Y-3.622
X6.1929Y-4.0236
X6.2037Y-3.8209
X6.2431Y-3.8583
X6.2628Y-3.9035
X6.2972Y-4.6024
X6.2972Y-4.6339
X6.3701Y-4.5177
X6.3701Y-4.7146
X6.4094Y-4.5591
X6.4094Y-4.6772
X6.5118Y-3.1511
X6.5118Y-3.219
X6.5413Y-4.0539
X6.5413Y-4.1236
X6.5413Y-4.1906
X6.622Y-4.7559
X6.6575Y-3.3268
X6.6575Y-3.4528
X6.7224Y-3.1212
X6.749Y-3.8563
X6.8268Y-5.0744
X6.8504Y-4.9764
X6.8632Y-3.8563
X6.875Y-3.6083
X6.9222Y-3.6516
X6.9291Y-5.4173
X6.9291Y-5.4488
X6.9685Y-3.3465
X6.9685Y-5.4173
X6.9685Y-5.4488
X6.9695Y-3.6083
X7.0127Y-5.3661
X7.0177Y-3.3957
X7.0394Y-4.9213
X7.0444Y-5.3661
X7.0866Y-5.3937
X7.0866Y-5.4252
X7.1024Y-5.1969
X7.1024Y-5.3465
X7.126Y-5.3937
X7.126Y-5.4252
X7.1417Y-5.1732
X7.1496Y-3.248
X7.1496Y-4.9921
X7.1614Y-4.4606
X7.1614Y-4.5295
X7.1988Y-4.4213
X7.1988Y-4.5709
X7.2047Y-5.2283
X7.2362Y-5.4567
X7.2441Y-5.2283
X7.2441Y-5.3071
X7.2638Y-3.2972
X7.2638Y-3.4055
X7.2717Y-4.7894
X7.2835Y-5.2283
X7.2835Y-5.2677
X7.2835Y-5.3071
X7.2835Y-5.4173
X7.2913Y-5.0827
X7.3228Y-3.2972
X7.3228Y-3.4055
X7.3228Y-4.7677
X7.3425Y-5.122
X7.3819Y-3.2972
X7.3819Y-3.4055
X7.4409Y-3.2972
X7.4409Y-3.4055
X7.4803Y-5.0236
X7.5Y-3.2972
X7.5Y-3.4055
X7.5591Y-3.2972
X7.5689Y-3.4055
X7.6181Y-2.7362
X7.6181Y-3.2972
X7.6378Y-3.4055
X7.687Y-2.7461
X7.687Y-3.2776
X7.7067Y-3.4055
X7.7264Y-3.2382
X7.7362Y-2.7756
X7.7559Y-3.3563
X7.7756Y-2.8248
X7.7756Y-3.189
X7.7854Y-2.8937
X7.7854Y-2.9724
X7.7854Y-3.0413
X7.7854Y-3.1102
X7.7953Y-3.3169
X7.8346Y-3.2776
T2
X4.0394Y-1.9685
X4.0394Y-5.5118
X4.067Y-1.9017
X4.067Y-2.0353
X4.067Y-5.445
X4.067Y-5.5786
X4.1339Y-1.874
X4.1339Y-2.063
X4.1339Y-5.4173
X4.1339Y-5.6063
X4.2007Y-1.9017
X4.2007Y-2.0353
X4.2007Y-5.445
X4.2007Y-5.5786
X4.2283Y-1.9685
X4.2283Y-5.5118
X7.5827Y-1.9685
X7.5827Y-5.5118
X7.6104Y-1.9017
X7.6104Y-2.0353
X7.6104Y-5.445
X7.6104Y-5.5786
X7.6772Y-1.874
X7.6772Y-2.063
X7.6772Y-5.4173
X7.6772Y-5.6063
X7.744Y-1.9017
X7.744Y-2.0353
X7.744Y-5.445
X7.744Y-5.5786
X7.7717Y-1.9685
X7.7717Y-5.5118
T3
X7.2589Y-2.5018
X7.2589Y-2.5919
X7.2589Y-2.9518
X7.2589Y-3.0419
X7.4486Y-2.6715
X7.4486Y-2.7518
X7.4486Y-2.8321
X7.4486Y-2.9124
X7.5187Y-2.6313
X7.5187Y-2.7116
X7.5187Y-2.7919
X7.5187Y-2.8722
T4
X5.2402Y-3.1811
X5.3386Y-3.1811
X5.437Y-3.1811
X5.5354Y-3.1811
X5.6339Y-3.1811
X5.7323Y-3.1811
X6.0974Y-1.9232
X6.0974Y-2.0217
X6.0974Y-2.1201
X6.0974Y-2.2185
X6.497Y-1.9252
X6.497Y-2.0236
X6.497Y-2.122
X6.497Y-2.3799
X6.497Y-2.4783
X6.497Y-2.5768
X6.7805Y-1.9252
X6.7805Y-2.0236
X6.7805Y-2.122
X6.7805Y-2.3799
X6.7805Y-2.4783
X6.7805Y-2.5768
X7.061Y-1.9252
X7.061Y-2.0236
X7.061Y-2.122
X7.3425Y-1.9252
X7.3425Y-2.0236
X7.3425Y-2.122
T5
X4.374Y-1.8701
X4.9961Y-1.874
X5.1378Y-1.9591
X5.1378Y-2.0591
X5.1378Y-2.1591
X5.4754Y-4.9618
X5.4754Y-5.0618
X5.4754Y-5.1618
X5.4754Y-5.2618
X6.2638Y-3.5801
X6.2638Y-3.6801
X6.3638Y-3.5801
X6.3638Y-3.6801
X6.4638Y-3.5801
X6.4638Y-3.6801
X6.5638Y-3.5801
X6.5638Y-3.6801
X6.7215Y-4.3199
X6.7215Y-4.4199
X6.7215Y-4.5199
T6
X4.1447Y-3.0551
X4.1447Y-3.1929
X4.1447Y-3.3307
X4.1447Y-3.4685
X4.1447Y-3.6063
X4.1447Y-3.7441
X4.1447Y-3.8819
X4.1447Y-4.0197
X4.1447Y-4.1575
X4.1447Y-4.2953
X4.1447Y-4.4331
X4.1447Y-4.5709
X4.1447Y-4.7087
X4.1447Y-4.8465
X4.1447Y-4.9843
X4.1447Y-5.122
T7
X4.1494Y-2.3268
X4.1494Y-2.5236
T8
X7.4837Y-2.452
X7.4837Y-3.0917
T9
X4.1339Y-1.9685
X4.1339Y-5.5118
X7.6772Y-1.9685
X7.6772Y-5.5118
T0
M30
