%TF.GenerationSoftware,KiCad,Pcbnew,(6.0.0)*%
%TF.CreationDate,2022-01-23T23:40:48+07:00*%
%TF.ProjectId,NarwhelMainV2,4e617277-6865-46c4-9d61-696e56322e6b,rev?*%
%TF.SameCoordinates,Original*%
%TF.FileFunction,Soldermask,Bot*%
%TF.FilePolarity,Negative*%
%FSLAX46Y46*%
G04 Gerber Fmt 4.6, Leading zero omitted, Abs format (unit mm)*
G04 Created by KiCad (PCBNEW (6.0.0)) date 2022-01-23 23:40:48*
%MOMM*%
%LPD*%
G01*
G04 APERTURE LIST*
G04 Aperture macros list*
%AMRoundRect*
0 Rectangle with rounded corners*
0 $1 Rounding radius*
0 $2 $3 $4 $5 $6 $7 $8 $9 X,Y pos of 4 corners*
0 Add a 4 corners polygon primitive as box body*
4,1,4,$2,$3,$4,$5,$6,$7,$8,$9,$2,$3,0*
0 Add four circle primitives for the rounded corners*
1,1,$1+$1,$2,$3*
1,1,$1+$1,$4,$5*
1,1,$1+$1,$6,$7*
1,1,$1+$1,$8,$9*
0 Add four rect primitives between the rounded corners*
20,1,$1+$1,$2,$3,$4,$5,0*
20,1,$1+$1,$4,$5,$6,$7,0*
20,1,$1+$1,$6,$7,$8,$9,0*
20,1,$1+$1,$8,$9,$2,$3,0*%
%AMFreePoly0*
4,1,22,0.550000,-0.750000,0.000000,-0.750000,0.000000,-0.745033,-0.079941,-0.743568,-0.215256,-0.701293,-0.333266,-0.622738,-0.424486,-0.514219,-0.481581,-0.384460,-0.499164,-0.250000,-0.500000,-0.250000,-0.500000,0.250000,-0.499164,0.250000,-0.499963,0.256109,-0.478152,0.396186,-0.417904,0.524511,-0.324060,0.630769,-0.204165,0.706417,-0.067858,0.745374,0.000000,0.744959,0.000000,0.750000,
0.550000,0.750000,0.550000,-0.750000,0.550000,-0.750000,$1*%
%AMFreePoly1*
4,1,20,0.000000,0.744959,0.073905,0.744508,0.209726,0.703889,0.328688,0.626782,0.421226,0.519385,0.479903,0.390333,0.500000,0.250000,0.500000,-0.250000,0.499851,-0.262216,0.476331,-0.402017,0.414519,-0.529596,0.319384,-0.634700,0.198574,-0.708877,0.061801,-0.746166,0.000000,-0.745033,0.000000,-0.750000,-0.550000,-0.750000,-0.550000,0.750000,0.000000,0.750000,0.000000,0.744959,
0.000000,0.744959,$1*%
G04 Aperture macros list end*
%ADD10RoundRect,0.250000X0.725000X-0.600000X0.725000X0.600000X-0.725000X0.600000X-0.725000X-0.600000X0*%
%ADD11O,1.950000X1.700000*%
%ADD12R,1.700000X1.700000*%
%ADD13O,1.700000X1.700000*%
%ADD14C,0.800000*%
%ADD15C,6.400000*%
%ADD16R,2.400000X2.400000*%
%ADD17C,2.400000*%
%ADD18R,2.600000X2.600000*%
%ADD19C,2.600000*%
%ADD20C,3.250000*%
%ADD21R,1.300000X1.300000*%
%ADD22C,1.300000*%
%ADD23C,2.550000*%
%ADD24RoundRect,0.250000X0.600000X0.725000X-0.600000X0.725000X-0.600000X-0.725000X0.600000X-0.725000X0*%
%ADD25O,1.700000X1.950000*%
%ADD26C,2.000000*%
%ADD27R,0.450000X1.380000*%
%ADD28R,1.425000X1.550000*%
%ADD29R,1.650000X1.300000*%
%ADD30R,1.000000X1.900000*%
%ADD31R,1.800000X1.900000*%
%ADD32FreePoly0,270.000000*%
%ADD33R,1.500000X1.000000*%
%ADD34FreePoly1,270.000000*%
G04 APERTURE END LIST*
D10*
%TO.C,J8*%
X165025000Y-65450000D03*
D11*
X165025000Y-62950000D03*
X165025000Y-60450000D03*
%TD*%
D12*
%TO.C,J7*%
X130500000Y-49760000D03*
D13*
X130500000Y-52300000D03*
X130500000Y-54840000D03*
%TD*%
D14*
%TO.C,H1*%
X103302944Y-48302944D03*
X106697056Y-48302944D03*
D15*
X105000000Y-50000000D03*
D14*
X106697056Y-51697056D03*
X102600000Y-50000000D03*
X105000000Y-47600000D03*
X105000000Y-52400000D03*
X107400000Y-50000000D03*
X103302944Y-51697056D03*
%TD*%
D10*
%TO.C,J12*%
X179350000Y-53900000D03*
D11*
X179350000Y-51400000D03*
X179350000Y-48900000D03*
%TD*%
D16*
%TO.C,J4*%
X105275000Y-77600000D03*
D17*
X105275000Y-81100000D03*
X105275000Y-84600000D03*
X105275000Y-88100000D03*
X105275000Y-91600000D03*
X105275000Y-95100000D03*
X105275000Y-98600000D03*
X105275000Y-102100000D03*
X105275000Y-105600000D03*
X105275000Y-109100000D03*
X105275000Y-112600000D03*
X105275000Y-116100000D03*
X105275000Y-119600000D03*
X105275000Y-123100000D03*
X105275000Y-126600000D03*
X105275000Y-130100000D03*
%TD*%
D18*
%TO.C,J6*%
X105395000Y-59100000D03*
D19*
X105395000Y-64100000D03*
%TD*%
D12*
%TO.C,J5*%
X139075000Y-133650000D03*
D13*
X139075000Y-131110000D03*
X139075000Y-128570000D03*
X139075000Y-126030000D03*
%TD*%
D14*
%TO.C,H3*%
X103302944Y-141697056D03*
X103302944Y-138302944D03*
X107400000Y-140000000D03*
X105000000Y-137600000D03*
X105000000Y-142400000D03*
X106697056Y-141697056D03*
X102600000Y-140000000D03*
X106697056Y-138302944D03*
D15*
X105000000Y-140000000D03*
%TD*%
D10*
%TO.C,J11*%
X172225000Y-53900000D03*
D11*
X172225000Y-51400000D03*
X172225000Y-48900000D03*
%TD*%
D20*
%TO.C,J3*%
X193515000Y-76755000D03*
X193515000Y-64055000D03*
D21*
X190975000Y-66835000D03*
D22*
X189195000Y-67855000D03*
X190975000Y-68875000D03*
X189195000Y-69895000D03*
X190975000Y-70915000D03*
X189195000Y-71935000D03*
X190975000Y-72955000D03*
X189195000Y-73975000D03*
X184375000Y-63545000D03*
X184375000Y-65835000D03*
X184375000Y-74975000D03*
X184375000Y-77265000D03*
D23*
X190085000Y-62280000D03*
X190085000Y-78530000D03*
%TD*%
D12*
%TO.C,J1*%
X170725000Y-109725000D03*
D13*
X170725000Y-112265000D03*
X170725000Y-114805000D03*
%TD*%
D24*
%TO.C,J16*%
X145600000Y-80800000D03*
D25*
X143100000Y-80800000D03*
X140600000Y-80800000D03*
X138100000Y-80800000D03*
X135600000Y-80800000D03*
X133100000Y-80800000D03*
%TD*%
D26*
%TO.C,TP1*%
X111100000Y-47500000D03*
%TD*%
D14*
%TO.C,H4*%
X193302944Y-138302944D03*
X196697056Y-141697056D03*
X196697056Y-138302944D03*
D15*
X195000000Y-140000000D03*
D14*
X195000000Y-137600000D03*
X195000000Y-142400000D03*
X192600000Y-140000000D03*
X197400000Y-140000000D03*
X193302944Y-141697056D03*
%TD*%
D26*
%TO.C,TP2*%
X126900000Y-47600000D03*
%TD*%
D10*
%TO.C,J9*%
X172225000Y-65450000D03*
D11*
X172225000Y-62950000D03*
X172225000Y-60450000D03*
%TD*%
D10*
%TO.C,J15*%
X154875000Y-56350000D03*
D11*
X154875000Y-53850000D03*
X154875000Y-51350000D03*
X154875000Y-48850000D03*
%TD*%
D10*
%TO.C,J13*%
X186500000Y-53900000D03*
D11*
X186500000Y-51400000D03*
X186500000Y-48900000D03*
%TD*%
D14*
%TO.C,H2*%
X193302944Y-51697056D03*
X197400000Y-50000000D03*
X195000000Y-47600000D03*
X196697056Y-51697056D03*
X195000000Y-52400000D03*
X196697056Y-48302944D03*
D15*
X195000000Y-50000000D03*
D14*
X193302944Y-48302944D03*
X192600000Y-50000000D03*
%TD*%
D12*
%TO.C,J2*%
X159100000Y-93475000D03*
D13*
X159100000Y-90935000D03*
X161640000Y-93475000D03*
X161640000Y-90935000D03*
X164180000Y-93475000D03*
X164180000Y-90935000D03*
X166720000Y-93475000D03*
X166720000Y-90935000D03*
%TD*%
D10*
%TO.C,J10*%
X165025000Y-53900000D03*
D11*
X165025000Y-51400000D03*
X165025000Y-48900000D03*
%TD*%
D27*
%TO.C,J14*%
X179500000Y-140940000D03*
X178850000Y-140940000D03*
X178200000Y-140940000D03*
X177550000Y-140940000D03*
X176900000Y-140940000D03*
D28*
X180687500Y-141025000D03*
D29*
X174825000Y-143600000D03*
D30*
X176650000Y-143600000D03*
D31*
X179350000Y-143600000D03*
D29*
X181575000Y-143600000D03*
D28*
X175712500Y-141025000D03*
%TD*%
D32*
%TO.C,JP3*%
X149900000Y-47600000D03*
D33*
X149900000Y-48900000D03*
D34*
X149900000Y-50200000D03*
%TD*%
G36*
X142506163Y-58500607D02*
G01*
X142682737Y-58517998D01*
X142706963Y-58522816D01*
X142870809Y-58572518D01*
X142893629Y-58581971D01*
X143044628Y-58662681D01*
X143065166Y-58676404D01*
X143197515Y-58785020D01*
X143214980Y-58802485D01*
X143323596Y-58934834D01*
X143337319Y-58955372D01*
X143418029Y-59106371D01*
X143427482Y-59129191D01*
X143477184Y-59293037D01*
X143482002Y-59317263D01*
X143499393Y-59493837D01*
X143500000Y-59506187D01*
X143500000Y-64243813D01*
X143499393Y-64256163D01*
X143482002Y-64432737D01*
X143477184Y-64456963D01*
X143427482Y-64620809D01*
X143418029Y-64643629D01*
X143337319Y-64794628D01*
X143323596Y-64815166D01*
X143214980Y-64947515D01*
X143197515Y-64964980D01*
X143065166Y-65073596D01*
X143044628Y-65087319D01*
X142893629Y-65168029D01*
X142870809Y-65177482D01*
X142706963Y-65227184D01*
X142682737Y-65232002D01*
X142506163Y-65249393D01*
X142493813Y-65250000D01*
X140506187Y-65250000D01*
X140493837Y-65249393D01*
X140317263Y-65232002D01*
X140293037Y-65227184D01*
X140129191Y-65177482D01*
X140106371Y-65168029D01*
X139955372Y-65087319D01*
X139934834Y-65073596D01*
X139802485Y-64964980D01*
X139785020Y-64947515D01*
X139676404Y-64815166D01*
X139662681Y-64794628D01*
X139581971Y-64643629D01*
X139572518Y-64620809D01*
X139522816Y-64456963D01*
X139517998Y-64432737D01*
X139500607Y-64256163D01*
X139500000Y-64243813D01*
X139500000Y-59506187D01*
X139500607Y-59493837D01*
X139517998Y-59317263D01*
X139522816Y-59293037D01*
X139572518Y-59129191D01*
X139581971Y-59106371D01*
X139662681Y-58955372D01*
X139676404Y-58934834D01*
X139785020Y-58802485D01*
X139802485Y-58785020D01*
X139934834Y-58676404D01*
X139955372Y-58662681D01*
X140106371Y-58581971D01*
X140129191Y-58572518D01*
X140293037Y-58522816D01*
X140317263Y-58517998D01*
X140493837Y-58500607D01*
X140506187Y-58500000D01*
X142493813Y-58500000D01*
X142506163Y-58500607D01*
G37*
G36*
X128242121Y-50520002D02*
G01*
X128288614Y-50573658D01*
X128300000Y-50626000D01*
X128300000Y-60648876D01*
X128279998Y-60716997D01*
X128264377Y-60736671D01*
X124937113Y-64161795D01*
X124875301Y-64196719D01*
X124846736Y-64200000D01*
X111626000Y-64200000D01*
X111557879Y-64179998D01*
X111511386Y-64126342D01*
X111500000Y-64074000D01*
X111500000Y-52052190D01*
X111520002Y-51984069D01*
X111536905Y-51963095D01*
X112963095Y-50536905D01*
X113025407Y-50502879D01*
X113052190Y-50500000D01*
X128174000Y-50500000D01*
X128242121Y-50520002D01*
G37*
M02*
