M48
; DRILL file {KiCad (6.0.0)} date Sun Jan 23 22:47:36 2022
; FORMAT={-:-/ absolute / inch / decimal}
; #@! TF.CreationDate,2022-01-23T22:47:36+07:00
; #@! TF.GenerationSoftware,Kicad,Pcbnew,(6.0.0)
; #@! TF.FileFunction,Plated,1,4,PTH
FMAT,2
INCH
; #@! TA.AperFunction,Plated,PTH,ViaDrill
T1C0.0118
; #@! TA.AperFunction,Plated,PTH,ViaDrill
T2C0.0157
; #@! TA.AperFunction,Plated,PTH,ComponentDrill
T3C0.0197
; #@! TA.AperFunction,Plated,PTH,ComponentDrill
T4C0.0315
; #@! TA.AperFunction,Plated,PTH,ComponentDrill
T5C0.0374
; #@! TA.AperFunction,Plated,PTH,ComponentDrill
T6C0.0669
; #@! TA.AperFunction,Plated,PTH,ComponentDrill
T7C0.1260
%
G90
G05
T1
X5.5472Y-5.0748
X5.8031Y-4.6181
X5.8228Y-5.2165
X5.9921Y-4.4252
X6.0Y-4.5827
X6.1417Y-5.2165
X6.2638Y-4.6142
X6.2638Y-4.6654
X6.2795Y-4.8819
X6.2992Y-4.8622
X6.2992Y-4.9016
X6.311Y-4.7402
X6.3189Y-4.8819
X6.3858Y-4.6614
X6.3858Y-4.7244
X6.4203Y-4.5876
X6.4213Y-4.4724
X6.4528Y-4.6629
X6.4528Y-4.878
X6.4961Y-4.5472
X6.5118Y-4.622
X6.6181Y-4.6535
X6.6181Y-5.2165
X6.622Y-4.5354
X6.622Y-4.8976
X6.6457Y-4.7717
X6.7677Y-4.8465
X6.7677Y-4.9921
X6.815Y-4.5
X6.8898Y-4.5276
X6.9252Y-5.0748
X6.9291Y-4.5669
X7.0945Y-4.7205
T2
X6.4134Y-4.1378
X6.4134Y-4.185
X6.4134Y-4.2323
X6.4567Y-4.2323
X6.4961Y-3.9764
X6.4961Y-4.0354
X6.4961Y-4.2323
X6.5551Y-3.9764
X6.5551Y-4.0354
X6.6339Y-3.9764
X6.6339Y-4.0354
X6.6929Y-3.9764
X6.6929Y-4.0354
X6.7835Y-4.0335
X6.7992Y-4.2933
X6.8445Y-4.25
T3
X5.4173Y-3.937
X5.4173Y-5.315
X5.445Y-3.8702
X5.445Y-4.0038
X5.445Y-5.2481
X5.445Y-5.3818
X5.5118Y-3.8425
X5.5118Y-4.0315
X5.5118Y-5.2205
X5.5118Y-5.4094
X5.5786Y-3.8702
X5.5786Y-4.0038
X5.5786Y-5.2481
X5.5786Y-5.3818
X5.6063Y-3.937
X5.6063Y-5.315
X6.9921Y-3.937
X6.9921Y-5.315
X7.0198Y-3.8702
X7.0198Y-4.0038
X7.0198Y-5.2481
X7.0198Y-5.3818
X7.0866Y-3.8425
X7.0866Y-4.0315
X7.0866Y-5.2205
X7.0866Y-5.4094
X7.1534Y-3.8702
X7.1534Y-4.0038
X7.1534Y-5.2481
X7.1534Y-5.3818
X7.1811Y-3.937
X7.1811Y-5.315
T4
X5.6388Y-4.4856
X5.6388Y-4.5659
X5.6388Y-4.6463
X5.6388Y-4.7266
X5.7089Y-4.5258
X5.7089Y-4.6061
X5.7089Y-4.6864
X5.7089Y-4.7667
X5.8986Y-4.3561
X5.8986Y-4.4463
X5.8986Y-4.8061
X5.8986Y-4.8963
X7.0079Y-4.3563
X7.0079Y-4.4465
X7.0079Y-4.8063
X7.0079Y-4.8965
X7.1976Y-4.4858
X7.1976Y-4.5661
X7.1976Y-4.6465
X7.1976Y-4.7268
X7.2677Y-4.526
X7.2677Y-4.6063
X7.2677Y-4.6866
X7.2677Y-4.7669
T5
X5.9843Y-3.9626
X6.0827Y-3.9626
X6.1811Y-3.9626
T6
X5.6738Y-4.3063
X5.6738Y-4.9461
X7.2327Y-4.3065
X7.2327Y-4.9463
T7
X5.5118Y-3.937
X5.5118Y-5.315
X7.0866Y-3.937
X7.0866Y-5.315
T0
M30
