%TF.GenerationSoftware,KiCad,Pcbnew,(6.0.0)*%
%TF.CreationDate,2022-01-23T22:47:39+07:00*%
%TF.ProjectId,NarWhelEncoderV2,4e617257-6865-46c4-956e-636f64657256,rev?*%
%TF.SameCoordinates,Original*%
%TF.FileFunction,Copper,L2,Inr*%
%TF.FilePolarity,Positive*%
%FSLAX46Y46*%
G04 Gerber Fmt 4.6, Leading zero omitted, Abs format (unit mm)*
G04 Created by KiCad (PCBNEW (6.0.0)) date 2022-01-23 22:47:39*
%MOMM*%
%LPD*%
G01*
G04 APERTURE LIST*
G04 Aperture macros list*
%AMRoundRect*
0 Rectangle with rounded corners*
0 $1 Rounding radius*
0 $2 $3 $4 $5 $6 $7 $8 $9 X,Y pos of 4 corners*
0 Add a 4 corners polygon primitive as box body*
4,1,4,$2,$3,$4,$5,$6,$7,$8,$9,$2,$3,0*
0 Add four circle primitives for the rounded corners*
1,1,$1+$1,$2,$3*
1,1,$1+$1,$4,$5*
1,1,$1+$1,$6,$7*
1,1,$1+$1,$8,$9*
0 Add four rect primitives between the rounded corners*
20,1,$1+$1,$2,$3,$4,$5,0*
20,1,$1+$1,$4,$5,$6,$7,0*
20,1,$1+$1,$6,$7,$8,$9,0*
20,1,$1+$1,$8,$9,$2,$3,0*%
G04 Aperture macros list end*
%TA.AperFunction,ComponentPad*%
%ADD10C,0.800000*%
%TD*%
%TA.AperFunction,ComponentPad*%
%ADD11C,6.400000*%
%TD*%
%TA.AperFunction,ComponentPad*%
%ADD12R,1.300000X1.300000*%
%TD*%
%TA.AperFunction,ComponentPad*%
%ADD13C,1.300000*%
%TD*%
%TA.AperFunction,ComponentPad*%
%ADD14C,2.550000*%
%TD*%
%TA.AperFunction,ComponentPad*%
%ADD15RoundRect,0.250000X0.600000X0.725000X-0.600000X0.725000X-0.600000X-0.725000X0.600000X-0.725000X0*%
%TD*%
%TA.AperFunction,ComponentPad*%
%ADD16O,1.700000X1.950000*%
%TD*%
%TA.AperFunction,ViaPad*%
%ADD17C,0.600000*%
%TD*%
%TA.AperFunction,ViaPad*%
%ADD18C,0.800000*%
%TD*%
G04 APERTURE END LIST*
D10*
%TO.N,GND*%
%TO.C,H2*%
X138302944Y-136697056D03*
X141697056Y-136697056D03*
X137600000Y-135000000D03*
X140000000Y-137400000D03*
X138302944Y-133302944D03*
D11*
X140000000Y-135000000D03*
D10*
X142400000Y-135000000D03*
X141697056Y-133302944D03*
X140000000Y-132600000D03*
%TD*%
%TO.N,GND*%
%TO.C,H1*%
X178302944Y-136697056D03*
D11*
X180000000Y-135000000D03*
D10*
X181697056Y-136697056D03*
X177600000Y-135000000D03*
X180000000Y-137400000D03*
X181697056Y-133302944D03*
X182400000Y-135000000D03*
X180000000Y-132600000D03*
X178302944Y-133302944D03*
%TD*%
D11*
%TO.N,GND*%
%TO.C,H3*%
X140000000Y-100000000D03*
D10*
X142400000Y-100000000D03*
X141697056Y-101697056D03*
X140000000Y-97600000D03*
X140000000Y-102400000D03*
X137600000Y-100000000D03*
X138302944Y-101697056D03*
X138302944Y-98302944D03*
X141697056Y-98302944D03*
%TD*%
%TO.N,GND*%
%TO.C,H4*%
X178302944Y-101697056D03*
X180000000Y-97600000D03*
X181697056Y-101697056D03*
X177600000Y-100000000D03*
X181697056Y-98302944D03*
X182400000Y-100000000D03*
X180000000Y-102400000D03*
X178302944Y-98302944D03*
D11*
X180000000Y-100000000D03*
%TD*%
D12*
%TO.N,/MISO_D-*%
%TO.C,J3*%
X184600000Y-121080000D03*
D13*
%TO.N,/MISO_D+*%
X182820000Y-120060000D03*
%TO.N,/MOSI_D-*%
X184600000Y-119040000D03*
%TO.N,/CLK_D+*%
X182820000Y-118020000D03*
%TO.N,/CLK_D-*%
X184600000Y-117000000D03*
%TO.N,/MOSI_D+*%
X182820000Y-115980000D03*
%TO.N,GND*%
X184600000Y-114960000D03*
%TO.N,Net-(J3-Pad11)*%
X182820000Y-113940000D03*
%TO.N,unconnected-(J3-Pad9)*%
X178000000Y-124370000D03*
%TO.N,unconnected-(J3-Pad10)*%
X178000000Y-122080000D03*
%TO.N,Net-(J3-Pad11)*%
X178000000Y-112940000D03*
%TO.N,Net-(J3-Pad12)*%
X178000000Y-110650000D03*
D14*
%TO.N,GND*%
X183710000Y-125635000D03*
X183710000Y-109385000D03*
%TD*%
D12*
%TO.N,/MISO_D-*%
%TO.C,J2*%
X143225000Y-113935000D03*
D13*
%TO.N,/MISO_D+*%
X145005000Y-114955000D03*
%TO.N,/MOSI_D-*%
X143225000Y-115975000D03*
%TO.N,/CLK_D+*%
X145005000Y-116995000D03*
%TO.N,/CLK_D-*%
X143225000Y-118015000D03*
%TO.N,/MOSI_D+*%
X145005000Y-119035000D03*
%TO.N,/Connect_Pin*%
X143225000Y-120055000D03*
X145005000Y-121075000D03*
%TO.N,unconnected-(J2-Pad9)*%
X149825000Y-110645000D03*
%TO.N,unconnected-(J2-Pad10)*%
X149825000Y-112935000D03*
%TO.N,GND*%
X149825000Y-122075000D03*
%TO.N,Net-(J2-Pad12)*%
X149825000Y-124365000D03*
D14*
%TO.N,GND*%
X144115000Y-109380000D03*
X144115000Y-125630000D03*
%TD*%
D15*
%TO.N,/Vin*%
%TO.C,J1*%
X157000000Y-100650000D03*
D16*
%TO.N,/CS*%
X154500000Y-100650000D03*
%TO.N,GND*%
X152000000Y-100650000D03*
%TD*%
D17*
%TO.N,GND*%
X152400000Y-116400000D03*
X147400000Y-117300000D03*
X152200000Y-112400000D03*
%TO.N,+3V3*%
X162200000Y-120000000D03*
%TO.N,GND*%
X159100000Y-117200000D03*
D18*
X172300000Y-102450000D03*
X172700000Y-109050000D03*
D17*
X168100000Y-118200000D03*
X175000000Y-115000000D03*
D18*
X173850000Y-107950000D03*
X164000000Y-107500000D03*
D17*
X140900000Y-128900000D03*
D18*
X162900000Y-107500000D03*
D17*
X180200000Y-119900000D03*
X160300000Y-120400000D03*
X171900000Y-126800000D03*
X176000000Y-116000000D03*
X163900000Y-118437500D03*
X163900000Y-123900000D03*
D18*
X165000000Y-107500000D03*
D17*
X147900000Y-132500000D03*
D18*
X162900000Y-106300000D03*
D17*
X159100000Y-118500000D03*
X168100000Y-132500000D03*
D18*
X162900000Y-105100000D03*
D17*
X156000000Y-132500000D03*
X175900000Y-128900000D03*
X171900000Y-123100000D03*
%TO.N,+3V3*%
X160000000Y-123500000D03*
X160000000Y-124500000D03*
X160500000Y-124000000D03*
X162200000Y-118400000D03*
X159500000Y-124000000D03*
X173100000Y-114300000D03*
D18*
%TO.N,Net-(FB1-Pad1)*%
X170000000Y-101000000D03*
X165000000Y-101000000D03*
X165000000Y-102500000D03*
X168500000Y-101000000D03*
X168500000Y-102500000D03*
X166500000Y-102500000D03*
X170000000Y-102500000D03*
X166500000Y-101000000D03*
D17*
%TO.N,/CS*%
X163100000Y-113600000D03*
X165000000Y-115500000D03*
%TO.N,/CLK*%
X163075000Y-116525000D03*
%TO.N,/MISO*%
X165400000Y-117400000D03*
%TO.N,/MOSI*%
X168200000Y-115200000D03*
%TO.N,/B*%
X168800000Y-121200000D03*
%TO.N,/A*%
X168200000Y-124400000D03*
%TD*%
%TA.AperFunction,Conductor*%
%TO.N,GND*%
G36*
X179987153Y-95256421D02*
G01*
X180000000Y-95258976D01*
X180012169Y-95256556D01*
X180022654Y-95256556D01*
X180035693Y-95255559D01*
X180358276Y-95269643D01*
X180408146Y-95271820D01*
X180419094Y-95272778D01*
X180818691Y-95325385D01*
X180829495Y-95327291D01*
X181222990Y-95414527D01*
X181233600Y-95417370D01*
X181617985Y-95538566D01*
X181628299Y-95542319D01*
X182000679Y-95696564D01*
X182010623Y-95701202D01*
X182297060Y-95850311D01*
X182368117Y-95887301D01*
X182377637Y-95892797D01*
X182717557Y-96109350D01*
X182726561Y-96115655D01*
X183046304Y-96361003D01*
X183054724Y-96368068D01*
X183248548Y-96545674D01*
X183351873Y-96640354D01*
X183359642Y-96648123D01*
X183379180Y-96669445D01*
X183631932Y-96945276D01*
X183638997Y-96953696D01*
X183884345Y-97273439D01*
X183890650Y-97282443D01*
X184107203Y-97622363D01*
X184112698Y-97631882D01*
X184255419Y-97906045D01*
X184298794Y-97989368D01*
X184303436Y-97999321D01*
X184457678Y-98371694D01*
X184461437Y-98382023D01*
X184582630Y-98766399D01*
X184585473Y-98777010D01*
X184672709Y-99170505D01*
X184674615Y-99181309D01*
X184714374Y-99483311D01*
X184727222Y-99580905D01*
X184728180Y-99591854D01*
X184729484Y-99621719D01*
X184744441Y-99964307D01*
X184743444Y-99977345D01*
X184743444Y-99987831D01*
X184741024Y-100000000D01*
X184741587Y-100002830D01*
X184746432Y-100107619D01*
X184759280Y-100385524D01*
X184759622Y-100392929D01*
X184760022Y-100395796D01*
X184806755Y-100730808D01*
X184813966Y-100782505D01*
X184828329Y-100843571D01*
X184900530Y-101150553D01*
X184904023Y-101165406D01*
X185029026Y-101538364D01*
X185050967Y-101588055D01*
X185182313Y-101885524D01*
X185187908Y-101898196D01*
X185189315Y-101900723D01*
X185189320Y-101900732D01*
X185377898Y-102239295D01*
X185379313Y-102241835D01*
X185601609Y-102566346D01*
X185681965Y-102663115D01*
X185815394Y-102823798D01*
X185852898Y-102868963D01*
X186131037Y-103147102D01*
X186133270Y-103148956D01*
X186133273Y-103148959D01*
X186141242Y-103155576D01*
X186433654Y-103398391D01*
X186758165Y-103620687D01*
X186760701Y-103622100D01*
X186760705Y-103622102D01*
X187099268Y-103810680D01*
X187099277Y-103810685D01*
X187101804Y-103812092D01*
X187104455Y-103813263D01*
X187104464Y-103813267D01*
X187310007Y-103904023D01*
X187461636Y-103970974D01*
X187834594Y-104095977D01*
X187837427Y-104096643D01*
X187837433Y-104096645D01*
X188007827Y-104136721D01*
X188217495Y-104186034D01*
X188220380Y-104186436D01*
X188220383Y-104186437D01*
X188478431Y-104222433D01*
X188607071Y-104240378D01*
X188609955Y-104240511D01*
X188609962Y-104240512D01*
X188769321Y-104247879D01*
X188997170Y-104258413D01*
X189000000Y-104258976D01*
X189012170Y-104256556D01*
X189024582Y-104256556D01*
X189024582Y-104256560D01*
X189035584Y-104255749D01*
X189246485Y-104266109D01*
X189360994Y-104271735D01*
X189373290Y-104272945D01*
X189724684Y-104325070D01*
X189736805Y-104327480D01*
X189839577Y-104353223D01*
X190081400Y-104413798D01*
X190093232Y-104417387D01*
X190427704Y-104537062D01*
X190439128Y-104541794D01*
X190760258Y-104693677D01*
X190771163Y-104699506D01*
X191075860Y-104882135D01*
X191086141Y-104889005D01*
X191371465Y-105100616D01*
X191381023Y-105108460D01*
X191644235Y-105347021D01*
X191652979Y-105355765D01*
X191891540Y-105618977D01*
X191899384Y-105628535D01*
X192110995Y-105913859D01*
X192117865Y-105924140D01*
X192300494Y-106228837D01*
X192306323Y-106239742D01*
X192458206Y-106560872D01*
X192462938Y-106572296D01*
X192582613Y-106906768D01*
X192586202Y-106918600D01*
X192661073Y-107217495D01*
X192672519Y-107263191D01*
X192674930Y-107275316D01*
X192724142Y-107607071D01*
X192727054Y-107626705D01*
X192728266Y-107639011D01*
X192744251Y-107964416D01*
X192743440Y-107975419D01*
X192743444Y-107975419D01*
X192743444Y-107987830D01*
X192741024Y-108000000D01*
X192743579Y-108012844D01*
X192746000Y-108037425D01*
X192746000Y-126962575D01*
X192743579Y-126987153D01*
X192741024Y-127000000D01*
X192743444Y-127012170D01*
X192743444Y-127024581D01*
X192743440Y-127024581D01*
X192744251Y-127035584D01*
X192728266Y-127360989D01*
X192727055Y-127373290D01*
X192674931Y-127724681D01*
X192672520Y-127736805D01*
X192646777Y-127839577D01*
X192586202Y-128081400D01*
X192582613Y-128093232D01*
X192462938Y-128427704D01*
X192458206Y-128439128D01*
X192306323Y-128760258D01*
X192300494Y-128771163D01*
X192117865Y-129075860D01*
X192110995Y-129086141D01*
X191899384Y-129371465D01*
X191891540Y-129381023D01*
X191652979Y-129644235D01*
X191644235Y-129652979D01*
X191381023Y-129891540D01*
X191371465Y-129899384D01*
X191086141Y-130110995D01*
X191075860Y-130117865D01*
X190771163Y-130300494D01*
X190760258Y-130306323D01*
X190439128Y-130458206D01*
X190427704Y-130462938D01*
X190093232Y-130582613D01*
X190081400Y-130586202D01*
X189839577Y-130646777D01*
X189736805Y-130672520D01*
X189724684Y-130674930D01*
X189373290Y-130727055D01*
X189360994Y-130728265D01*
X189246485Y-130733891D01*
X189035584Y-130744251D01*
X189024582Y-130743440D01*
X189024582Y-130743444D01*
X189012170Y-130743444D01*
X189000000Y-130741024D01*
X188997170Y-130741587D01*
X188861268Y-130747870D01*
X188609962Y-130759488D01*
X188609955Y-130759489D01*
X188607071Y-130759622D01*
X188604203Y-130760022D01*
X188604204Y-130760022D01*
X188220383Y-130813563D01*
X188220380Y-130813564D01*
X188217495Y-130813966D01*
X188007827Y-130863279D01*
X187837433Y-130903355D01*
X187837427Y-130903357D01*
X187834594Y-130904023D01*
X187461636Y-131029026D01*
X187458966Y-131030205D01*
X187104464Y-131186733D01*
X187104455Y-131186737D01*
X187101804Y-131187908D01*
X187099277Y-131189315D01*
X187099268Y-131189320D01*
X186760705Y-131377898D01*
X186758165Y-131379313D01*
X186433654Y-131601609D01*
X186131037Y-131852898D01*
X185852898Y-132131037D01*
X185601609Y-132433654D01*
X185379313Y-132758165D01*
X185377900Y-132760701D01*
X185377898Y-132760705D01*
X185189320Y-133099268D01*
X185189315Y-133099277D01*
X185187908Y-133101804D01*
X185029026Y-133461636D01*
X184904023Y-133834594D01*
X184903357Y-133837427D01*
X184903355Y-133837433D01*
X184890162Y-133893526D01*
X184813966Y-134217495D01*
X184813564Y-134220380D01*
X184813563Y-134220383D01*
X184777567Y-134478431D01*
X184759622Y-134607071D01*
X184759489Y-134609955D01*
X184759488Y-134609962D01*
X184742384Y-134979938D01*
X184741587Y-134997169D01*
X184741024Y-135000000D01*
X184743444Y-135012168D01*
X184743444Y-135022654D01*
X184744441Y-135035693D01*
X184728180Y-135408145D01*
X184727222Y-135419094D01*
X184681947Y-135763000D01*
X184674616Y-135818683D01*
X184672709Y-135829495D01*
X184613843Y-136095023D01*
X184585475Y-136222984D01*
X184582630Y-136233600D01*
X184506261Y-136475814D01*
X184461437Y-136617977D01*
X184457681Y-136628299D01*
X184424904Y-136707430D01*
X184303440Y-137000670D01*
X184298798Y-137010623D01*
X184112699Y-137368117D01*
X184107203Y-137377637D01*
X183890650Y-137717557D01*
X183884345Y-137726561D01*
X183638997Y-138046304D01*
X183631932Y-138054724D01*
X183359646Y-138351873D01*
X183351873Y-138359646D01*
X183054724Y-138631932D01*
X183046304Y-138638997D01*
X182726561Y-138884345D01*
X182717557Y-138890650D01*
X182377637Y-139107203D01*
X182368118Y-139112698D01*
X182010623Y-139298798D01*
X182000679Y-139303436D01*
X181628299Y-139457681D01*
X181617985Y-139461434D01*
X181233601Y-139582630D01*
X181222990Y-139585473D01*
X180829495Y-139672709D01*
X180818691Y-139674615D01*
X180419095Y-139727222D01*
X180408146Y-139728180D01*
X180358276Y-139730357D01*
X180035693Y-139744441D01*
X180022654Y-139743444D01*
X180012169Y-139743444D01*
X180000000Y-139741024D01*
X179987153Y-139743579D01*
X179962575Y-139746000D01*
X140037425Y-139746000D01*
X140012847Y-139743579D01*
X140000000Y-139741024D01*
X139987831Y-139743444D01*
X139977346Y-139743444D01*
X139964307Y-139744441D01*
X139641724Y-139730357D01*
X139591854Y-139728180D01*
X139580905Y-139727222D01*
X139181309Y-139674615D01*
X139170505Y-139672709D01*
X138777010Y-139585473D01*
X138766399Y-139582630D01*
X138382015Y-139461434D01*
X138371701Y-139457681D01*
X137999321Y-139303436D01*
X137989377Y-139298798D01*
X137631882Y-139112698D01*
X137622363Y-139107203D01*
X137282443Y-138890650D01*
X137273439Y-138884345D01*
X136953696Y-138638997D01*
X136945276Y-138631932D01*
X136648127Y-138359646D01*
X136640354Y-138351873D01*
X136368068Y-138054724D01*
X136361003Y-138046304D01*
X136115655Y-137726561D01*
X136109350Y-137717557D01*
X135991061Y-137531880D01*
X137654055Y-137531880D01*
X137654131Y-137532953D01*
X137659174Y-137540607D01*
X137746462Y-137624022D01*
X137751622Y-137628446D01*
X138043037Y-137852055D01*
X138048651Y-137855899D01*
X138362497Y-138046721D01*
X138368499Y-138049939D01*
X138701126Y-138205753D01*
X138707430Y-138208300D01*
X139054939Y-138327278D01*
X139061490Y-138329132D01*
X139419805Y-138409881D01*
X139426524Y-138411018D01*
X139791472Y-138452599D01*
X139798262Y-138453002D01*
X140165562Y-138454925D01*
X140172363Y-138454593D01*
X140537726Y-138416837D01*
X140544454Y-138415771D01*
X140903610Y-138338775D01*
X140910158Y-138336996D01*
X141258899Y-138221660D01*
X141265241Y-138219174D01*
X141599463Y-138066861D01*
X141605517Y-138063696D01*
X141921322Y-137876185D01*
X141927003Y-137872382D01*
X142220726Y-137651848D01*
X142225933Y-137647479D01*
X142337689Y-137542900D01*
X142344190Y-137531880D01*
X177654055Y-137531880D01*
X177654131Y-137532953D01*
X177659174Y-137540607D01*
X177746462Y-137624022D01*
X177751622Y-137628446D01*
X178043037Y-137852055D01*
X178048651Y-137855899D01*
X178362497Y-138046721D01*
X178368499Y-138049939D01*
X178701126Y-138205753D01*
X178707430Y-138208300D01*
X179054939Y-138327278D01*
X179061490Y-138329132D01*
X179419805Y-138409881D01*
X179426524Y-138411018D01*
X179791472Y-138452599D01*
X179798262Y-138453002D01*
X180165562Y-138454925D01*
X180172363Y-138454593D01*
X180537726Y-138416837D01*
X180544454Y-138415771D01*
X180903610Y-138338775D01*
X180910158Y-138336996D01*
X181258899Y-138221660D01*
X181265241Y-138219174D01*
X181599463Y-138066861D01*
X181605517Y-138063696D01*
X181921322Y-137876185D01*
X181927003Y-137872382D01*
X182220726Y-137651848D01*
X182225933Y-137647479D01*
X182337689Y-137542900D01*
X182345760Y-137529219D01*
X182345732Y-137528497D01*
X182340588Y-137520193D01*
X180012812Y-135192417D01*
X179998868Y-135184803D01*
X179997035Y-135184934D01*
X179990420Y-135189185D01*
X177661669Y-137517936D01*
X177654055Y-137531880D01*
X142344190Y-137531880D01*
X142345760Y-137529219D01*
X142345732Y-137528497D01*
X142340588Y-137520193D01*
X140012812Y-135192417D01*
X139998868Y-135184803D01*
X139997035Y-135184934D01*
X139990420Y-135189185D01*
X137661669Y-137517936D01*
X137654055Y-137531880D01*
X135991061Y-137531880D01*
X135892797Y-137377637D01*
X135887301Y-137368117D01*
X135701202Y-137010623D01*
X135696560Y-137000670D01*
X135575097Y-136707430D01*
X135542319Y-136628299D01*
X135538563Y-136617977D01*
X135493740Y-136475814D01*
X135417370Y-136233600D01*
X135414525Y-136222984D01*
X135386157Y-136095023D01*
X135327291Y-135829495D01*
X135325384Y-135818683D01*
X135318054Y-135763000D01*
X135272778Y-135419094D01*
X135271820Y-135408145D01*
X135255559Y-135035693D01*
X135256556Y-135022654D01*
X135256556Y-135012169D01*
X135258976Y-135000000D01*
X135257250Y-134991322D01*
X136541120Y-134991322D01*
X136559704Y-135358177D01*
X136560414Y-135364933D01*
X136618508Y-135727622D01*
X136619947Y-135734277D01*
X136716869Y-136088562D01*
X136719018Y-136095023D01*
X136853638Y-136436778D01*
X136856469Y-136442961D01*
X137027211Y-136768178D01*
X137030694Y-136774020D01*
X137235558Y-137078890D01*
X137239660Y-137084334D01*
X137454913Y-137339954D01*
X137467652Y-137348397D01*
X137478096Y-137342299D01*
X139807583Y-135012812D01*
X139813961Y-135001132D01*
X140184803Y-135001132D01*
X140184934Y-135002965D01*
X140189185Y-135009580D01*
X142519487Y-137339882D01*
X142533084Y-137347307D01*
X142542693Y-137340610D01*
X142738369Y-137113117D01*
X142742518Y-137107729D01*
X142950565Y-136805019D01*
X142954112Y-136799208D01*
X143128241Y-136475814D01*
X143131148Y-136469636D01*
X143269338Y-136129316D01*
X143271552Y-136122886D01*
X143372179Y-135769630D01*
X143373686Y-135763000D01*
X143435577Y-135400923D01*
X143436357Y-135394183D01*
X143458879Y-135025945D01*
X143458995Y-135022346D01*
X143459067Y-135001821D01*
X143458975Y-134998193D01*
X143458603Y-134991322D01*
X176541120Y-134991322D01*
X176559704Y-135358177D01*
X176560414Y-135364933D01*
X176618508Y-135727622D01*
X176619947Y-135734277D01*
X176716869Y-136088562D01*
X176719018Y-136095023D01*
X176853638Y-136436778D01*
X176856469Y-136442961D01*
X177027211Y-136768178D01*
X177030694Y-136774020D01*
X177235558Y-137078890D01*
X177239660Y-137084334D01*
X177454913Y-137339954D01*
X177467652Y-137348397D01*
X177478096Y-137342299D01*
X179807583Y-135012812D01*
X179813961Y-135001132D01*
X180184803Y-135001132D01*
X180184934Y-135002965D01*
X180189185Y-135009580D01*
X182519487Y-137339882D01*
X182533084Y-137347307D01*
X182542693Y-137340610D01*
X182738369Y-137113117D01*
X182742518Y-137107729D01*
X182950565Y-136805019D01*
X182954112Y-136799208D01*
X183128241Y-136475814D01*
X183131148Y-136469636D01*
X183269338Y-136129316D01*
X183271552Y-136122886D01*
X183372179Y-135769630D01*
X183373686Y-135763000D01*
X183435577Y-135400923D01*
X183436357Y-135394183D01*
X183458879Y-135025945D01*
X183458995Y-135022346D01*
X183459067Y-135001821D01*
X183458975Y-134998193D01*
X183439025Y-134629824D01*
X183438290Y-134623058D01*
X183378933Y-134260588D01*
X183377466Y-134253916D01*
X183279313Y-133899990D01*
X183277139Y-133893526D01*
X183141328Y-133552249D01*
X183138472Y-133546069D01*
X182966599Y-133221458D01*
X182963099Y-133215632D01*
X182757162Y-132911465D01*
X182753048Y-132906045D01*
X182544733Y-132660407D01*
X182531907Y-132651970D01*
X182521582Y-132658023D01*
X180192417Y-134987188D01*
X180184803Y-135001132D01*
X179813961Y-135001132D01*
X179815197Y-134998868D01*
X179815066Y-134997035D01*
X179810815Y-134990420D01*
X177480170Y-132659775D01*
X177466633Y-132652383D01*
X177456932Y-132659171D01*
X177254286Y-132896439D01*
X177250132Y-132901872D01*
X177043153Y-133205293D01*
X177039632Y-133211106D01*
X176866619Y-133535130D01*
X176863744Y-133541295D01*
X176726742Y-133882097D01*
X176724548Y-133888542D01*
X176625157Y-134242138D01*
X176623670Y-134248794D01*
X176563047Y-134611056D01*
X176562288Y-134617828D01*
X176541144Y-134984527D01*
X176541120Y-134991322D01*
X143458603Y-134991322D01*
X143439025Y-134629824D01*
X143438290Y-134623058D01*
X143378933Y-134260588D01*
X143377466Y-134253916D01*
X143279313Y-133899990D01*
X143277139Y-133893526D01*
X143141328Y-133552249D01*
X143138472Y-133546069D01*
X142966599Y-133221458D01*
X142963099Y-133215632D01*
X142757162Y-132911465D01*
X142753048Y-132906045D01*
X142544733Y-132660407D01*
X142531907Y-132651970D01*
X142521582Y-132658023D01*
X140192417Y-134987188D01*
X140184803Y-135001132D01*
X139813961Y-135001132D01*
X139815197Y-134998868D01*
X139815066Y-134997035D01*
X139810815Y-134990420D01*
X137480170Y-132659775D01*
X137466633Y-132652383D01*
X137456932Y-132659171D01*
X137254286Y-132896439D01*
X137250132Y-132901872D01*
X137043153Y-133205293D01*
X137039632Y-133211106D01*
X136866619Y-133535130D01*
X136863744Y-133541295D01*
X136726742Y-133882097D01*
X136724548Y-133888542D01*
X136625157Y-134242138D01*
X136623670Y-134248794D01*
X136563047Y-134611056D01*
X136562288Y-134617828D01*
X136541144Y-134984527D01*
X136541120Y-134991322D01*
X135257250Y-134991322D01*
X135256421Y-134987153D01*
X135254000Y-134962575D01*
X135254000Y-132470718D01*
X137654200Y-132470718D01*
X137654235Y-132471558D01*
X137659287Y-132479682D01*
X139987188Y-134807583D01*
X140001132Y-134815197D01*
X140002965Y-134815066D01*
X140009580Y-134810815D01*
X142338226Y-132482169D01*
X142344479Y-132470718D01*
X177654200Y-132470718D01*
X177654235Y-132471558D01*
X177659287Y-132479682D01*
X179987188Y-134807583D01*
X180001132Y-134815197D01*
X180002965Y-134815066D01*
X180009580Y-134810815D01*
X182338226Y-132482169D01*
X182345840Y-132468225D01*
X182345772Y-132467268D01*
X182340608Y-132459459D01*
X182244369Y-132368132D01*
X182239179Y-132363714D01*
X181946997Y-132141133D01*
X181941371Y-132137309D01*
X181626858Y-131947582D01*
X181620841Y-131944383D01*
X181287684Y-131789737D01*
X181281348Y-131787203D01*
X180933448Y-131669445D01*
X180926880Y-131667611D01*
X180568294Y-131588115D01*
X180561559Y-131587000D01*
X180196473Y-131546694D01*
X180189691Y-131546315D01*
X179822363Y-131545674D01*
X179815590Y-131546029D01*
X179450343Y-131585062D01*
X179443634Y-131586149D01*
X179084758Y-131664397D01*
X179078183Y-131666208D01*
X178729858Y-131782755D01*
X178723536Y-131785258D01*
X178389843Y-131938741D01*
X178383799Y-131941927D01*
X178068639Y-132130547D01*
X178062993Y-132134355D01*
X177770038Y-132355915D01*
X177764827Y-132360318D01*
X177662222Y-132457009D01*
X177654200Y-132470718D01*
X142344479Y-132470718D01*
X142345840Y-132468225D01*
X142345772Y-132467268D01*
X142340608Y-132459459D01*
X142244369Y-132368132D01*
X142239179Y-132363714D01*
X141946997Y-132141133D01*
X141941371Y-132137309D01*
X141626858Y-131947582D01*
X141620841Y-131944383D01*
X141287684Y-131789737D01*
X141281348Y-131787203D01*
X140933448Y-131669445D01*
X140926880Y-131667611D01*
X140568294Y-131588115D01*
X140561559Y-131587000D01*
X140196473Y-131546694D01*
X140189691Y-131546315D01*
X139822363Y-131545674D01*
X139815590Y-131546029D01*
X139450343Y-131585062D01*
X139443634Y-131586149D01*
X139084758Y-131664397D01*
X139078183Y-131666208D01*
X138729858Y-131782755D01*
X138723536Y-131785258D01*
X138389843Y-131938741D01*
X138383799Y-131941927D01*
X138068639Y-132130547D01*
X138062993Y-132134355D01*
X137770038Y-132355915D01*
X137764827Y-132360318D01*
X137662222Y-132457009D01*
X137654200Y-132470718D01*
X135254000Y-132470718D01*
X135254000Y-126797969D01*
X143132781Y-126797969D01*
X143139568Y-126807670D01*
X143209738Y-126867602D01*
X143217711Y-126873394D01*
X143414482Y-126993976D01*
X143423276Y-126998457D01*
X143636479Y-127086768D01*
X143645864Y-127089817D01*
X143870259Y-127143690D01*
X143880006Y-127145233D01*
X144110070Y-127163340D01*
X144119930Y-127163340D01*
X144349994Y-127145233D01*
X144359741Y-127143690D01*
X144584136Y-127089817D01*
X144593521Y-127086768D01*
X144806724Y-126998457D01*
X144815518Y-126993976D01*
X145012289Y-126873394D01*
X145020262Y-126867602D01*
X145088865Y-126809008D01*
X145092807Y-126802969D01*
X182727781Y-126802969D01*
X182734568Y-126812670D01*
X182804738Y-126872602D01*
X182812711Y-126878394D01*
X183009482Y-126998976D01*
X183018276Y-127003457D01*
X183231479Y-127091768D01*
X183240864Y-127094817D01*
X183465259Y-127148690D01*
X183475006Y-127150233D01*
X183705070Y-127168340D01*
X183714930Y-127168340D01*
X183944994Y-127150233D01*
X183954741Y-127148690D01*
X184179136Y-127094817D01*
X184188521Y-127091768D01*
X184401724Y-127003457D01*
X184410518Y-126998976D01*
X184607289Y-126878394D01*
X184615262Y-126872602D01*
X184683865Y-126814008D01*
X184692293Y-126801098D01*
X184686285Y-126790890D01*
X183722812Y-125827417D01*
X183708868Y-125819803D01*
X183707035Y-125819934D01*
X183700420Y-125824185D01*
X182735173Y-126789432D01*
X182727781Y-126802969D01*
X145092807Y-126802969D01*
X145097293Y-126796098D01*
X145091285Y-126785890D01*
X144127812Y-125822417D01*
X144113868Y-125814803D01*
X144112035Y-125814934D01*
X144105420Y-125819185D01*
X143140173Y-126784432D01*
X143132781Y-126797969D01*
X135254000Y-126797969D01*
X135254000Y-123897755D01*
X138800958Y-123897755D01*
X138826864Y-124169280D01*
X138827949Y-124173714D01*
X138827950Y-124173720D01*
X138890610Y-124429788D01*
X138891695Y-124434222D01*
X138893407Y-124438448D01*
X138893408Y-124438452D01*
X138991100Y-124679642D01*
X138994092Y-124687030D01*
X138996396Y-124690965D01*
X138996399Y-124690971D01*
X139119086Y-124900503D01*
X139131912Y-124922408D01*
X139302266Y-125135425D01*
X139501587Y-125321620D01*
X139512541Y-125329219D01*
X139721945Y-125474489D01*
X139721950Y-125474492D01*
X139725698Y-125477092D01*
X139729783Y-125479124D01*
X139729786Y-125479126D01*
X139965814Y-125596548D01*
X139969905Y-125598583D01*
X139974244Y-125600005D01*
X139974248Y-125600007D01*
X140224750Y-125682125D01*
X140224755Y-125682126D01*
X140229092Y-125683548D01*
X140257889Y-125688548D01*
X140494048Y-125729553D01*
X140494056Y-125729554D01*
X140497829Y-125730209D01*
X140501666Y-125730400D01*
X140582451Y-125734422D01*
X140582459Y-125734422D01*
X140584022Y-125734500D01*
X140754282Y-125734500D01*
X140756550Y-125734335D01*
X140756562Y-125734335D01*
X140901694Y-125723804D01*
X140957043Y-125719788D01*
X140961498Y-125718804D01*
X140961501Y-125718804D01*
X141218927Y-125661970D01*
X141218931Y-125661969D01*
X141223387Y-125660985D01*
X141292158Y-125634930D01*
X142581660Y-125634930D01*
X142599767Y-125864994D01*
X142601310Y-125874741D01*
X142655183Y-126099136D01*
X142658232Y-126108521D01*
X142746543Y-126321724D01*
X142751024Y-126330518D01*
X142871606Y-126527289D01*
X142877398Y-126535262D01*
X142935992Y-126603865D01*
X142948902Y-126612293D01*
X142959110Y-126606285D01*
X143922583Y-125642812D01*
X143928961Y-125631132D01*
X144299803Y-125631132D01*
X144299934Y-125632965D01*
X144304185Y-125639580D01*
X145269432Y-126604827D01*
X145282969Y-126612219D01*
X145292670Y-126605432D01*
X145352602Y-126535262D01*
X145358394Y-126527289D01*
X145478976Y-126330518D01*
X145483457Y-126321724D01*
X145571768Y-126108521D01*
X145574817Y-126099136D01*
X145628690Y-125874741D01*
X145630233Y-125864994D01*
X145647946Y-125639930D01*
X182176660Y-125639930D01*
X182194767Y-125869994D01*
X182196310Y-125879741D01*
X182250183Y-126104136D01*
X182253232Y-126113521D01*
X182341543Y-126326724D01*
X182346024Y-126335518D01*
X182466606Y-126532289D01*
X182472398Y-126540262D01*
X182530992Y-126608865D01*
X182543902Y-126617293D01*
X182554110Y-126611285D01*
X183517583Y-125647812D01*
X183523961Y-125636132D01*
X183894803Y-125636132D01*
X183894934Y-125637965D01*
X183899185Y-125644580D01*
X184864432Y-126609827D01*
X184877969Y-126617219D01*
X184887670Y-126610432D01*
X184947602Y-126540262D01*
X184953394Y-126532289D01*
X185073976Y-126335518D01*
X185078457Y-126326724D01*
X185166768Y-126113521D01*
X185169817Y-126104136D01*
X185223690Y-125879741D01*
X185225233Y-125869994D01*
X185243340Y-125639930D01*
X185243340Y-125630070D01*
X185225233Y-125400006D01*
X185223690Y-125390259D01*
X185169817Y-125165864D01*
X185166768Y-125156479D01*
X185078457Y-124943276D01*
X185073976Y-124934482D01*
X184953394Y-124737711D01*
X184947602Y-124729738D01*
X184889008Y-124661135D01*
X184876098Y-124652707D01*
X184865890Y-124658715D01*
X183902417Y-125622188D01*
X183894803Y-125636132D01*
X183523961Y-125636132D01*
X183525197Y-125633868D01*
X183525066Y-125632035D01*
X183520815Y-125625420D01*
X182555568Y-124660173D01*
X182542031Y-124652781D01*
X182532330Y-124659568D01*
X182472398Y-124729738D01*
X182466606Y-124737711D01*
X182346024Y-124934482D01*
X182341543Y-124943276D01*
X182253232Y-125156479D01*
X182250183Y-125165864D01*
X182196310Y-125390259D01*
X182194767Y-125400006D01*
X182176660Y-125630070D01*
X182176660Y-125639930D01*
X145647946Y-125639930D01*
X145648340Y-125634930D01*
X145648340Y-125625070D01*
X145630233Y-125395006D01*
X145628690Y-125385259D01*
X145574817Y-125160864D01*
X145571768Y-125151479D01*
X145483457Y-124938276D01*
X145478976Y-124929482D01*
X145358394Y-124732711D01*
X145352602Y-124724738D01*
X145294008Y-124656135D01*
X145281098Y-124647707D01*
X145270890Y-124653715D01*
X144307417Y-125617188D01*
X144299803Y-125631132D01*
X143928961Y-125631132D01*
X143930197Y-125628868D01*
X143930066Y-125627035D01*
X143925815Y-125620420D01*
X142960568Y-124655173D01*
X142947031Y-124647781D01*
X142937330Y-124654568D01*
X142877398Y-124724738D01*
X142871606Y-124732711D01*
X142751024Y-124929482D01*
X142746543Y-124938276D01*
X142658232Y-125151479D01*
X142655183Y-125160864D01*
X142601310Y-125385259D01*
X142599767Y-125395006D01*
X142581660Y-125625070D01*
X142581660Y-125634930D01*
X141292158Y-125634930D01*
X141380268Y-125601548D01*
X141474183Y-125565967D01*
X141474186Y-125565966D01*
X141478453Y-125564349D01*
X141716898Y-125431905D01*
X141924945Y-125273128D01*
X141930093Y-125269199D01*
X141930094Y-125269198D01*
X141933725Y-125266427D01*
X141963136Y-125236341D01*
X142121200Y-125074650D01*
X142121204Y-125074645D01*
X142124394Y-125071382D01*
X142147071Y-125040228D01*
X142282222Y-124854549D01*
X142282222Y-124854548D01*
X142284910Y-124850856D01*
X142411910Y-124609469D01*
X142432068Y-124552388D01*
X142463315Y-124463902D01*
X143132707Y-124463902D01*
X143138715Y-124474110D01*
X144102188Y-125437583D01*
X144116132Y-125445197D01*
X144117965Y-125445066D01*
X144124580Y-125440815D01*
X145089827Y-124475568D01*
X145097219Y-124462031D01*
X145090432Y-124452330D01*
X145020262Y-124392398D01*
X145012289Y-124386606D01*
X144977031Y-124365000D01*
X148915518Y-124365000D01*
X148916208Y-124371565D01*
X148934411Y-124544754D01*
X148935392Y-124554092D01*
X148994147Y-124734920D01*
X149089214Y-124899580D01*
X149093632Y-124904487D01*
X149093633Y-124904488D01*
X149168391Y-124987515D01*
X149216438Y-125040877D01*
X149269804Y-125079650D01*
X149357744Y-125143542D01*
X149370259Y-125152635D01*
X149376287Y-125155319D01*
X149376289Y-125155320D01*
X149537924Y-125227284D01*
X149543955Y-125229969D01*
X149636944Y-125249734D01*
X149723476Y-125268128D01*
X149723480Y-125268128D01*
X149729933Y-125269500D01*
X149920067Y-125269500D01*
X149926520Y-125268128D01*
X149926524Y-125268128D01*
X150013056Y-125249734D01*
X150106045Y-125229969D01*
X150112076Y-125227284D01*
X150273711Y-125155320D01*
X150273713Y-125155319D01*
X150279741Y-125152635D01*
X150292257Y-125143542D01*
X150380196Y-125079650D01*
X150433562Y-125040877D01*
X150481609Y-124987515D01*
X150556367Y-124904488D01*
X150556368Y-124904487D01*
X150560786Y-124899580D01*
X150655853Y-124734920D01*
X150714608Y-124554092D01*
X150715590Y-124544754D01*
X150733792Y-124371565D01*
X150734482Y-124365000D01*
X150724134Y-124266543D01*
X150715298Y-124182471D01*
X150715298Y-124182469D01*
X150714608Y-124175908D01*
X150657452Y-124000000D01*
X158940715Y-124000000D01*
X158941793Y-124008188D01*
X158956686Y-124121310D01*
X158959772Y-124144754D01*
X158962931Y-124152380D01*
X159008931Y-124263432D01*
X159015645Y-124279642D01*
X159020672Y-124286193D01*
X159090017Y-124376565D01*
X159104526Y-124395474D01*
X159111076Y-124400500D01*
X159111079Y-124400503D01*
X159213804Y-124479327D01*
X159220357Y-124484355D01*
X159355246Y-124540228D01*
X159363435Y-124541306D01*
X159368294Y-124542608D01*
X159428917Y-124579558D01*
X159457393Y-124631707D01*
X159458693Y-124636561D01*
X159459772Y-124644754D01*
X159462932Y-124652384D01*
X159462933Y-124652386D01*
X159492903Y-124724738D01*
X159515645Y-124779642D01*
X159604526Y-124895474D01*
X159611076Y-124900500D01*
X159611079Y-124900503D01*
X159687685Y-124959285D01*
X159720357Y-124984355D01*
X159855246Y-125040228D01*
X160000000Y-125059285D01*
X160008188Y-125058207D01*
X160136566Y-125041306D01*
X160144754Y-125040228D01*
X160279643Y-124984355D01*
X160312315Y-124959285D01*
X160388921Y-124900503D01*
X160388924Y-124900500D01*
X160395474Y-124895474D01*
X160484355Y-124779642D01*
X160507098Y-124724738D01*
X160537067Y-124652386D01*
X160537068Y-124652384D01*
X160540228Y-124644754D01*
X160541307Y-124636561D01*
X160542607Y-124631707D01*
X160579557Y-124571084D01*
X160631706Y-124542608D01*
X160636565Y-124541306D01*
X160644754Y-124540228D01*
X160779643Y-124484355D01*
X160786196Y-124479327D01*
X160888921Y-124400503D01*
X160888924Y-124400500D01*
X160889576Y-124400000D01*
X167640715Y-124400000D01*
X167641793Y-124408188D01*
X167650664Y-124475568D01*
X167659772Y-124544754D01*
X167668312Y-124565370D01*
X167707581Y-124660173D01*
X167715645Y-124679642D01*
X167720672Y-124686193D01*
X167792378Y-124779642D01*
X167804526Y-124795474D01*
X167811076Y-124800500D01*
X167811079Y-124800503D01*
X167888029Y-124859549D01*
X167920357Y-124884355D01*
X168055246Y-124940228D01*
X168200000Y-124959285D01*
X168208188Y-124958207D01*
X168336566Y-124941306D01*
X168344754Y-124940228D01*
X168479643Y-124884355D01*
X168511971Y-124859549D01*
X168588921Y-124800503D01*
X168588924Y-124800500D01*
X168595474Y-124795474D01*
X168607623Y-124779642D01*
X168679328Y-124686193D01*
X168684355Y-124679642D01*
X168692420Y-124660173D01*
X168731688Y-124565370D01*
X168740228Y-124544754D01*
X168749337Y-124475568D01*
X168758207Y-124408188D01*
X168759285Y-124400000D01*
X168755335Y-124370000D01*
X177090518Y-124370000D01*
X177091208Y-124376565D01*
X177109687Y-124552380D01*
X177110392Y-124559092D01*
X177169147Y-124739920D01*
X177172450Y-124745642D01*
X177172451Y-124745643D01*
X177192081Y-124779642D01*
X177264214Y-124904580D01*
X177268632Y-124909487D01*
X177268633Y-124909488D01*
X177338889Y-124987515D01*
X177391438Y-125045877D01*
X177489962Y-125117459D01*
X177521572Y-125140425D01*
X177545259Y-125157635D01*
X177551287Y-125160319D01*
X177551289Y-125160320D01*
X177710806Y-125231341D01*
X177718955Y-125234969D01*
X177811944Y-125254735D01*
X177898476Y-125273128D01*
X177898480Y-125273128D01*
X177904933Y-125274500D01*
X178095067Y-125274500D01*
X178101520Y-125273128D01*
X178101524Y-125273128D01*
X178188056Y-125254735D01*
X178281045Y-125234969D01*
X178289194Y-125231341D01*
X178448711Y-125160320D01*
X178448713Y-125160319D01*
X178454741Y-125157635D01*
X178478429Y-125140425D01*
X178510038Y-125117459D01*
X178608562Y-125045877D01*
X178661111Y-124987515D01*
X178731367Y-124909488D01*
X178731368Y-124909487D01*
X178735786Y-124904580D01*
X178807919Y-124779642D01*
X178827549Y-124745643D01*
X178827550Y-124745642D01*
X178830853Y-124739920D01*
X178889608Y-124559092D01*
X178890314Y-124552380D01*
X178899087Y-124468902D01*
X182727707Y-124468902D01*
X182733715Y-124479110D01*
X183697188Y-125442583D01*
X183711132Y-125450197D01*
X183712965Y-125450066D01*
X183719580Y-125445815D01*
X184684827Y-124480568D01*
X184692219Y-124467031D01*
X184685432Y-124457330D01*
X184615262Y-124397398D01*
X184607289Y-124391606D01*
X184410518Y-124271024D01*
X184401724Y-124266543D01*
X184188521Y-124178232D01*
X184179136Y-124175183D01*
X183954741Y-124121310D01*
X183944994Y-124119767D01*
X183714930Y-124101660D01*
X183705070Y-124101660D01*
X183475006Y-124119767D01*
X183465259Y-124121310D01*
X183240864Y-124175183D01*
X183231479Y-124178232D01*
X183018276Y-124266543D01*
X183009482Y-124271024D01*
X182812711Y-124391606D01*
X182804738Y-124397398D01*
X182736135Y-124455992D01*
X182727707Y-124468902D01*
X178899087Y-124468902D01*
X178908792Y-124376565D01*
X178909482Y-124370000D01*
X178899985Y-124279642D01*
X178890298Y-124187471D01*
X178890298Y-124187469D01*
X178889608Y-124180908D01*
X178830853Y-124000080D01*
X178826080Y-123991812D01*
X178785007Y-123920673D01*
X178774662Y-123902755D01*
X185255958Y-123902755D01*
X185281864Y-124174280D01*
X185282949Y-124178714D01*
X185282950Y-124178720D01*
X185345610Y-124434788D01*
X185346695Y-124439222D01*
X185348407Y-124443448D01*
X185348408Y-124443452D01*
X185447067Y-124687030D01*
X185449092Y-124692030D01*
X185451396Y-124695965D01*
X185451399Y-124695971D01*
X185583984Y-124922408D01*
X185586912Y-124927408D01*
X185691515Y-125058207D01*
X185750416Y-125131859D01*
X185757266Y-125140425D01*
X185956587Y-125326620D01*
X186041114Y-125385259D01*
X186176945Y-125479489D01*
X186176950Y-125479492D01*
X186180698Y-125482092D01*
X186184783Y-125484124D01*
X186184786Y-125484126D01*
X186420814Y-125601548D01*
X186424905Y-125603583D01*
X186429244Y-125605005D01*
X186429248Y-125605007D01*
X186679750Y-125687125D01*
X186679755Y-125687126D01*
X186684092Y-125688548D01*
X186753324Y-125700569D01*
X186949048Y-125734553D01*
X186949056Y-125734554D01*
X186952829Y-125735209D01*
X186956666Y-125735400D01*
X187037451Y-125739422D01*
X187037459Y-125739422D01*
X187039022Y-125739500D01*
X187209282Y-125739500D01*
X187211550Y-125739335D01*
X187211562Y-125739335D01*
X187346372Y-125729553D01*
X187412043Y-125724788D01*
X187416498Y-125723804D01*
X187416501Y-125723804D01*
X187673927Y-125666970D01*
X187673931Y-125666969D01*
X187678387Y-125665985D01*
X187807184Y-125617188D01*
X187929183Y-125570967D01*
X187929186Y-125570966D01*
X187933453Y-125569349D01*
X188156970Y-125445197D01*
X188167905Y-125439123D01*
X188167906Y-125439122D01*
X188171898Y-125436905D01*
X188327033Y-125318509D01*
X188385093Y-125274199D01*
X188385094Y-125274198D01*
X188388725Y-125271427D01*
X188491920Y-125165864D01*
X188576200Y-125079650D01*
X188576204Y-125079645D01*
X188579394Y-125076382D01*
X188583034Y-125071382D01*
X188737222Y-124859549D01*
X188737222Y-124859548D01*
X188739910Y-124855856D01*
X188866910Y-124614469D01*
X188870197Y-124605163D01*
X188924167Y-124452330D01*
X188957734Y-124357276D01*
X188992496Y-124180908D01*
X189009599Y-124094138D01*
X189009600Y-124094132D01*
X189010480Y-124089666D01*
X189010956Y-124080110D01*
X189023815Y-123821814D01*
X189023815Y-123821808D01*
X189024042Y-123817245D01*
X188998136Y-123545720D01*
X188990004Y-123512485D01*
X188934390Y-123285212D01*
X188933305Y-123280778D01*
X188931280Y-123275778D01*
X188832623Y-123032203D01*
X188832620Y-123032198D01*
X188830908Y-123027970D01*
X188828604Y-123024035D01*
X188828601Y-123024029D01*
X188695394Y-122796530D01*
X188695393Y-122796528D01*
X188693088Y-122792592D01*
X188546929Y-122609829D01*
X188525586Y-122583141D01*
X188525585Y-122583139D01*
X188522734Y-122579575D01*
X188323413Y-122393380D01*
X188229727Y-122328387D01*
X188103055Y-122240511D01*
X188103050Y-122240508D01*
X188099302Y-122237908D01*
X188095217Y-122235876D01*
X188095214Y-122235874D01*
X187859186Y-122118452D01*
X187859183Y-122118451D01*
X187855095Y-122116417D01*
X187850756Y-122114995D01*
X187850752Y-122114993D01*
X187600250Y-122032875D01*
X187600245Y-122032874D01*
X187595908Y-122031452D01*
X187526676Y-122019431D01*
X187330952Y-121985447D01*
X187330944Y-121985446D01*
X187327171Y-121984791D01*
X187316385Y-121984254D01*
X187242549Y-121980578D01*
X187242541Y-121980578D01*
X187240978Y-121980500D01*
X187070718Y-121980500D01*
X187068450Y-121980665D01*
X187068438Y-121980665D01*
X186941415Y-121989882D01*
X186867957Y-121995212D01*
X186863502Y-121996196D01*
X186863499Y-121996196D01*
X186606073Y-122053030D01*
X186606069Y-122053031D01*
X186601613Y-122054015D01*
X186474080Y-122102333D01*
X186350817Y-122149033D01*
X186350814Y-122149034D01*
X186346547Y-122150651D01*
X186342556Y-122152868D01*
X186142147Y-122264185D01*
X186108102Y-122283095D01*
X186104470Y-122285867D01*
X185897827Y-122443573D01*
X185891275Y-122448573D01*
X185888082Y-122451839D01*
X185888080Y-122451841D01*
X185703800Y-122640350D01*
X185703796Y-122640355D01*
X185700606Y-122643618D01*
X185697919Y-122647310D01*
X185697917Y-122647312D01*
X185592944Y-122791530D01*
X185540090Y-122864144D01*
X185537964Y-122868184D01*
X185537962Y-122868188D01*
X185488115Y-122962932D01*
X185413090Y-123105531D01*
X185411571Y-123109832D01*
X185411569Y-123109837D01*
X185369847Y-123227986D01*
X185322266Y-123362724D01*
X185310890Y-123420442D01*
X185270506Y-123625334D01*
X185269520Y-123630334D01*
X185269293Y-123634887D01*
X185269293Y-123634890D01*
X185256207Y-123897755D01*
X185255958Y-123902755D01*
X178774662Y-123902755D01*
X178735786Y-123835420D01*
X178626286Y-123713807D01*
X178612984Y-123699034D01*
X178612983Y-123699033D01*
X178608562Y-123694123D01*
X178485243Y-123604526D01*
X178460083Y-123586246D01*
X178460082Y-123586245D01*
X178454741Y-123582365D01*
X178448713Y-123579681D01*
X178448711Y-123579680D01*
X178287076Y-123507716D01*
X178287075Y-123507716D01*
X178281045Y-123505031D01*
X178188056Y-123485266D01*
X178101524Y-123466872D01*
X178101520Y-123466872D01*
X178095067Y-123465500D01*
X177904933Y-123465500D01*
X177898480Y-123466872D01*
X177898476Y-123466872D01*
X177811944Y-123485266D01*
X177718955Y-123505031D01*
X177712925Y-123507716D01*
X177712924Y-123507716D01*
X177551289Y-123579680D01*
X177551287Y-123579681D01*
X177545259Y-123582365D01*
X177539918Y-123586245D01*
X177539917Y-123586246D01*
X177514757Y-123604526D01*
X177391438Y-123694123D01*
X177387017Y-123699033D01*
X177387016Y-123699034D01*
X177373715Y-123713807D01*
X177264214Y-123835420D01*
X177214993Y-123920673D01*
X177173921Y-123991812D01*
X177169147Y-124000080D01*
X177110392Y-124180908D01*
X177109702Y-124187469D01*
X177109702Y-124187471D01*
X177100015Y-124279642D01*
X177090518Y-124370000D01*
X168755335Y-124370000D01*
X168742305Y-124271024D01*
X168741306Y-124263432D01*
X168741305Y-124263430D01*
X168740228Y-124255246D01*
X168708530Y-124178720D01*
X168687515Y-124127986D01*
X168687514Y-124127984D01*
X168684355Y-124120358D01*
X168595474Y-124004526D01*
X168588924Y-123999500D01*
X168588921Y-123999497D01*
X168486196Y-123920673D01*
X168486194Y-123920672D01*
X168479643Y-123915645D01*
X168344754Y-123859772D01*
X168200000Y-123840715D01*
X168191812Y-123841793D01*
X168063432Y-123858694D01*
X168063430Y-123858695D01*
X168055246Y-123859772D01*
X168046410Y-123863432D01*
X167927986Y-123912485D01*
X167927984Y-123912486D01*
X167920358Y-123915645D01*
X167836270Y-123980168D01*
X167817779Y-123994357D01*
X167804526Y-124004526D01*
X167715645Y-124120358D01*
X167712486Y-124127984D01*
X167712485Y-124127986D01*
X167691470Y-124178720D01*
X167659772Y-124255246D01*
X167658695Y-124263430D01*
X167658694Y-124263432D01*
X167657695Y-124271024D01*
X167640715Y-124400000D01*
X160889576Y-124400000D01*
X160895474Y-124395474D01*
X160909984Y-124376565D01*
X160979328Y-124286193D01*
X160984355Y-124279642D01*
X160991070Y-124263432D01*
X161037069Y-124152380D01*
X161040228Y-124144754D01*
X161043315Y-124121310D01*
X161058207Y-124008188D01*
X161059285Y-124000000D01*
X161048842Y-123920673D01*
X161041306Y-123863432D01*
X161041305Y-123863430D01*
X161040228Y-123855246D01*
X160984355Y-123720358D01*
X160915277Y-123630334D01*
X160900501Y-123611077D01*
X160900500Y-123611076D01*
X160895474Y-123604526D01*
X160888924Y-123599500D01*
X160888921Y-123599497D01*
X160786196Y-123520673D01*
X160786194Y-123520672D01*
X160779643Y-123515645D01*
X160644754Y-123459772D01*
X160636565Y-123458694D01*
X160631706Y-123457392D01*
X160571083Y-123420442D01*
X160542607Y-123368293D01*
X160541307Y-123363439D01*
X160540228Y-123355246D01*
X160484355Y-123220358D01*
X160395474Y-123104526D01*
X160388924Y-123099500D01*
X160388921Y-123099497D01*
X160286196Y-123020673D01*
X160286194Y-123020672D01*
X160279643Y-123015645D01*
X160144754Y-122959772D01*
X160000000Y-122940715D01*
X159991812Y-122941793D01*
X159863432Y-122958694D01*
X159863430Y-122958695D01*
X159855246Y-122959772D01*
X159812141Y-122977627D01*
X159727986Y-123012485D01*
X159727984Y-123012486D01*
X159720358Y-123015645D01*
X159604526Y-123104526D01*
X159515645Y-123220358D01*
X159459772Y-123355246D01*
X159458693Y-123363439D01*
X159457393Y-123368293D01*
X159420443Y-123428916D01*
X159368293Y-123457393D01*
X159363439Y-123458693D01*
X159355246Y-123459772D01*
X159347616Y-123462932D01*
X159347614Y-123462933D01*
X159227986Y-123512485D01*
X159227984Y-123512486D01*
X159220358Y-123515645D01*
X159104526Y-123604526D01*
X159015645Y-123720358D01*
X158959772Y-123855246D01*
X158958695Y-123863430D01*
X158958694Y-123863432D01*
X158951158Y-123920673D01*
X158940715Y-124000000D01*
X150657452Y-124000000D01*
X150655853Y-123995080D01*
X150560786Y-123830420D01*
X150433562Y-123689123D01*
X150326141Y-123611077D01*
X150285083Y-123581246D01*
X150285082Y-123581245D01*
X150279741Y-123577365D01*
X150273713Y-123574681D01*
X150273711Y-123574680D01*
X150112076Y-123502716D01*
X150112075Y-123502716D01*
X150106045Y-123500031D01*
X150013056Y-123480265D01*
X149926524Y-123461872D01*
X149926520Y-123461872D01*
X149920067Y-123460500D01*
X149729933Y-123460500D01*
X149723480Y-123461872D01*
X149723476Y-123461872D01*
X149636944Y-123480265D01*
X149543955Y-123500031D01*
X149537925Y-123502716D01*
X149537924Y-123502716D01*
X149376289Y-123574680D01*
X149376287Y-123574681D01*
X149370259Y-123577365D01*
X149364918Y-123581245D01*
X149364917Y-123581246D01*
X149323859Y-123611077D01*
X149216438Y-123689123D01*
X149089214Y-123830420D01*
X148994147Y-123995080D01*
X148935392Y-124175908D01*
X148934702Y-124182469D01*
X148934702Y-124182471D01*
X148925866Y-124266543D01*
X148915518Y-124365000D01*
X144977031Y-124365000D01*
X144815518Y-124266024D01*
X144806724Y-124261543D01*
X144593521Y-124173232D01*
X144584136Y-124170183D01*
X144359741Y-124116310D01*
X144349994Y-124114767D01*
X144119930Y-124096660D01*
X144110070Y-124096660D01*
X143880006Y-124114767D01*
X143870259Y-124116310D01*
X143645864Y-124170183D01*
X143636479Y-124173232D01*
X143423276Y-124261543D01*
X143414482Y-124266024D01*
X143217711Y-124386606D01*
X143209738Y-124392398D01*
X143141135Y-124450992D01*
X143132707Y-124463902D01*
X142463315Y-124463902D01*
X142467874Y-124450992D01*
X142502734Y-124352276D01*
X142537817Y-124174280D01*
X142554599Y-124089138D01*
X142554600Y-124089132D01*
X142555480Y-124084666D01*
X142555707Y-124080110D01*
X142568815Y-123816814D01*
X142568815Y-123816808D01*
X142569042Y-123812245D01*
X142543136Y-123540720D01*
X142538231Y-123520672D01*
X142479390Y-123280212D01*
X142478305Y-123275778D01*
X142476592Y-123271548D01*
X142377623Y-123027203D01*
X142377620Y-123027198D01*
X142375908Y-123022970D01*
X142373604Y-123019035D01*
X142373601Y-123019029D01*
X142243638Y-122797070D01*
X149288032Y-122797070D01*
X149296863Y-122808692D01*
X149365164Y-122858315D01*
X149376544Y-122864886D01*
X149538075Y-122936803D01*
X149550575Y-122940864D01*
X149723528Y-122977627D01*
X149736586Y-122979000D01*
X149913414Y-122979000D01*
X149926472Y-122977627D01*
X150099425Y-122940864D01*
X150111925Y-122936803D01*
X150273456Y-122864886D01*
X150284836Y-122858315D01*
X150353509Y-122808422D01*
X150361934Y-122797495D01*
X150355031Y-122784636D01*
X149837812Y-122267417D01*
X149823868Y-122259803D01*
X149822035Y-122259934D01*
X149815420Y-122264185D01*
X149294645Y-122784960D01*
X149288032Y-122797070D01*
X142243638Y-122797070D01*
X142240394Y-122791530D01*
X142240393Y-122791528D01*
X142238088Y-122787592D01*
X142090918Y-122603565D01*
X142070586Y-122578141D01*
X142070585Y-122578139D01*
X142067734Y-122574575D01*
X141868413Y-122388380D01*
X141713449Y-122280877D01*
X141648055Y-122235511D01*
X141648050Y-122235508D01*
X141644302Y-122232908D01*
X141640217Y-122230876D01*
X141640214Y-122230874D01*
X141404186Y-122113452D01*
X141404183Y-122113451D01*
X141400095Y-122111417D01*
X141395756Y-122109995D01*
X141395752Y-122109993D01*
X141309032Y-122081565D01*
X148916711Y-122081565D01*
X148935194Y-122257424D01*
X148937924Y-122270265D01*
X148992567Y-122438439D01*
X148997905Y-122450428D01*
X149086319Y-122603565D01*
X149089904Y-122608499D01*
X149101204Y-122615460D01*
X149101280Y-122615459D01*
X149110566Y-122609829D01*
X149632583Y-122087812D01*
X149638961Y-122076132D01*
X150009803Y-122076132D01*
X150009934Y-122077965D01*
X150014185Y-122084580D01*
X150537385Y-122607780D01*
X150551329Y-122615394D01*
X150551405Y-122615389D01*
X150558691Y-122610432D01*
X150563681Y-122603565D01*
X150652095Y-122450428D01*
X150657433Y-122438439D01*
X150712076Y-122270265D01*
X150714806Y-122257424D01*
X150733289Y-122081565D01*
X150733289Y-122080000D01*
X177090518Y-122080000D01*
X177091208Y-122086565D01*
X177109416Y-122259803D01*
X177110392Y-122269092D01*
X177169147Y-122449920D01*
X177264214Y-122614580D01*
X177391438Y-122755877D01*
X177431467Y-122784960D01*
X177539140Y-122863189D01*
X177545259Y-122867635D01*
X177551287Y-122870319D01*
X177551289Y-122870320D01*
X177712924Y-122942284D01*
X177718955Y-122944969D01*
X177803459Y-122962931D01*
X177898476Y-122983128D01*
X177898480Y-122983128D01*
X177904933Y-122984500D01*
X178095067Y-122984500D01*
X178101520Y-122983128D01*
X178101524Y-122983128D01*
X178196541Y-122962931D01*
X178281045Y-122944969D01*
X178287076Y-122942284D01*
X178448711Y-122870320D01*
X178448713Y-122870319D01*
X178454741Y-122867635D01*
X178460861Y-122863189D01*
X178568533Y-122784960D01*
X178608562Y-122755877D01*
X178735786Y-122614580D01*
X178830853Y-122449920D01*
X178889608Y-122269092D01*
X178890585Y-122259803D01*
X178908792Y-122086565D01*
X178909482Y-122080000D01*
X178904529Y-122032875D01*
X178890298Y-121897471D01*
X178890298Y-121897469D01*
X178889608Y-121890908D01*
X178830853Y-121710080D01*
X178735786Y-121545420D01*
X178676560Y-121479642D01*
X178612984Y-121409034D01*
X178612983Y-121409033D01*
X178608562Y-121404123D01*
X178454741Y-121292365D01*
X178448713Y-121289681D01*
X178448711Y-121289680D01*
X178287076Y-121217716D01*
X178287075Y-121217716D01*
X178281045Y-121215031D01*
X178171809Y-121191812D01*
X178101524Y-121176872D01*
X178101520Y-121176872D01*
X178095067Y-121175500D01*
X177904933Y-121175500D01*
X177898480Y-121176872D01*
X177898476Y-121176872D01*
X177828191Y-121191812D01*
X177718955Y-121215031D01*
X177712925Y-121217716D01*
X177712924Y-121217716D01*
X177551289Y-121289680D01*
X177551287Y-121289681D01*
X177545259Y-121292365D01*
X177391438Y-121404123D01*
X177387017Y-121409033D01*
X177387016Y-121409034D01*
X177323441Y-121479642D01*
X177264214Y-121545420D01*
X177169147Y-121710080D01*
X177110392Y-121890908D01*
X177109702Y-121897469D01*
X177109702Y-121897471D01*
X177095471Y-122032875D01*
X177090518Y-122080000D01*
X150733289Y-122080000D01*
X150733289Y-122068435D01*
X150714806Y-121892576D01*
X150712076Y-121879735D01*
X150657433Y-121711561D01*
X150652095Y-121699572D01*
X150563681Y-121546435D01*
X150560096Y-121541501D01*
X150548796Y-121534540D01*
X150548720Y-121534541D01*
X150539434Y-121540171D01*
X150017417Y-122062188D01*
X150009803Y-122076132D01*
X149638961Y-122076132D01*
X149640197Y-122073868D01*
X149640066Y-122072035D01*
X149635815Y-122065420D01*
X149112615Y-121542220D01*
X149098671Y-121534606D01*
X149098595Y-121534611D01*
X149091309Y-121539568D01*
X149086319Y-121546435D01*
X148997905Y-121699572D01*
X148992567Y-121711561D01*
X148937924Y-121879735D01*
X148935194Y-121892576D01*
X148916711Y-122068435D01*
X148916711Y-122081565D01*
X141309032Y-122081565D01*
X141145250Y-122027875D01*
X141145245Y-122027874D01*
X141140908Y-122026452D01*
X141071676Y-122014431D01*
X140875952Y-121980447D01*
X140875944Y-121980446D01*
X140872171Y-121979791D01*
X140861385Y-121979254D01*
X140787549Y-121975578D01*
X140787541Y-121975578D01*
X140785978Y-121975500D01*
X140615718Y-121975500D01*
X140613450Y-121975665D01*
X140613438Y-121975665D01*
X140487669Y-121984791D01*
X140412957Y-121990212D01*
X140408502Y-121991196D01*
X140408499Y-121991196D01*
X140151073Y-122048030D01*
X140151069Y-122048031D01*
X140146613Y-122049015D01*
X140111844Y-122062188D01*
X139895817Y-122144033D01*
X139895814Y-122144034D01*
X139891547Y-122145651D01*
X139878554Y-122152868D01*
X139669311Y-122269092D01*
X139653102Y-122278095D01*
X139436275Y-122443573D01*
X139433082Y-122446839D01*
X139433080Y-122446841D01*
X139248800Y-122635350D01*
X139248796Y-122635355D01*
X139245606Y-122638618D01*
X139242919Y-122642310D01*
X139242917Y-122642312D01*
X139139323Y-122784636D01*
X139085090Y-122859144D01*
X138958090Y-123100531D01*
X138956571Y-123104832D01*
X138956569Y-123104837D01*
X138918088Y-123213807D01*
X138867266Y-123357724D01*
X138865400Y-123367190D01*
X138823210Y-123581246D01*
X138814520Y-123625334D01*
X138814293Y-123629887D01*
X138814293Y-123629890D01*
X138802667Y-123863432D01*
X138800958Y-123897755D01*
X135254000Y-123897755D01*
X135254000Y-120055000D01*
X142315518Y-120055000D01*
X142316208Y-120061565D01*
X142328472Y-120178247D01*
X142335392Y-120244092D01*
X142394147Y-120424920D01*
X142489214Y-120589580D01*
X142493632Y-120594487D01*
X142493633Y-120594488D01*
X142607249Y-120720672D01*
X142616438Y-120730877D01*
X142770259Y-120842635D01*
X142776287Y-120845319D01*
X142776289Y-120845320D01*
X142937924Y-120917284D01*
X142943955Y-120919969D01*
X143036944Y-120939735D01*
X143123476Y-120958128D01*
X143123480Y-120958128D01*
X143129933Y-120959500D01*
X143320067Y-120959500D01*
X143326520Y-120958128D01*
X143326524Y-120958128D01*
X143413056Y-120939735D01*
X143506045Y-120919969D01*
X143512076Y-120917284D01*
X143673711Y-120845320D01*
X143673713Y-120845319D01*
X143679741Y-120842635D01*
X143833562Y-120730877D01*
X143845709Y-120717387D01*
X143908677Y-120647453D01*
X143956680Y-120594141D01*
X144017125Y-120556901D01*
X144088108Y-120558253D01*
X144147093Y-120597766D01*
X144175351Y-120662897D01*
X144170148Y-120717387D01*
X144115392Y-120885908D01*
X144114702Y-120892469D01*
X144114702Y-120892471D01*
X144107657Y-120959500D01*
X144095518Y-121075000D01*
X144096208Y-121081565D01*
X144110236Y-121215031D01*
X144115392Y-121264092D01*
X144174147Y-121444920D01*
X144269214Y-121609580D01*
X144273632Y-121614487D01*
X144273633Y-121614488D01*
X144387820Y-121741306D01*
X144396438Y-121750877D01*
X144550259Y-121862635D01*
X144556287Y-121865319D01*
X144556289Y-121865320D01*
X144628502Y-121897471D01*
X144723955Y-121939969D01*
X144816944Y-121959735D01*
X144903476Y-121978128D01*
X144903480Y-121978128D01*
X144909933Y-121979500D01*
X145100067Y-121979500D01*
X145106520Y-121978128D01*
X145106524Y-121978128D01*
X145193056Y-121959735D01*
X145286045Y-121939969D01*
X145381498Y-121897471D01*
X145453711Y-121865320D01*
X145453713Y-121865319D01*
X145459741Y-121862635D01*
X145613562Y-121750877D01*
X145622180Y-121741306D01*
X145736367Y-121614488D01*
X145736368Y-121614487D01*
X145740786Y-121609580D01*
X145835853Y-121444920D01*
X145865881Y-121352505D01*
X149288066Y-121352505D01*
X149294969Y-121365364D01*
X149812188Y-121882583D01*
X149826132Y-121890197D01*
X149827965Y-121890066D01*
X149834580Y-121885815D01*
X150355355Y-121365040D01*
X150361968Y-121352930D01*
X150353137Y-121341308D01*
X150284836Y-121291685D01*
X150273456Y-121285114D01*
X150111925Y-121213197D01*
X150099425Y-121209136D01*
X150056444Y-121200000D01*
X168240715Y-121200000D01*
X168241793Y-121208188D01*
X168251921Y-121285116D01*
X168259772Y-121344754D01*
X168262931Y-121352380D01*
X168301263Y-121444920D01*
X168315645Y-121479642D01*
X168404526Y-121595474D01*
X168411076Y-121600500D01*
X168411079Y-121600503D01*
X168429305Y-121614488D01*
X168520357Y-121684355D01*
X168655246Y-121740228D01*
X168800000Y-121759285D01*
X168808188Y-121758207D01*
X168936566Y-121741306D01*
X168944754Y-121740228D01*
X169079643Y-121684355D01*
X169170695Y-121614488D01*
X169188921Y-121600503D01*
X169188924Y-121600500D01*
X169195474Y-121595474D01*
X169284355Y-121479642D01*
X169298738Y-121444920D01*
X169337069Y-121352380D01*
X169340228Y-121344754D01*
X169348080Y-121285116D01*
X169358207Y-121208188D01*
X169359285Y-121200000D01*
X169342829Y-121075000D01*
X169341306Y-121063432D01*
X169341305Y-121063430D01*
X169340228Y-121055246D01*
X169320422Y-121007430D01*
X169287515Y-120927986D01*
X169287514Y-120927984D01*
X169284355Y-120920358D01*
X169195474Y-120804526D01*
X169188924Y-120799500D01*
X169188921Y-120799497D01*
X169086196Y-120720673D01*
X169086194Y-120720672D01*
X169079643Y-120715645D01*
X168944754Y-120659772D01*
X168800000Y-120640715D01*
X168791812Y-120641793D01*
X168663432Y-120658694D01*
X168663430Y-120658695D01*
X168655246Y-120659772D01*
X168607430Y-120679578D01*
X168527986Y-120712485D01*
X168527984Y-120712486D01*
X168520358Y-120715645D01*
X168404526Y-120804526D01*
X168315645Y-120920358D01*
X168312486Y-120927984D01*
X168312485Y-120927986D01*
X168279578Y-121007430D01*
X168259772Y-121055246D01*
X168258695Y-121063430D01*
X168258694Y-121063432D01*
X168257171Y-121075000D01*
X168240715Y-121200000D01*
X150056444Y-121200000D01*
X149926472Y-121172373D01*
X149913414Y-121171000D01*
X149736586Y-121171000D01*
X149723528Y-121172373D01*
X149550568Y-121209137D01*
X149538082Y-121213194D01*
X149376541Y-121285116D01*
X149365169Y-121291682D01*
X149296490Y-121341581D01*
X149288066Y-121352505D01*
X145865881Y-121352505D01*
X145894608Y-121264092D01*
X145899765Y-121215031D01*
X145913792Y-121081565D01*
X145914482Y-121075000D01*
X145902343Y-120959500D01*
X145895298Y-120892471D01*
X145895298Y-120892469D01*
X145894608Y-120885908D01*
X145835853Y-120705080D01*
X145825396Y-120686967D01*
X145744087Y-120546138D01*
X145740786Y-120540420D01*
X145625709Y-120412613D01*
X145617984Y-120404034D01*
X145617983Y-120404033D01*
X145613562Y-120399123D01*
X145459741Y-120287365D01*
X145453713Y-120284681D01*
X145453711Y-120284680D01*
X145292076Y-120212716D01*
X145292075Y-120212716D01*
X145286045Y-120210031D01*
X145136514Y-120178247D01*
X145074041Y-120144518D01*
X145039719Y-120082369D01*
X145044447Y-120011530D01*
X145052993Y-120000000D01*
X161640715Y-120000000D01*
X161641793Y-120008188D01*
X161654123Y-120101842D01*
X161659772Y-120144754D01*
X161673008Y-120176709D01*
X161706197Y-120256832D01*
X161715645Y-120279642D01*
X161804526Y-120395474D01*
X161811076Y-120400500D01*
X161811079Y-120400503D01*
X161913804Y-120479327D01*
X161920357Y-120484355D01*
X162055246Y-120540228D01*
X162200000Y-120559285D01*
X162208188Y-120558207D01*
X162336566Y-120541306D01*
X162344754Y-120540228D01*
X162479643Y-120484355D01*
X162486196Y-120479327D01*
X162588921Y-120400503D01*
X162588924Y-120400500D01*
X162595474Y-120395474D01*
X162684355Y-120279642D01*
X162693804Y-120256832D01*
X162726992Y-120176709D01*
X162740228Y-120144754D01*
X162745878Y-120101842D01*
X162751386Y-120060000D01*
X181910518Y-120060000D01*
X181911208Y-120066565D01*
X181929177Y-120237529D01*
X181930392Y-120249092D01*
X181989147Y-120429920D01*
X182084214Y-120594580D01*
X182088632Y-120599487D01*
X182088633Y-120599488D01*
X182197747Y-120720672D01*
X182211438Y-120735877D01*
X182365259Y-120847635D01*
X182371287Y-120850319D01*
X182371289Y-120850320D01*
X182528598Y-120920358D01*
X182538955Y-120924969D01*
X182631944Y-120944735D01*
X182718476Y-120963128D01*
X182718480Y-120963128D01*
X182724933Y-120964500D01*
X182915067Y-120964500D01*
X182921520Y-120963128D01*
X182921524Y-120963128D01*
X183008056Y-120944735D01*
X183101045Y-120924969D01*
X183111402Y-120920358D01*
X183268711Y-120850320D01*
X183268713Y-120850319D01*
X183274741Y-120847635D01*
X183428562Y-120735877D01*
X183475867Y-120683340D01*
X183536309Y-120646102D01*
X183607293Y-120647453D01*
X183666278Y-120686967D01*
X183694536Y-120752097D01*
X183695500Y-120767652D01*
X183695501Y-121264092D01*
X183695501Y-121755066D01*
X183710266Y-121829301D01*
X183717161Y-121839620D01*
X183717162Y-121839622D01*
X183755816Y-121897471D01*
X183766516Y-121913484D01*
X183850699Y-121969734D01*
X183924933Y-121984500D01*
X184599890Y-121984500D01*
X185275066Y-121984499D01*
X185310818Y-121977388D01*
X185337126Y-121972156D01*
X185337128Y-121972155D01*
X185349301Y-121969734D01*
X185359621Y-121962839D01*
X185359622Y-121962838D01*
X185423168Y-121920377D01*
X185433484Y-121913484D01*
X185489734Y-121829301D01*
X185504500Y-121755067D01*
X185504499Y-120404934D01*
X185489734Y-120330699D01*
X185450522Y-120272014D01*
X185440377Y-120256832D01*
X185433484Y-120246516D01*
X185349301Y-120190266D01*
X185275067Y-120175500D01*
X184807107Y-120175500D01*
X184738986Y-120155498D01*
X184692493Y-120101842D01*
X184682389Y-120031568D01*
X184711883Y-119966988D01*
X184771609Y-119928604D01*
X184780905Y-119926254D01*
X184820487Y-119917841D01*
X184874587Y-119906342D01*
X184874590Y-119906341D01*
X184881045Y-119904969D01*
X184889194Y-119901341D01*
X185048711Y-119830320D01*
X185048713Y-119830319D01*
X185054741Y-119827635D01*
X185208562Y-119715877D01*
X185217486Y-119705966D01*
X185331367Y-119579488D01*
X185331368Y-119579487D01*
X185335786Y-119574580D01*
X185412451Y-119441793D01*
X185427549Y-119415643D01*
X185427550Y-119415642D01*
X185430853Y-119409920D01*
X185489608Y-119229092D01*
X185490824Y-119217529D01*
X185508792Y-119046565D01*
X185509482Y-119040000D01*
X185500885Y-118958207D01*
X185490298Y-118857471D01*
X185490298Y-118857469D01*
X185489608Y-118850908D01*
X185430853Y-118670080D01*
X185335786Y-118505420D01*
X185220709Y-118377613D01*
X185212984Y-118369034D01*
X185212983Y-118369033D01*
X185208562Y-118364123D01*
X185110038Y-118292541D01*
X185060083Y-118256246D01*
X185060082Y-118256245D01*
X185054741Y-118252365D01*
X185048713Y-118249681D01*
X185048711Y-118249680D01*
X184887076Y-118177716D01*
X184887075Y-118177716D01*
X184881045Y-118175031D01*
X184731514Y-118143247D01*
X184669041Y-118109518D01*
X184634719Y-118047369D01*
X184639447Y-117976530D01*
X184681723Y-117919492D01*
X184731514Y-117896753D01*
X184755037Y-117891753D01*
X184881045Y-117864969D01*
X184889194Y-117861341D01*
X185048711Y-117790320D01*
X185048713Y-117790319D01*
X185054741Y-117787635D01*
X185208562Y-117675877D01*
X185217486Y-117665966D01*
X185331367Y-117539488D01*
X185331368Y-117539487D01*
X185335786Y-117534580D01*
X185430853Y-117369920D01*
X185489608Y-117189092D01*
X185490824Y-117177529D01*
X185508792Y-117006565D01*
X185509482Y-117000000D01*
X185501145Y-116920673D01*
X185490298Y-116817471D01*
X185490298Y-116817469D01*
X185489608Y-116810908D01*
X185430853Y-116630080D01*
X185335786Y-116465420D01*
X185220709Y-116337613D01*
X185212984Y-116329034D01*
X185212983Y-116329033D01*
X185208562Y-116324123D01*
X185054741Y-116212365D01*
X185048713Y-116209681D01*
X185048711Y-116209680D01*
X184887076Y-116137716D01*
X184887075Y-116137716D01*
X184881045Y-116135031D01*
X184730307Y-116102991D01*
X184667835Y-116069263D01*
X184633513Y-116007113D01*
X184638241Y-115936274D01*
X184680517Y-115879236D01*
X184730307Y-115856498D01*
X184874427Y-115825864D01*
X184886925Y-115821803D01*
X185048456Y-115749886D01*
X185059836Y-115743315D01*
X185128509Y-115693422D01*
X185136934Y-115682495D01*
X185130031Y-115669636D01*
X184612812Y-115152417D01*
X184598868Y-115144803D01*
X184597035Y-115144934D01*
X184590420Y-115149185D01*
X184069645Y-115669960D01*
X184063032Y-115682070D01*
X184071863Y-115693692D01*
X184140164Y-115743315D01*
X184151544Y-115749886D01*
X184313075Y-115821803D01*
X184325573Y-115825864D01*
X184469693Y-115856498D01*
X184532166Y-115890226D01*
X184566487Y-115952376D01*
X184561759Y-116023215D01*
X184519483Y-116080252D01*
X184469693Y-116102991D01*
X184318955Y-116135031D01*
X184312925Y-116137716D01*
X184312924Y-116137716D01*
X184151289Y-116209680D01*
X184151287Y-116209681D01*
X184145259Y-116212365D01*
X183991438Y-116324123D01*
X183987017Y-116329033D01*
X183987016Y-116329034D01*
X183868321Y-116460859D01*
X183807875Y-116498099D01*
X183736892Y-116496747D01*
X183677907Y-116457234D01*
X183649649Y-116392103D01*
X183654852Y-116337613D01*
X183707568Y-116175370D01*
X183709608Y-116169092D01*
X183710824Y-116157529D01*
X183728792Y-115986565D01*
X183729482Y-115980000D01*
X183719548Y-115885482D01*
X183710298Y-115797471D01*
X183710298Y-115797469D01*
X183709608Y-115790908D01*
X183654472Y-115621218D01*
X183652444Y-115550251D01*
X183689107Y-115489453D01*
X183752819Y-115458127D01*
X183823353Y-115466220D01*
X183846993Y-115483054D01*
X183847256Y-115482627D01*
X183876204Y-115500460D01*
X183876280Y-115500459D01*
X183885566Y-115494829D01*
X184407583Y-114972812D01*
X184413961Y-114961132D01*
X184784803Y-114961132D01*
X184784934Y-114962965D01*
X184789185Y-114969580D01*
X185312385Y-115492780D01*
X185326329Y-115500394D01*
X185326405Y-115500389D01*
X185333691Y-115495432D01*
X185338681Y-115488565D01*
X185427095Y-115335428D01*
X185432433Y-115323439D01*
X185487076Y-115155265D01*
X185489806Y-115142424D01*
X185508289Y-114966565D01*
X185508289Y-114953435D01*
X185489806Y-114777576D01*
X185487076Y-114764735D01*
X185432433Y-114596561D01*
X185427095Y-114584572D01*
X185338681Y-114431435D01*
X185335096Y-114426501D01*
X185323796Y-114419540D01*
X185323720Y-114419541D01*
X185314434Y-114425171D01*
X184792417Y-114947188D01*
X184784803Y-114961132D01*
X184413961Y-114961132D01*
X184415197Y-114958868D01*
X184415066Y-114957035D01*
X184410815Y-114950420D01*
X183887615Y-114427220D01*
X183873671Y-114419606D01*
X183873595Y-114419611D01*
X183852039Y-114434275D01*
X183850865Y-114432549D01*
X183807494Y-114459268D01*
X183736510Y-114457916D01*
X183677526Y-114418402D01*
X183649269Y-114353271D01*
X183654472Y-114298782D01*
X183674382Y-114237505D01*
X184063066Y-114237505D01*
X184069969Y-114250364D01*
X184587188Y-114767583D01*
X184601132Y-114775197D01*
X184602965Y-114775066D01*
X184609580Y-114770815D01*
X185130355Y-114250040D01*
X185136968Y-114237930D01*
X185128137Y-114226308D01*
X185059836Y-114176685D01*
X185048456Y-114170114D01*
X184886925Y-114098197D01*
X184874425Y-114094136D01*
X184701472Y-114057373D01*
X184688414Y-114056000D01*
X184511586Y-114056000D01*
X184498528Y-114057373D01*
X184325568Y-114094137D01*
X184313082Y-114098194D01*
X184151541Y-114170116D01*
X184140169Y-114176682D01*
X184071490Y-114226581D01*
X184063066Y-114237505D01*
X183674382Y-114237505D01*
X183707568Y-114135370D01*
X183709608Y-114129092D01*
X183712856Y-114098194D01*
X183728792Y-113946565D01*
X183729482Y-113940000D01*
X183718775Y-113838128D01*
X183710298Y-113757471D01*
X183710298Y-113757469D01*
X183709608Y-113750908D01*
X183650853Y-113570080D01*
X183555786Y-113405420D01*
X183428562Y-113264123D01*
X183274741Y-113152365D01*
X183268713Y-113149681D01*
X183268711Y-113149680D01*
X183107076Y-113077716D01*
X183107075Y-113077716D01*
X183101045Y-113075031D01*
X183008056Y-113055266D01*
X182921524Y-113036872D01*
X182921520Y-113036872D01*
X182915067Y-113035500D01*
X182724933Y-113035500D01*
X182718480Y-113036872D01*
X182718476Y-113036872D01*
X182631944Y-113055265D01*
X182538955Y-113075031D01*
X182532925Y-113077716D01*
X182532924Y-113077716D01*
X182371289Y-113149680D01*
X182371287Y-113149681D01*
X182365259Y-113152365D01*
X182211438Y-113264123D01*
X182084214Y-113405420D01*
X181989147Y-113570080D01*
X181930392Y-113750908D01*
X181929702Y-113757469D01*
X181929702Y-113757471D01*
X181921225Y-113838128D01*
X181910518Y-113940000D01*
X181911208Y-113946565D01*
X181927145Y-114098194D01*
X181930392Y-114129092D01*
X181989147Y-114309920D01*
X181992450Y-114315642D01*
X181992451Y-114315643D01*
X182014176Y-114353271D01*
X182084214Y-114474580D01*
X182088632Y-114479487D01*
X182088633Y-114479488D01*
X182200633Y-114603877D01*
X182211438Y-114615877D01*
X182288858Y-114672126D01*
X182355677Y-114720673D01*
X182365259Y-114727635D01*
X182371287Y-114730319D01*
X182371289Y-114730320D01*
X182526678Y-114799503D01*
X182538955Y-114804969D01*
X182631942Y-114824734D01*
X182688486Y-114836753D01*
X182750959Y-114870482D01*
X182785281Y-114932631D01*
X182780553Y-115003470D01*
X182738277Y-115060508D01*
X182688486Y-115083247D01*
X182668263Y-115087546D01*
X182538955Y-115115031D01*
X182532925Y-115117716D01*
X182532924Y-115117716D01*
X182371289Y-115189680D01*
X182371287Y-115189681D01*
X182365259Y-115192365D01*
X182359918Y-115196245D01*
X182359917Y-115196246D01*
X182335747Y-115213807D01*
X182211438Y-115304123D01*
X182207020Y-115309030D01*
X182207016Y-115309034D01*
X182198470Y-115318526D01*
X182084214Y-115445420D01*
X181989147Y-115610080D01*
X181930392Y-115790908D01*
X181929702Y-115797469D01*
X181929702Y-115797471D01*
X181920452Y-115885482D01*
X181910518Y-115980000D01*
X181911208Y-115986565D01*
X181929177Y-116157529D01*
X181930392Y-116169092D01*
X181989147Y-116349920D01*
X182084214Y-116514580D01*
X182088632Y-116519487D01*
X182088633Y-116519488D01*
X182202514Y-116645966D01*
X182211438Y-116655877D01*
X182365259Y-116767635D01*
X182371287Y-116770319D01*
X182371289Y-116770320D01*
X182532924Y-116842284D01*
X182538955Y-116844969D01*
X182664963Y-116871753D01*
X182688486Y-116876753D01*
X182750959Y-116910482D01*
X182785281Y-116972631D01*
X182780553Y-117043470D01*
X182738277Y-117100508D01*
X182688486Y-117123247D01*
X182538955Y-117155031D01*
X182532925Y-117157716D01*
X182532924Y-117157716D01*
X182371289Y-117229680D01*
X182371287Y-117229681D01*
X182365259Y-117232365D01*
X182211438Y-117344123D01*
X182207017Y-117349033D01*
X182207016Y-117349034D01*
X182199292Y-117357613D01*
X182084214Y-117485420D01*
X181989147Y-117650080D01*
X181930392Y-117830908D01*
X181929702Y-117837469D01*
X181929702Y-117837471D01*
X181919234Y-117937068D01*
X181910518Y-118020000D01*
X181911208Y-118026565D01*
X181929177Y-118197529D01*
X181930392Y-118209092D01*
X181989147Y-118389920D01*
X182084214Y-118554580D01*
X182088632Y-118559487D01*
X182088633Y-118559488D01*
X182206936Y-118690877D01*
X182211438Y-118695877D01*
X182309962Y-118767459D01*
X182355443Y-118800503D01*
X182365259Y-118807635D01*
X182371287Y-118810319D01*
X182371289Y-118810320D01*
X182530806Y-118881341D01*
X182538955Y-118884969D01*
X182664963Y-118911753D01*
X182688486Y-118916753D01*
X182750959Y-118950482D01*
X182785281Y-119012631D01*
X182780553Y-119083470D01*
X182738277Y-119140508D01*
X182688486Y-119163247D01*
X182538955Y-119195031D01*
X182532925Y-119197716D01*
X182532924Y-119197716D01*
X182371289Y-119269680D01*
X182371287Y-119269681D01*
X182365259Y-119272365D01*
X182211438Y-119384123D01*
X182207017Y-119389033D01*
X182207016Y-119389034D01*
X182143324Y-119459772D01*
X182084214Y-119525420D01*
X181989147Y-119690080D01*
X181930392Y-119870908D01*
X181929702Y-119877469D01*
X181929702Y-119877471D01*
X181924575Y-119926253D01*
X181910518Y-120060000D01*
X162751386Y-120060000D01*
X162758207Y-120008188D01*
X162759285Y-120000000D01*
X162749886Y-119928604D01*
X162741306Y-119863432D01*
X162741305Y-119863430D01*
X162740228Y-119855246D01*
X162684355Y-119720358D01*
X162639915Y-119662442D01*
X162600501Y-119611077D01*
X162600500Y-119611076D01*
X162595474Y-119604526D01*
X162588924Y-119599500D01*
X162588921Y-119599497D01*
X162486196Y-119520673D01*
X162486194Y-119520672D01*
X162479643Y-119515645D01*
X162344754Y-119459772D01*
X162200000Y-119440715D01*
X162191812Y-119441793D01*
X162063432Y-119458694D01*
X162063430Y-119458695D01*
X162055246Y-119459772D01*
X162046053Y-119463580D01*
X161927986Y-119512485D01*
X161927984Y-119512486D01*
X161920358Y-119515645D01*
X161804526Y-119604526D01*
X161799503Y-119611072D01*
X161780168Y-119636270D01*
X161715645Y-119720358D01*
X161659772Y-119855246D01*
X161658695Y-119863430D01*
X161658694Y-119863432D01*
X161650114Y-119928604D01*
X161640715Y-120000000D01*
X145052993Y-120000000D01*
X145086723Y-119954492D01*
X145136514Y-119931753D01*
X145156737Y-119927454D01*
X145286045Y-119899969D01*
X145347807Y-119872471D01*
X145453711Y-119825320D01*
X145453713Y-119825319D01*
X145459741Y-119822635D01*
X145613562Y-119710877D01*
X145617984Y-119705966D01*
X145736367Y-119574488D01*
X145736368Y-119574487D01*
X145740786Y-119569580D01*
X145835853Y-119404920D01*
X145894608Y-119224092D01*
X145897663Y-119195031D01*
X145913792Y-119041565D01*
X145914482Y-119035000D01*
X145905599Y-118950482D01*
X145895298Y-118852471D01*
X145895298Y-118852469D01*
X145894608Y-118845908D01*
X145835853Y-118665080D01*
X145740786Y-118500420D01*
X145650368Y-118400000D01*
X161640715Y-118400000D01*
X161641793Y-118408188D01*
X161658238Y-118533099D01*
X161659772Y-118544754D01*
X161662931Y-118552380D01*
X161712217Y-118671365D01*
X161715645Y-118679642D01*
X161804526Y-118795474D01*
X161811076Y-118800500D01*
X161811079Y-118800503D01*
X161870252Y-118845908D01*
X161920357Y-118884355D01*
X162055246Y-118940228D01*
X162063434Y-118941306D01*
X162127623Y-118949756D01*
X162200000Y-118959285D01*
X162208188Y-118958207D01*
X162336566Y-118941306D01*
X162344754Y-118940228D01*
X162479643Y-118884355D01*
X162529748Y-118845908D01*
X162588921Y-118800503D01*
X162588924Y-118800500D01*
X162595474Y-118795474D01*
X162684355Y-118679642D01*
X162687784Y-118671365D01*
X162737069Y-118552380D01*
X162740228Y-118544754D01*
X162741763Y-118533099D01*
X162758207Y-118408188D01*
X162759285Y-118400000D01*
X162740228Y-118255246D01*
X162706043Y-118172716D01*
X162687515Y-118127986D01*
X162687514Y-118127984D01*
X162684355Y-118120358D01*
X162612385Y-118026565D01*
X162600501Y-118011077D01*
X162600500Y-118011076D01*
X162595474Y-118004526D01*
X162588924Y-117999500D01*
X162588921Y-117999497D01*
X162486196Y-117920673D01*
X162486194Y-117920672D01*
X162479643Y-117915645D01*
X162344754Y-117859772D01*
X162200000Y-117840715D01*
X162191812Y-117841793D01*
X162063432Y-117858694D01*
X162063430Y-117858695D01*
X162055246Y-117859772D01*
X162008037Y-117879327D01*
X161927986Y-117912485D01*
X161927984Y-117912486D01*
X161920358Y-117915645D01*
X161804526Y-118004526D01*
X161799503Y-118011072D01*
X161787615Y-118026565D01*
X161715645Y-118120358D01*
X161712486Y-118127984D01*
X161712485Y-118127986D01*
X161693957Y-118172716D01*
X161659772Y-118255246D01*
X161640715Y-118400000D01*
X145650368Y-118400000D01*
X145630211Y-118377613D01*
X145617984Y-118364034D01*
X145617983Y-118364033D01*
X145613562Y-118359123D01*
X145459741Y-118247365D01*
X145453713Y-118244681D01*
X145453711Y-118244680D01*
X145292076Y-118172716D01*
X145292075Y-118172716D01*
X145286045Y-118170031D01*
X145136514Y-118138247D01*
X145074041Y-118104518D01*
X145039719Y-118042369D01*
X145044447Y-117971530D01*
X145086723Y-117914492D01*
X145136514Y-117891753D01*
X145171318Y-117884355D01*
X145286045Y-117859969D01*
X145292076Y-117857284D01*
X145453711Y-117785320D01*
X145453713Y-117785319D01*
X145459741Y-117782635D01*
X145613562Y-117670877D01*
X145617984Y-117665966D01*
X145736367Y-117534488D01*
X145736368Y-117534487D01*
X145740786Y-117529580D01*
X145810872Y-117408188D01*
X145815599Y-117400000D01*
X164840715Y-117400000D01*
X164841793Y-117408188D01*
X164858433Y-117534580D01*
X164859772Y-117544754D01*
X164862931Y-117552380D01*
X164908498Y-117662387D01*
X164915645Y-117679642D01*
X164920672Y-117686193D01*
X164996735Y-117785320D01*
X165004526Y-117795474D01*
X165011076Y-117800500D01*
X165011079Y-117800503D01*
X165113804Y-117879327D01*
X165120357Y-117884355D01*
X165255246Y-117940228D01*
X165400000Y-117959285D01*
X165408188Y-117958207D01*
X165536566Y-117941306D01*
X165544754Y-117940228D01*
X165679643Y-117884355D01*
X165686196Y-117879327D01*
X165788921Y-117800503D01*
X165788924Y-117800500D01*
X165795474Y-117795474D01*
X165803266Y-117785320D01*
X165879328Y-117686193D01*
X165884355Y-117679642D01*
X165891503Y-117662387D01*
X165937069Y-117552380D01*
X165940228Y-117544754D01*
X165941568Y-117534580D01*
X165958207Y-117408188D01*
X165959285Y-117400000D01*
X165953705Y-117357613D01*
X165941306Y-117263432D01*
X165941305Y-117263430D01*
X165940228Y-117255246D01*
X165908036Y-117177529D01*
X165887515Y-117127986D01*
X165887514Y-117127984D01*
X165884355Y-117120358D01*
X165813002Y-117027369D01*
X165800501Y-117011077D01*
X165800500Y-117011076D01*
X165795474Y-117004526D01*
X165788924Y-116999500D01*
X165788921Y-116999497D01*
X165686196Y-116920673D01*
X165686194Y-116920672D01*
X165679643Y-116915645D01*
X165544754Y-116859772D01*
X165400000Y-116840715D01*
X165391812Y-116841793D01*
X165263432Y-116858694D01*
X165263430Y-116858695D01*
X165255246Y-116859772D01*
X165226322Y-116871753D01*
X165127986Y-116912485D01*
X165127984Y-116912486D01*
X165120358Y-116915645D01*
X165107511Y-116925503D01*
X165016941Y-116995000D01*
X165004526Y-117004526D01*
X164915645Y-117120358D01*
X164912486Y-117127984D01*
X164912485Y-117127986D01*
X164891964Y-117177529D01*
X164859772Y-117255246D01*
X164858695Y-117263430D01*
X164858694Y-117263432D01*
X164846295Y-117357613D01*
X164840715Y-117400000D01*
X145815599Y-117400000D01*
X145832549Y-117370643D01*
X145832550Y-117370642D01*
X145835853Y-117364920D01*
X145894608Y-117184092D01*
X145897663Y-117155031D01*
X145913792Y-117001565D01*
X145914482Y-116995000D01*
X145905961Y-116913923D01*
X145895298Y-116812471D01*
X145895298Y-116812469D01*
X145894608Y-116805908D01*
X145835853Y-116625080D01*
X145778071Y-116525000D01*
X162515715Y-116525000D01*
X162516793Y-116533188D01*
X162532299Y-116650966D01*
X162534772Y-116669754D01*
X162590645Y-116804642D01*
X162600489Y-116817471D01*
X162648086Y-116879500D01*
X162679526Y-116920474D01*
X162686076Y-116925500D01*
X162686079Y-116925503D01*
X162783165Y-117000000D01*
X162795357Y-117009355D01*
X162930246Y-117065228D01*
X163075000Y-117084285D01*
X163083188Y-117083207D01*
X163211566Y-117066306D01*
X163219754Y-117065228D01*
X163354643Y-117009355D01*
X163366835Y-117000000D01*
X163463921Y-116925503D01*
X163463924Y-116925500D01*
X163470474Y-116920474D01*
X163501915Y-116879500D01*
X163549511Y-116817471D01*
X163559355Y-116804642D01*
X163615228Y-116669754D01*
X163617702Y-116650966D01*
X163633207Y-116533188D01*
X163634285Y-116525000D01*
X163615228Y-116380246D01*
X163591944Y-116324034D01*
X163562515Y-116252986D01*
X163562514Y-116252984D01*
X163559355Y-116245358D01*
X163500834Y-116169092D01*
X163475501Y-116136077D01*
X163475500Y-116136076D01*
X163470474Y-116129526D01*
X163463924Y-116124500D01*
X163463921Y-116124497D01*
X163361196Y-116045673D01*
X163361194Y-116045672D01*
X163354643Y-116040645D01*
X163219754Y-115984772D01*
X163075000Y-115965715D01*
X163066812Y-115966793D01*
X162938432Y-115983694D01*
X162938430Y-115983695D01*
X162930246Y-115984772D01*
X162887764Y-116002369D01*
X162802986Y-116037485D01*
X162802984Y-116037486D01*
X162795358Y-116040645D01*
X162679526Y-116129526D01*
X162590645Y-116245358D01*
X162587486Y-116252984D01*
X162587485Y-116252986D01*
X162558056Y-116324034D01*
X162534772Y-116380246D01*
X162515715Y-116525000D01*
X145778071Y-116525000D01*
X145740786Y-116460420D01*
X145630211Y-116337613D01*
X145617984Y-116324034D01*
X145617983Y-116324033D01*
X145613562Y-116319123D01*
X145459741Y-116207365D01*
X145453713Y-116204681D01*
X145453711Y-116204680D01*
X145292076Y-116132716D01*
X145292075Y-116132716D01*
X145286045Y-116130031D01*
X145136514Y-116098247D01*
X145074041Y-116064518D01*
X145039719Y-116002369D01*
X145044447Y-115931530D01*
X145086723Y-115874492D01*
X145136514Y-115851753D01*
X145156737Y-115847454D01*
X145286045Y-115819969D01*
X145347807Y-115792471D01*
X145453711Y-115745320D01*
X145453713Y-115745319D01*
X145459741Y-115742635D01*
X145467404Y-115737068D01*
X145543101Y-115682070D01*
X145613562Y-115630877D01*
X145622259Y-115621218D01*
X145731404Y-115500000D01*
X164440715Y-115500000D01*
X164441793Y-115508188D01*
X164457299Y-115625966D01*
X164459772Y-115644754D01*
X164462931Y-115652380D01*
X164507213Y-115759285D01*
X164515645Y-115779642D01*
X164604526Y-115895474D01*
X164611076Y-115900500D01*
X164611079Y-115900503D01*
X164708165Y-115975000D01*
X164720357Y-115984355D01*
X164855246Y-116040228D01*
X165000000Y-116059285D01*
X165008188Y-116058207D01*
X165136566Y-116041306D01*
X165144754Y-116040228D01*
X165279643Y-115984355D01*
X165291835Y-115975000D01*
X165388921Y-115900503D01*
X165388924Y-115900500D01*
X165395474Y-115895474D01*
X165484355Y-115779642D01*
X165492788Y-115759285D01*
X165537069Y-115652380D01*
X165540228Y-115644754D01*
X165542702Y-115625966D01*
X165558207Y-115508188D01*
X165559285Y-115500000D01*
X165554838Y-115466220D01*
X165541306Y-115363432D01*
X165541305Y-115363430D01*
X165540228Y-115355246D01*
X165516981Y-115299123D01*
X165487515Y-115227986D01*
X165487514Y-115227984D01*
X165484355Y-115220358D01*
X165468734Y-115200000D01*
X167640715Y-115200000D01*
X167641793Y-115208188D01*
X167655541Y-115312613D01*
X167659772Y-115344754D01*
X167662931Y-115352380D01*
X167710662Y-115467611D01*
X167715645Y-115479642D01*
X167804526Y-115595474D01*
X167811076Y-115600500D01*
X167811079Y-115600503D01*
X167901597Y-115669960D01*
X167920357Y-115684355D01*
X168055246Y-115740228D01*
X168200000Y-115759285D01*
X168208188Y-115758207D01*
X168336566Y-115741306D01*
X168344754Y-115740228D01*
X168479643Y-115684355D01*
X168498403Y-115669960D01*
X168588921Y-115600503D01*
X168588924Y-115600500D01*
X168595474Y-115595474D01*
X168684355Y-115479642D01*
X168689339Y-115467611D01*
X168737069Y-115352380D01*
X168740228Y-115344754D01*
X168744460Y-115312613D01*
X168758207Y-115208188D01*
X168759285Y-115200000D01*
X168747578Y-115111072D01*
X168741306Y-115063432D01*
X168741305Y-115063430D01*
X168740228Y-115055246D01*
X168710481Y-114983432D01*
X168687515Y-114927986D01*
X168687514Y-114927984D01*
X168684355Y-114920358D01*
X168622590Y-114839864D01*
X168600501Y-114811077D01*
X168600500Y-114811076D01*
X168595474Y-114804526D01*
X168588924Y-114799500D01*
X168588921Y-114799497D01*
X168486196Y-114720673D01*
X168486194Y-114720672D01*
X168479643Y-114715645D01*
X168344754Y-114659772D01*
X168200000Y-114640715D01*
X168191812Y-114641793D01*
X168063432Y-114658694D01*
X168063430Y-114658695D01*
X168055246Y-114659772D01*
X168025421Y-114672126D01*
X167927986Y-114712485D01*
X167927984Y-114712486D01*
X167920358Y-114715645D01*
X167804526Y-114804526D01*
X167715645Y-114920358D01*
X167712486Y-114927984D01*
X167712485Y-114927986D01*
X167689519Y-114983432D01*
X167659772Y-115055246D01*
X167658695Y-115063430D01*
X167658694Y-115063432D01*
X167652422Y-115111072D01*
X167640715Y-115200000D01*
X165468734Y-115200000D01*
X165402482Y-115113659D01*
X165400501Y-115111077D01*
X165400500Y-115111076D01*
X165395474Y-115104526D01*
X165388924Y-115099500D01*
X165388921Y-115099497D01*
X165286196Y-115020673D01*
X165286194Y-115020672D01*
X165279643Y-115015645D01*
X165144754Y-114959772D01*
X165000000Y-114940715D01*
X164991812Y-114941793D01*
X164863432Y-114958694D01*
X164863430Y-114958695D01*
X164855246Y-114959772D01*
X164831568Y-114969580D01*
X164727986Y-115012485D01*
X164727984Y-115012486D01*
X164720358Y-115015645D01*
X164604526Y-115104526D01*
X164515645Y-115220358D01*
X164512486Y-115227984D01*
X164512485Y-115227986D01*
X164483019Y-115299123D01*
X164459772Y-115355246D01*
X164458695Y-115363430D01*
X164458694Y-115363432D01*
X164445162Y-115466220D01*
X164440715Y-115500000D01*
X145731404Y-115500000D01*
X145736367Y-115494488D01*
X145736368Y-115494487D01*
X145740786Y-115489580D01*
X145835853Y-115324920D01*
X145894608Y-115144092D01*
X145897663Y-115115031D01*
X145913792Y-114961565D01*
X145914482Y-114955000D01*
X145900066Y-114817839D01*
X145895298Y-114772471D01*
X145895298Y-114772469D01*
X145894608Y-114765908D01*
X145835853Y-114585080D01*
X145740786Y-114420420D01*
X145632360Y-114300000D01*
X172540715Y-114300000D01*
X172541793Y-114308188D01*
X172558019Y-114431435D01*
X172559772Y-114444754D01*
X172615645Y-114579642D01*
X172632397Y-114601474D01*
X172695953Y-114684301D01*
X172704526Y-114695474D01*
X172711076Y-114700500D01*
X172711079Y-114700503D01*
X172813804Y-114779327D01*
X172820357Y-114784355D01*
X172955246Y-114840228D01*
X173100000Y-114859285D01*
X173108188Y-114858207D01*
X173236566Y-114841306D01*
X173244754Y-114840228D01*
X173379643Y-114784355D01*
X173386196Y-114779327D01*
X173488921Y-114700503D01*
X173488924Y-114700500D01*
X173495474Y-114695474D01*
X173504048Y-114684301D01*
X173567603Y-114601474D01*
X173584355Y-114579642D01*
X173640228Y-114444754D01*
X173641982Y-114431435D01*
X173658207Y-114308188D01*
X173659285Y-114300000D01*
X173652353Y-114247348D01*
X173641306Y-114163432D01*
X173641305Y-114163430D01*
X173640228Y-114155246D01*
X173613215Y-114090031D01*
X173587515Y-114027986D01*
X173587514Y-114027984D01*
X173584355Y-114020358D01*
X173495474Y-113904526D01*
X173488924Y-113899500D01*
X173488921Y-113899497D01*
X173386196Y-113820673D01*
X173386194Y-113820672D01*
X173379643Y-113815645D01*
X173244754Y-113759772D01*
X173100000Y-113740715D01*
X173091812Y-113741793D01*
X172963432Y-113758694D01*
X172963430Y-113758695D01*
X172955246Y-113759772D01*
X172907430Y-113779578D01*
X172827986Y-113812485D01*
X172827984Y-113812486D01*
X172820358Y-113815645D01*
X172704526Y-113904526D01*
X172615645Y-114020358D01*
X172612486Y-114027984D01*
X172612485Y-114027986D01*
X172586785Y-114090031D01*
X172559772Y-114155246D01*
X172558695Y-114163430D01*
X172558694Y-114163432D01*
X172547647Y-114247348D01*
X172540715Y-114300000D01*
X145632360Y-114300000D01*
X145613562Y-114279123D01*
X145459741Y-114167365D01*
X145453713Y-114164681D01*
X145453711Y-114164680D01*
X145292076Y-114092716D01*
X145292075Y-114092716D01*
X145286045Y-114090031D01*
X145193056Y-114070266D01*
X145106524Y-114051872D01*
X145106520Y-114051872D01*
X145100067Y-114050500D01*
X144909933Y-114050500D01*
X144903480Y-114051872D01*
X144903476Y-114051872D01*
X144816944Y-114070266D01*
X144723955Y-114090031D01*
X144717925Y-114092716D01*
X144717924Y-114092716D01*
X144556289Y-114164680D01*
X144556287Y-114164681D01*
X144550259Y-114167365D01*
X144396438Y-114279123D01*
X144349133Y-114331660D01*
X144288691Y-114368898D01*
X144217707Y-114367547D01*
X144158722Y-114328033D01*
X144130464Y-114262903D01*
X144129500Y-114247348D01*
X144129499Y-113266123D01*
X144129499Y-113259934D01*
X144117480Y-113199503D01*
X144117156Y-113197874D01*
X144117155Y-113197872D01*
X144114734Y-113185699D01*
X144058484Y-113101516D01*
X144000738Y-113062931D01*
X143984620Y-113052161D01*
X143974301Y-113045266D01*
X143900067Y-113030500D01*
X143225110Y-113030500D01*
X142549934Y-113030501D01*
X142517902Y-113036872D01*
X142487874Y-113042844D01*
X142487872Y-113042845D01*
X142475699Y-113045266D01*
X142465379Y-113052161D01*
X142465378Y-113052162D01*
X142449260Y-113062932D01*
X142391516Y-113101516D01*
X142335266Y-113185699D01*
X142320500Y-113259933D01*
X142320501Y-114610066D01*
X142326597Y-114640715D01*
X142331016Y-114662931D01*
X142335266Y-114684301D01*
X142342161Y-114694621D01*
X142342162Y-114694622D01*
X142359569Y-114720673D01*
X142391516Y-114768484D01*
X142475699Y-114824734D01*
X142549933Y-114839500D01*
X143017893Y-114839500D01*
X143086014Y-114859502D01*
X143132507Y-114913158D01*
X143142611Y-114983432D01*
X143113117Y-115048012D01*
X143053391Y-115086396D01*
X143044097Y-115088745D01*
X143004513Y-115097159D01*
X142950413Y-115108658D01*
X142950410Y-115108659D01*
X142943955Y-115110031D01*
X142937925Y-115112716D01*
X142937924Y-115112716D01*
X142776289Y-115184680D01*
X142776287Y-115184681D01*
X142770259Y-115187365D01*
X142616438Y-115299123D01*
X142612017Y-115304033D01*
X142612016Y-115304034D01*
X142598968Y-115318526D01*
X142489214Y-115440420D01*
X142394147Y-115605080D01*
X142335392Y-115785908D01*
X142334702Y-115792469D01*
X142334702Y-115792471D01*
X142324565Y-115888923D01*
X142315518Y-115975000D01*
X142316208Y-115981565D01*
X142332448Y-116136077D01*
X142335392Y-116164092D01*
X142394147Y-116344920D01*
X142397450Y-116350642D01*
X142397451Y-116350643D01*
X142418501Y-116387103D01*
X142489214Y-116509580D01*
X142493632Y-116514487D01*
X142493633Y-116514488D01*
X142612016Y-116645966D01*
X142616438Y-116650877D01*
X142770259Y-116762635D01*
X142776287Y-116765319D01*
X142776289Y-116765320D01*
X142882193Y-116812471D01*
X142943955Y-116839969D01*
X143051987Y-116862932D01*
X143093486Y-116871753D01*
X143155959Y-116905482D01*
X143190281Y-116967631D01*
X143185553Y-117038470D01*
X143143277Y-117095508D01*
X143093486Y-117118247D01*
X142943955Y-117150031D01*
X142937925Y-117152716D01*
X142937924Y-117152716D01*
X142776289Y-117224680D01*
X142776287Y-117224681D01*
X142770259Y-117227365D01*
X142764918Y-117231245D01*
X142764917Y-117231246D01*
X142731884Y-117255246D01*
X142616438Y-117339123D01*
X142612017Y-117344033D01*
X142612016Y-117344034D01*
X142599790Y-117357613D01*
X142489214Y-117480420D01*
X142394147Y-117645080D01*
X142335392Y-117825908D01*
X142334702Y-117832469D01*
X142334702Y-117832471D01*
X142324401Y-117930482D01*
X142315518Y-118015000D01*
X142316208Y-118021565D01*
X142332338Y-118175031D01*
X142335392Y-118204092D01*
X142394147Y-118384920D01*
X142489214Y-118549580D01*
X142493632Y-118554487D01*
X142493633Y-118554488D01*
X142612016Y-118685966D01*
X142616438Y-118690877D01*
X142770259Y-118802635D01*
X142776287Y-118805319D01*
X142776289Y-118805320D01*
X142882193Y-118852471D01*
X142943955Y-118879969D01*
X143073263Y-118907454D01*
X143093486Y-118911753D01*
X143155959Y-118945482D01*
X143190281Y-119007631D01*
X143185553Y-119078470D01*
X143143277Y-119135508D01*
X143093486Y-119158247D01*
X142943955Y-119190031D01*
X142937925Y-119192716D01*
X142937924Y-119192716D01*
X142776289Y-119264680D01*
X142776287Y-119264681D01*
X142770259Y-119267365D01*
X142616438Y-119379123D01*
X142612017Y-119384033D01*
X142612016Y-119384034D01*
X142543822Y-119459772D01*
X142489214Y-119520420D01*
X142394147Y-119685080D01*
X142335392Y-119865908D01*
X142334702Y-119872469D01*
X142334702Y-119872471D01*
X142324768Y-119966988D01*
X142315518Y-120055000D01*
X135254000Y-120055000D01*
X135254000Y-111197755D01*
X138800958Y-111197755D01*
X138826864Y-111469280D01*
X138827949Y-111473714D01*
X138827950Y-111473720D01*
X138872693Y-111656568D01*
X138891695Y-111734222D01*
X138893407Y-111738448D01*
X138893408Y-111738452D01*
X138966342Y-111918517D01*
X138994092Y-111987030D01*
X138996396Y-111990965D01*
X138996399Y-111990971D01*
X139092944Y-112155856D01*
X139131912Y-112222408D01*
X139169200Y-112269034D01*
X139278845Y-112406138D01*
X139302266Y-112435425D01*
X139501587Y-112621620D01*
X139512541Y-112629219D01*
X139721945Y-112774489D01*
X139721950Y-112774492D01*
X139725698Y-112777092D01*
X139729783Y-112779124D01*
X139729786Y-112779126D01*
X139965814Y-112896548D01*
X139969905Y-112898583D01*
X139974244Y-112900005D01*
X139974248Y-112900007D01*
X140224750Y-112982125D01*
X140224755Y-112982126D01*
X140229092Y-112983548D01*
X140257889Y-112988548D01*
X140494048Y-113029553D01*
X140494056Y-113029554D01*
X140497829Y-113030209D01*
X140508615Y-113030746D01*
X140582451Y-113034422D01*
X140582459Y-113034422D01*
X140584022Y-113034500D01*
X140754282Y-113034500D01*
X140756550Y-113034335D01*
X140756562Y-113034335D01*
X140901694Y-113023804D01*
X140957043Y-113019788D01*
X140961498Y-113018804D01*
X140961501Y-113018804D01*
X141218927Y-112961970D01*
X141218931Y-112961969D01*
X141223387Y-112960985D01*
X141291973Y-112935000D01*
X148915518Y-112935000D01*
X148916208Y-112941565D01*
X148930236Y-113075031D01*
X148935392Y-113124092D01*
X148994147Y-113304920D01*
X149089214Y-113469580D01*
X149216438Y-113610877D01*
X149370259Y-113722635D01*
X149376287Y-113725319D01*
X149376289Y-113725320D01*
X149460768Y-113762932D01*
X149543955Y-113799969D01*
X149636944Y-113819734D01*
X149723476Y-113838128D01*
X149723480Y-113838128D01*
X149729933Y-113839500D01*
X149920067Y-113839500D01*
X149926520Y-113838128D01*
X149926524Y-113838128D01*
X150013056Y-113819734D01*
X150106045Y-113799969D01*
X150189232Y-113762932D01*
X150273711Y-113725320D01*
X150273713Y-113725319D01*
X150279741Y-113722635D01*
X150433562Y-113610877D01*
X150443356Y-113600000D01*
X162540715Y-113600000D01*
X162541793Y-113608188D01*
X162557872Y-113730320D01*
X162559772Y-113744754D01*
X162562931Y-113752380D01*
X162601089Y-113844500D01*
X162615645Y-113879642D01*
X162704526Y-113995474D01*
X162711076Y-114000500D01*
X162711079Y-114000503D01*
X162813804Y-114079327D01*
X162820357Y-114084355D01*
X162955246Y-114140228D01*
X163100000Y-114159285D01*
X163108188Y-114158207D01*
X163130680Y-114155246D01*
X163244754Y-114140228D01*
X163379643Y-114084355D01*
X163386196Y-114079327D01*
X163488921Y-114000503D01*
X163488924Y-114000500D01*
X163495474Y-113995474D01*
X163584355Y-113879642D01*
X163598912Y-113844500D01*
X163637069Y-113752380D01*
X163640228Y-113744754D01*
X163642129Y-113730320D01*
X163658207Y-113608188D01*
X163659285Y-113600000D01*
X163654593Y-113564357D01*
X163641306Y-113463432D01*
X163641305Y-113463430D01*
X163640228Y-113455246D01*
X163584355Y-113320358D01*
X163495474Y-113204526D01*
X163488924Y-113199500D01*
X163488921Y-113199497D01*
X163386196Y-113120673D01*
X163386194Y-113120672D01*
X163379643Y-113115645D01*
X163244754Y-113059772D01*
X163100000Y-113040715D01*
X163083821Y-113042845D01*
X162963432Y-113058694D01*
X162963430Y-113058695D01*
X162955246Y-113059772D01*
X162921720Y-113073659D01*
X162827986Y-113112485D01*
X162827984Y-113112486D01*
X162820358Y-113115645D01*
X162704526Y-113204526D01*
X162615645Y-113320358D01*
X162559772Y-113455246D01*
X162558695Y-113463430D01*
X162558694Y-113463432D01*
X162545407Y-113564357D01*
X162540715Y-113600000D01*
X150443356Y-113600000D01*
X150560786Y-113469580D01*
X150655853Y-113304920D01*
X150714608Y-113124092D01*
X150719765Y-113075031D01*
X150733792Y-112941565D01*
X150733956Y-112940000D01*
X177090518Y-112940000D01*
X177091208Y-112946565D01*
X177109177Y-113117529D01*
X177110392Y-113129092D01*
X177169147Y-113309920D01*
X177264214Y-113474580D01*
X177391438Y-113615877D01*
X177545259Y-113727635D01*
X177551287Y-113730319D01*
X177551289Y-113730320D01*
X177710806Y-113801341D01*
X177718955Y-113804969D01*
X177811944Y-113824734D01*
X177898476Y-113843128D01*
X177898480Y-113843128D01*
X177904933Y-113844500D01*
X178095067Y-113844500D01*
X178101520Y-113843128D01*
X178101524Y-113843128D01*
X178188056Y-113824734D01*
X178281045Y-113804969D01*
X178289194Y-113801341D01*
X178448711Y-113730320D01*
X178448713Y-113730319D01*
X178454741Y-113727635D01*
X178608562Y-113615877D01*
X178735786Y-113474580D01*
X178830853Y-113309920D01*
X178889608Y-113129092D01*
X178890824Y-113117529D01*
X178908792Y-112946565D01*
X178909482Y-112940000D01*
X178905804Y-112905007D01*
X178890298Y-112757471D01*
X178890298Y-112757469D01*
X178889608Y-112750908D01*
X178830853Y-112570080D01*
X178735786Y-112405420D01*
X178608562Y-112264123D01*
X178454741Y-112152365D01*
X178448713Y-112149681D01*
X178448711Y-112149680D01*
X178287076Y-112077716D01*
X178287075Y-112077716D01*
X178281045Y-112075031D01*
X178188056Y-112055266D01*
X178101524Y-112036872D01*
X178101520Y-112036872D01*
X178095067Y-112035500D01*
X177904933Y-112035500D01*
X177898480Y-112036872D01*
X177898476Y-112036872D01*
X177811944Y-112055266D01*
X177718955Y-112075031D01*
X177712925Y-112077716D01*
X177712924Y-112077716D01*
X177551289Y-112149680D01*
X177551287Y-112149681D01*
X177545259Y-112152365D01*
X177391438Y-112264123D01*
X177264214Y-112405420D01*
X177169147Y-112570080D01*
X177110392Y-112750908D01*
X177109702Y-112757469D01*
X177109702Y-112757471D01*
X177094196Y-112905007D01*
X177090518Y-112940000D01*
X150733956Y-112940000D01*
X150734482Y-112935000D01*
X150730804Y-112900007D01*
X150715298Y-112752471D01*
X150715298Y-112752469D01*
X150714608Y-112745908D01*
X150655853Y-112565080D01*
X150560786Y-112400420D01*
X150433562Y-112259123D01*
X150286623Y-112152365D01*
X150285083Y-112151246D01*
X150285082Y-112151245D01*
X150279741Y-112147365D01*
X150273713Y-112144681D01*
X150273711Y-112144680D01*
X150112076Y-112072716D01*
X150112075Y-112072716D01*
X150106045Y-112070031D01*
X150013056Y-112050265D01*
X149926524Y-112031872D01*
X149926520Y-112031872D01*
X149920067Y-112030500D01*
X149729933Y-112030500D01*
X149723480Y-112031872D01*
X149723476Y-112031872D01*
X149636944Y-112050265D01*
X149543955Y-112070031D01*
X149537925Y-112072716D01*
X149537924Y-112072716D01*
X149376289Y-112144680D01*
X149376287Y-112144681D01*
X149370259Y-112147365D01*
X149364918Y-112151245D01*
X149364917Y-112151246D01*
X149363377Y-112152365D01*
X149216438Y-112259123D01*
X149089214Y-112400420D01*
X148994147Y-112565080D01*
X148935392Y-112745908D01*
X148934702Y-112752469D01*
X148934702Y-112752471D01*
X148919196Y-112900007D01*
X148915518Y-112935000D01*
X141291973Y-112935000D01*
X141380268Y-112901548D01*
X141474183Y-112865967D01*
X141474186Y-112865966D01*
X141478453Y-112864349D01*
X141716898Y-112731905D01*
X141923541Y-112574199D01*
X141930093Y-112569199D01*
X141930094Y-112569198D01*
X141933725Y-112566427D01*
X141936920Y-112563159D01*
X142121200Y-112374650D01*
X142121204Y-112374645D01*
X142124394Y-112371382D01*
X142284910Y-112150856D01*
X142411910Y-111909469D01*
X142502734Y-111652276D01*
X142529797Y-111514969D01*
X142554599Y-111389138D01*
X142554600Y-111389132D01*
X142555480Y-111384666D01*
X142555707Y-111380110D01*
X142568815Y-111116814D01*
X142568815Y-111116808D01*
X142569042Y-111112245D01*
X142543136Y-110840720D01*
X142541515Y-110834092D01*
X142479390Y-110580212D01*
X142478305Y-110575778D01*
X142470971Y-110557670D01*
X142467042Y-110547969D01*
X143132781Y-110547969D01*
X143139568Y-110557670D01*
X143209738Y-110617602D01*
X143217711Y-110623394D01*
X143414482Y-110743976D01*
X143423276Y-110748457D01*
X143636479Y-110836768D01*
X143645864Y-110839817D01*
X143870259Y-110893690D01*
X143880006Y-110895233D01*
X144110070Y-110913340D01*
X144119930Y-110913340D01*
X144349994Y-110895233D01*
X144359741Y-110893690D01*
X144584136Y-110839817D01*
X144593521Y-110836768D01*
X144806724Y-110748457D01*
X144815518Y-110743976D01*
X144977031Y-110645000D01*
X148915518Y-110645000D01*
X148916208Y-110651565D01*
X148926392Y-110748457D01*
X148935392Y-110834092D01*
X148994147Y-111014920D01*
X149089214Y-111179580D01*
X149216438Y-111320877D01*
X149370259Y-111432635D01*
X149376287Y-111435319D01*
X149376289Y-111435320D01*
X149473768Y-111478720D01*
X149543955Y-111509969D01*
X149636944Y-111529734D01*
X149723476Y-111548128D01*
X149723480Y-111548128D01*
X149729933Y-111549500D01*
X149920067Y-111549500D01*
X149926520Y-111548128D01*
X149926524Y-111548128D01*
X150013056Y-111529735D01*
X150106045Y-111509969D01*
X150176232Y-111478720D01*
X150273711Y-111435320D01*
X150273713Y-111435319D01*
X150279741Y-111432635D01*
X150433562Y-111320877D01*
X150560786Y-111179580D01*
X150655853Y-111014920D01*
X150714608Y-110834092D01*
X150723609Y-110748457D01*
X150733792Y-110651565D01*
X150733956Y-110650000D01*
X177090518Y-110650000D01*
X177091208Y-110656565D01*
X177109177Y-110827529D01*
X177110392Y-110839092D01*
X177169147Y-111019920D01*
X177264214Y-111184580D01*
X177391438Y-111325877D01*
X177545259Y-111437635D01*
X177551287Y-111440319D01*
X177551289Y-111440320D01*
X177710806Y-111511341D01*
X177718955Y-111514969D01*
X177811944Y-111534734D01*
X177898476Y-111553128D01*
X177898480Y-111553128D01*
X177904933Y-111554500D01*
X178095067Y-111554500D01*
X178101520Y-111553128D01*
X178101524Y-111553128D01*
X178188056Y-111534734D01*
X178281045Y-111514969D01*
X178289194Y-111511341D01*
X178448711Y-111440320D01*
X178448713Y-111440319D01*
X178454741Y-111437635D01*
X178608562Y-111325877D01*
X178719421Y-111202755D01*
X185255958Y-111202755D01*
X185281864Y-111474280D01*
X185282949Y-111478714D01*
X185282950Y-111478720D01*
X185345610Y-111734788D01*
X185346695Y-111739222D01*
X185348407Y-111743448D01*
X185348408Y-111743452D01*
X185447067Y-111987030D01*
X185449092Y-111992030D01*
X185451396Y-111995965D01*
X185451399Y-111995971D01*
X185583984Y-112222408D01*
X185586912Y-112227408D01*
X185699097Y-112367688D01*
X185750416Y-112431859D01*
X185757266Y-112440425D01*
X185956587Y-112626620D01*
X186050273Y-112691613D01*
X186176945Y-112779489D01*
X186176950Y-112779492D01*
X186180698Y-112782092D01*
X186184783Y-112784124D01*
X186184786Y-112784126D01*
X186420814Y-112901548D01*
X186424905Y-112903583D01*
X186429244Y-112905005D01*
X186429248Y-112905007D01*
X186679750Y-112987125D01*
X186679755Y-112987126D01*
X186684092Y-112988548D01*
X186753324Y-113000569D01*
X186949048Y-113034553D01*
X186949056Y-113034554D01*
X186952829Y-113035209D01*
X186963615Y-113035746D01*
X187037451Y-113039422D01*
X187037459Y-113039422D01*
X187039022Y-113039500D01*
X187209282Y-113039500D01*
X187211550Y-113039335D01*
X187211562Y-113039335D01*
X187346372Y-113029553D01*
X187412043Y-113024788D01*
X187416498Y-113023804D01*
X187416501Y-113023804D01*
X187673927Y-112966970D01*
X187673931Y-112966969D01*
X187678387Y-112965985D01*
X187805920Y-112917667D01*
X187929183Y-112870967D01*
X187929186Y-112870966D01*
X187933453Y-112869349D01*
X188146688Y-112750908D01*
X188167905Y-112739123D01*
X188167906Y-112739122D01*
X188171898Y-112736905D01*
X188388725Y-112571427D01*
X188394930Y-112565080D01*
X188576200Y-112379650D01*
X188576204Y-112379645D01*
X188579394Y-112376382D01*
X188583034Y-112371382D01*
X188664744Y-112259123D01*
X188739910Y-112155856D01*
X188866910Y-111914469D01*
X188870197Y-111905163D01*
X188956218Y-111661568D01*
X188957734Y-111657276D01*
X188986768Y-111509969D01*
X189009599Y-111394138D01*
X189009600Y-111394132D01*
X189010480Y-111389666D01*
X189010956Y-111380110D01*
X189023815Y-111121814D01*
X189023815Y-111121808D01*
X189024042Y-111117245D01*
X188998136Y-110845720D01*
X188996515Y-110839092D01*
X188934390Y-110585212D01*
X188933305Y-110580778D01*
X188931280Y-110575778D01*
X188832623Y-110332203D01*
X188832620Y-110332198D01*
X188830908Y-110327970D01*
X188828604Y-110324035D01*
X188828601Y-110324029D01*
X188695394Y-110096530D01*
X188695393Y-110096528D01*
X188693088Y-110092592D01*
X188522734Y-109879575D01*
X188323413Y-109693380D01*
X188210421Y-109614994D01*
X188103055Y-109540511D01*
X188103050Y-109540508D01*
X188099302Y-109537908D01*
X188095217Y-109535876D01*
X188095214Y-109535874D01*
X187859186Y-109418452D01*
X187859183Y-109418451D01*
X187855095Y-109416417D01*
X187850756Y-109414995D01*
X187850752Y-109414993D01*
X187600250Y-109332875D01*
X187600245Y-109332874D01*
X187595908Y-109331452D01*
X187526676Y-109319431D01*
X187330952Y-109285447D01*
X187330944Y-109285446D01*
X187327171Y-109284791D01*
X187316385Y-109284254D01*
X187242549Y-109280578D01*
X187242541Y-109280578D01*
X187240978Y-109280500D01*
X187070718Y-109280500D01*
X187068450Y-109280665D01*
X187068438Y-109280665D01*
X186941415Y-109289882D01*
X186867957Y-109295212D01*
X186863502Y-109296196D01*
X186863499Y-109296196D01*
X186606073Y-109353030D01*
X186606069Y-109353031D01*
X186601613Y-109354015D01*
X186516842Y-109386132D01*
X186350817Y-109449033D01*
X186350814Y-109449034D01*
X186346547Y-109450651D01*
X186108102Y-109583095D01*
X186104470Y-109585867D01*
X185895302Y-109745500D01*
X185891275Y-109748573D01*
X185888082Y-109751839D01*
X185888080Y-109751841D01*
X185703800Y-109940350D01*
X185703796Y-109940355D01*
X185700606Y-109943618D01*
X185697919Y-109947310D01*
X185697917Y-109947312D01*
X185571393Y-110121138D01*
X185540090Y-110164144D01*
X185413090Y-110405531D01*
X185322266Y-110662724D01*
X185321386Y-110667190D01*
X185270506Y-110925334D01*
X185269520Y-110930334D01*
X185269293Y-110934887D01*
X185269293Y-110934890D01*
X185256207Y-111197755D01*
X185255958Y-111202755D01*
X178719421Y-111202755D01*
X178735786Y-111184580D01*
X178830853Y-111019920D01*
X178889608Y-110839092D01*
X178890824Y-110827529D01*
X178908792Y-110656565D01*
X178909482Y-110650000D01*
X178900444Y-110564008D01*
X178899284Y-110552969D01*
X182727781Y-110552969D01*
X182734568Y-110562670D01*
X182804738Y-110622602D01*
X182812711Y-110628394D01*
X183009482Y-110748976D01*
X183018276Y-110753457D01*
X183231479Y-110841768D01*
X183240864Y-110844817D01*
X183465259Y-110898690D01*
X183475006Y-110900233D01*
X183705070Y-110918340D01*
X183714930Y-110918340D01*
X183944994Y-110900233D01*
X183954741Y-110898690D01*
X184179136Y-110844817D01*
X184188521Y-110841768D01*
X184401724Y-110753457D01*
X184410518Y-110748976D01*
X184607289Y-110628394D01*
X184615262Y-110622602D01*
X184683865Y-110564008D01*
X184692293Y-110551098D01*
X184686285Y-110540890D01*
X183722812Y-109577417D01*
X183708868Y-109569803D01*
X183707035Y-109569934D01*
X183700420Y-109574185D01*
X182735173Y-110539432D01*
X182727781Y-110552969D01*
X178899284Y-110552969D01*
X178890298Y-110467471D01*
X178890298Y-110467469D01*
X178889608Y-110460908D01*
X178830853Y-110280080D01*
X178735786Y-110115420D01*
X178718778Y-110096530D01*
X178612984Y-109979034D01*
X178612983Y-109979033D01*
X178608562Y-109974123D01*
X178483337Y-109883141D01*
X178460083Y-109866246D01*
X178460082Y-109866245D01*
X178454741Y-109862365D01*
X178448713Y-109859681D01*
X178448711Y-109859680D01*
X178287076Y-109787716D01*
X178287075Y-109787716D01*
X178281045Y-109785031D01*
X178188056Y-109765265D01*
X178101524Y-109746872D01*
X178101520Y-109746872D01*
X178095067Y-109745500D01*
X177904933Y-109745500D01*
X177898480Y-109746872D01*
X177898476Y-109746872D01*
X177811944Y-109765265D01*
X177718955Y-109785031D01*
X177712925Y-109787716D01*
X177712924Y-109787716D01*
X177551289Y-109859680D01*
X177551287Y-109859681D01*
X177545259Y-109862365D01*
X177539918Y-109866245D01*
X177539917Y-109866246D01*
X177516663Y-109883141D01*
X177391438Y-109974123D01*
X177387017Y-109979033D01*
X177387016Y-109979034D01*
X177281223Y-110096530D01*
X177264214Y-110115420D01*
X177169147Y-110280080D01*
X177110392Y-110460908D01*
X177109702Y-110467469D01*
X177109702Y-110467471D01*
X177099556Y-110564008D01*
X177090518Y-110650000D01*
X150733956Y-110650000D01*
X150734482Y-110645000D01*
X150725444Y-110559008D01*
X150715298Y-110462471D01*
X150715298Y-110462469D01*
X150714608Y-110455908D01*
X150655853Y-110275080D01*
X150560786Y-110110420D01*
X150548280Y-110096530D01*
X150437984Y-109974034D01*
X150437983Y-109974033D01*
X150433562Y-109969123D01*
X150335038Y-109897541D01*
X150285083Y-109861246D01*
X150285082Y-109861245D01*
X150279741Y-109857365D01*
X150273713Y-109854681D01*
X150273711Y-109854680D01*
X150112076Y-109782716D01*
X150112075Y-109782716D01*
X150106045Y-109780031D01*
X150013056Y-109760266D01*
X149926524Y-109741872D01*
X149926520Y-109741872D01*
X149920067Y-109740500D01*
X149729933Y-109740500D01*
X149723480Y-109741872D01*
X149723476Y-109741872D01*
X149636944Y-109760266D01*
X149543955Y-109780031D01*
X149537925Y-109782716D01*
X149537924Y-109782716D01*
X149376289Y-109854680D01*
X149376287Y-109854681D01*
X149370259Y-109857365D01*
X149364918Y-109861245D01*
X149364917Y-109861246D01*
X149314962Y-109897541D01*
X149216438Y-109969123D01*
X149212017Y-109974033D01*
X149212016Y-109974034D01*
X149101721Y-110096530D01*
X149089214Y-110110420D01*
X148994147Y-110275080D01*
X148935392Y-110455908D01*
X148934702Y-110462469D01*
X148934702Y-110462471D01*
X148924556Y-110559008D01*
X148915518Y-110645000D01*
X144977031Y-110645000D01*
X145012289Y-110623394D01*
X145020262Y-110617602D01*
X145088865Y-110559008D01*
X145097293Y-110546098D01*
X145091285Y-110535890D01*
X144127812Y-109572417D01*
X144113868Y-109564803D01*
X144112035Y-109564934D01*
X144105420Y-109569185D01*
X143140173Y-110534432D01*
X143132781Y-110547969D01*
X142467042Y-110547969D01*
X142377623Y-110327203D01*
X142377620Y-110327198D01*
X142375908Y-110322970D01*
X142373604Y-110319035D01*
X142373601Y-110319029D01*
X142240394Y-110091530D01*
X142240393Y-110091528D01*
X142238088Y-110087592D01*
X142111557Y-109929373D01*
X142070586Y-109878141D01*
X142070585Y-109878139D01*
X142067734Y-109874575D01*
X141868413Y-109688380D01*
X141713449Y-109580877D01*
X141648055Y-109535511D01*
X141648050Y-109535508D01*
X141644302Y-109532908D01*
X141640217Y-109530876D01*
X141640214Y-109530874D01*
X141404186Y-109413452D01*
X141404183Y-109413451D01*
X141400095Y-109411417D01*
X141395756Y-109409995D01*
X141395752Y-109409993D01*
X141319297Y-109384930D01*
X142581660Y-109384930D01*
X142599767Y-109614994D01*
X142601310Y-109624741D01*
X142655183Y-109849136D01*
X142658232Y-109858521D01*
X142746543Y-110071724D01*
X142751024Y-110080518D01*
X142871606Y-110277289D01*
X142877398Y-110285262D01*
X142935992Y-110353865D01*
X142948902Y-110362293D01*
X142959110Y-110356285D01*
X143922583Y-109392812D01*
X143928961Y-109381132D01*
X144299803Y-109381132D01*
X144299934Y-109382965D01*
X144304185Y-109389580D01*
X145269432Y-110354827D01*
X145282969Y-110362219D01*
X145292670Y-110355432D01*
X145352602Y-110285262D01*
X145358394Y-110277289D01*
X145478976Y-110080518D01*
X145483457Y-110071724D01*
X145571768Y-109858521D01*
X145574817Y-109849136D01*
X145628690Y-109624741D01*
X145630233Y-109614994D01*
X145647946Y-109389930D01*
X182176660Y-109389930D01*
X182194767Y-109619994D01*
X182196310Y-109629741D01*
X182250183Y-109854136D01*
X182253232Y-109863521D01*
X182341543Y-110076724D01*
X182346024Y-110085518D01*
X182466606Y-110282289D01*
X182472398Y-110290262D01*
X182530992Y-110358865D01*
X182543902Y-110367293D01*
X182554110Y-110361285D01*
X183517583Y-109397812D01*
X183523961Y-109386132D01*
X183894803Y-109386132D01*
X183894934Y-109387965D01*
X183899185Y-109394580D01*
X184864432Y-110359827D01*
X184877969Y-110367219D01*
X184887670Y-110360432D01*
X184947602Y-110290262D01*
X184953394Y-110282289D01*
X185073976Y-110085518D01*
X185078457Y-110076724D01*
X185166768Y-109863521D01*
X185169817Y-109854136D01*
X185223690Y-109629741D01*
X185225233Y-109619994D01*
X185243340Y-109389930D01*
X185243340Y-109380070D01*
X185225233Y-109150006D01*
X185223690Y-109140259D01*
X185169817Y-108915864D01*
X185166768Y-108906479D01*
X185078457Y-108693276D01*
X185073976Y-108684482D01*
X184953394Y-108487711D01*
X184947602Y-108479738D01*
X184889008Y-108411135D01*
X184876098Y-108402707D01*
X184865890Y-108408715D01*
X183902417Y-109372188D01*
X183894803Y-109386132D01*
X183523961Y-109386132D01*
X183525197Y-109383868D01*
X183525066Y-109382035D01*
X183520815Y-109375420D01*
X182555568Y-108410173D01*
X182542031Y-108402781D01*
X182532330Y-108409568D01*
X182472398Y-108479738D01*
X182466606Y-108487711D01*
X182346024Y-108684482D01*
X182341543Y-108693276D01*
X182253232Y-108906479D01*
X182250183Y-108915864D01*
X182196310Y-109140259D01*
X182194767Y-109150006D01*
X182176660Y-109380070D01*
X182176660Y-109389930D01*
X145647946Y-109389930D01*
X145648340Y-109384930D01*
X145648340Y-109375070D01*
X145630233Y-109145006D01*
X145628690Y-109135259D01*
X145574817Y-108910864D01*
X145571768Y-108901479D01*
X145483457Y-108688276D01*
X145478976Y-108679482D01*
X145358394Y-108482711D01*
X145352602Y-108474738D01*
X145294008Y-108406135D01*
X145281098Y-108397707D01*
X145270890Y-108403715D01*
X144307417Y-109367188D01*
X144299803Y-109381132D01*
X143928961Y-109381132D01*
X143930197Y-109378868D01*
X143930066Y-109377035D01*
X143925815Y-109370420D01*
X142960568Y-108405173D01*
X142947031Y-108397781D01*
X142937330Y-108404568D01*
X142877398Y-108474738D01*
X142871606Y-108482711D01*
X142751024Y-108679482D01*
X142746543Y-108688276D01*
X142658232Y-108901479D01*
X142655183Y-108910864D01*
X142601310Y-109135259D01*
X142599767Y-109145006D01*
X142581660Y-109375070D01*
X142581660Y-109384930D01*
X141319297Y-109384930D01*
X141145250Y-109327875D01*
X141145245Y-109327874D01*
X141140908Y-109326452D01*
X141071676Y-109314431D01*
X140875952Y-109280447D01*
X140875944Y-109280446D01*
X140872171Y-109279791D01*
X140861385Y-109279254D01*
X140787549Y-109275578D01*
X140787541Y-109275578D01*
X140785978Y-109275500D01*
X140615718Y-109275500D01*
X140613450Y-109275665D01*
X140613438Y-109275665D01*
X140487669Y-109284791D01*
X140412957Y-109290212D01*
X140408502Y-109291196D01*
X140408499Y-109291196D01*
X140151073Y-109348030D01*
X140151069Y-109348031D01*
X140146613Y-109349015D01*
X140039544Y-109389580D01*
X139895817Y-109444033D01*
X139895814Y-109444034D01*
X139891547Y-109445651D01*
X139878554Y-109452868D01*
X139667795Y-109569934D01*
X139653102Y-109578095D01*
X139591981Y-109624741D01*
X139440302Y-109740500D01*
X139436275Y-109743573D01*
X139433082Y-109746839D01*
X139433080Y-109746841D01*
X139248800Y-109935350D01*
X139248796Y-109935355D01*
X139245606Y-109938618D01*
X139242919Y-109942310D01*
X139242917Y-109942312D01*
X139120555Y-110110420D01*
X139085090Y-110159144D01*
X138958090Y-110400531D01*
X138956571Y-110404832D01*
X138956569Y-110404837D01*
X138938534Y-110455908D01*
X138867266Y-110657724D01*
X138865400Y-110667190D01*
X138815899Y-110918340D01*
X138814520Y-110925334D01*
X138814293Y-110929887D01*
X138814293Y-110929890D01*
X138801370Y-111189488D01*
X138800958Y-111197755D01*
X135254000Y-111197755D01*
X135254000Y-108213902D01*
X143132707Y-108213902D01*
X143138715Y-108224110D01*
X144102188Y-109187583D01*
X144116132Y-109195197D01*
X144117965Y-109195066D01*
X144124580Y-109190815D01*
X145089827Y-108225568D01*
X145093467Y-108218902D01*
X182727707Y-108218902D01*
X182733715Y-108229110D01*
X183697188Y-109192583D01*
X183711132Y-109200197D01*
X183712965Y-109200066D01*
X183719580Y-109195815D01*
X184684827Y-108230568D01*
X184692219Y-108217031D01*
X184685432Y-108207330D01*
X184615262Y-108147398D01*
X184607289Y-108141606D01*
X184410518Y-108021024D01*
X184401724Y-108016543D01*
X184188521Y-107928232D01*
X184179136Y-107925183D01*
X183954741Y-107871310D01*
X183944994Y-107869767D01*
X183714930Y-107851660D01*
X183705070Y-107851660D01*
X183475006Y-107869767D01*
X183465259Y-107871310D01*
X183240864Y-107925183D01*
X183231479Y-107928232D01*
X183018276Y-108016543D01*
X183009482Y-108021024D01*
X182812711Y-108141606D01*
X182804738Y-108147398D01*
X182736135Y-108205992D01*
X182727707Y-108218902D01*
X145093467Y-108218902D01*
X145097219Y-108212031D01*
X145090432Y-108202330D01*
X145020262Y-108142398D01*
X145012289Y-108136606D01*
X144815518Y-108016024D01*
X144806724Y-108011543D01*
X144593521Y-107923232D01*
X144584136Y-107920183D01*
X144359741Y-107866310D01*
X144349994Y-107864767D01*
X144119930Y-107846660D01*
X144110070Y-107846660D01*
X143880006Y-107864767D01*
X143870259Y-107866310D01*
X143645864Y-107920183D01*
X143636479Y-107923232D01*
X143423276Y-108011543D01*
X143414482Y-108016024D01*
X143217711Y-108136606D01*
X143209738Y-108142398D01*
X143141135Y-108200992D01*
X143132707Y-108213902D01*
X135254000Y-108213902D01*
X135254000Y-102531880D01*
X137654055Y-102531880D01*
X137654131Y-102532953D01*
X137659174Y-102540607D01*
X137746462Y-102624022D01*
X137751622Y-102628446D01*
X138043037Y-102852055D01*
X138048651Y-102855899D01*
X138362497Y-103046721D01*
X138368499Y-103049939D01*
X138701126Y-103205753D01*
X138707430Y-103208300D01*
X139054939Y-103327278D01*
X139061490Y-103329132D01*
X139419805Y-103409881D01*
X139426524Y-103411018D01*
X139791472Y-103452599D01*
X139798262Y-103453002D01*
X140165562Y-103454925D01*
X140172363Y-103454593D01*
X140537726Y-103416837D01*
X140544454Y-103415771D01*
X140903610Y-103338775D01*
X140910158Y-103336996D01*
X141258899Y-103221660D01*
X141265241Y-103219174D01*
X141599463Y-103066861D01*
X141605517Y-103063696D01*
X141921322Y-102876185D01*
X141927003Y-102872382D01*
X142220726Y-102651848D01*
X142225933Y-102647479D01*
X142337689Y-102542900D01*
X142345760Y-102529219D01*
X142345732Y-102528497D01*
X142340588Y-102520193D01*
X142313491Y-102493096D01*
X164340729Y-102493096D01*
X164358113Y-102650553D01*
X164412553Y-102799319D01*
X164500908Y-102930805D01*
X164506527Y-102935918D01*
X164506528Y-102935919D01*
X164517903Y-102946269D01*
X164618076Y-103037419D01*
X164757293Y-103113008D01*
X164910522Y-103153207D01*
X164994477Y-103154526D01*
X165061319Y-103155576D01*
X165061322Y-103155576D01*
X165068916Y-103155695D01*
X165223332Y-103120329D01*
X165293742Y-103084917D01*
X165358072Y-103052563D01*
X165358075Y-103052561D01*
X165364855Y-103049151D01*
X165370626Y-103044222D01*
X165370629Y-103044220D01*
X165479536Y-102951204D01*
X165479536Y-102951203D01*
X165485314Y-102946269D01*
X165577755Y-102817624D01*
X165580589Y-102810575D01*
X165580592Y-102810569D01*
X165634089Y-102677489D01*
X165678055Y-102621744D01*
X165745180Y-102598619D01*
X165814152Y-102615456D01*
X165863071Y-102666908D01*
X165869322Y-102681184D01*
X165912553Y-102799319D01*
X166000908Y-102930805D01*
X166006527Y-102935918D01*
X166006528Y-102935919D01*
X166017903Y-102946269D01*
X166118076Y-103037419D01*
X166257293Y-103113008D01*
X166410522Y-103153207D01*
X166494477Y-103154526D01*
X166561319Y-103155576D01*
X166561322Y-103155576D01*
X166568916Y-103155695D01*
X166723332Y-103120329D01*
X166793742Y-103084917D01*
X166858072Y-103052563D01*
X166858075Y-103052561D01*
X166864855Y-103049151D01*
X166870626Y-103044222D01*
X166870629Y-103044220D01*
X166979536Y-102951204D01*
X166979536Y-102951203D01*
X166985314Y-102946269D01*
X167077755Y-102817624D01*
X167136842Y-102670641D01*
X167156969Y-102529219D01*
X167158581Y-102517891D01*
X167158581Y-102517888D01*
X167159162Y-102513807D01*
X167159307Y-102500000D01*
X167158472Y-102493096D01*
X167840729Y-102493096D01*
X167858113Y-102650553D01*
X167912553Y-102799319D01*
X168000908Y-102930805D01*
X168006527Y-102935918D01*
X168006528Y-102935919D01*
X168017903Y-102946269D01*
X168118076Y-103037419D01*
X168257293Y-103113008D01*
X168410522Y-103153207D01*
X168494477Y-103154526D01*
X168561319Y-103155576D01*
X168561322Y-103155576D01*
X168568916Y-103155695D01*
X168723332Y-103120329D01*
X168793742Y-103084917D01*
X168858072Y-103052563D01*
X168858075Y-103052561D01*
X168864855Y-103049151D01*
X168870626Y-103044222D01*
X168870629Y-103044220D01*
X168979536Y-102951204D01*
X168979536Y-102951203D01*
X168985314Y-102946269D01*
X169077755Y-102817624D01*
X169080589Y-102810575D01*
X169080592Y-102810569D01*
X169134089Y-102677489D01*
X169178055Y-102621744D01*
X169245180Y-102598619D01*
X169314152Y-102615456D01*
X169363071Y-102666908D01*
X169369322Y-102681184D01*
X169412553Y-102799319D01*
X169500908Y-102930805D01*
X169506527Y-102935918D01*
X169506528Y-102935919D01*
X169517903Y-102946269D01*
X169618076Y-103037419D01*
X169757293Y-103113008D01*
X169910522Y-103153207D01*
X169994477Y-103154526D01*
X170061319Y-103155576D01*
X170061322Y-103155576D01*
X170068916Y-103155695D01*
X170223332Y-103120329D01*
X170293742Y-103084917D01*
X170358072Y-103052563D01*
X170358075Y-103052561D01*
X170364855Y-103049151D01*
X170370626Y-103044222D01*
X170370629Y-103044220D01*
X170479536Y-102951204D01*
X170479536Y-102951203D01*
X170485314Y-102946269D01*
X170577755Y-102817624D01*
X170636842Y-102670641D01*
X170656590Y-102531880D01*
X177654055Y-102531880D01*
X177654131Y-102532953D01*
X177659174Y-102540607D01*
X177746462Y-102624022D01*
X177751622Y-102628446D01*
X178043037Y-102852055D01*
X178048651Y-102855899D01*
X178362497Y-103046721D01*
X178368499Y-103049939D01*
X178701126Y-103205753D01*
X178707430Y-103208300D01*
X179054939Y-103327278D01*
X179061490Y-103329132D01*
X179419805Y-103409881D01*
X179426524Y-103411018D01*
X179791472Y-103452599D01*
X179798262Y-103453002D01*
X180165562Y-103454925D01*
X180172363Y-103454593D01*
X180537726Y-103416837D01*
X180544454Y-103415771D01*
X180903610Y-103338775D01*
X180910158Y-103336996D01*
X181258899Y-103221660D01*
X181265241Y-103219174D01*
X181599463Y-103066861D01*
X181605517Y-103063696D01*
X181921322Y-102876185D01*
X181927003Y-102872382D01*
X182220726Y-102651848D01*
X182225933Y-102647479D01*
X182337689Y-102542900D01*
X182345760Y-102529219D01*
X182345732Y-102528497D01*
X182340588Y-102520193D01*
X180012812Y-100192417D01*
X179998868Y-100184803D01*
X179997035Y-100184934D01*
X179990420Y-100189185D01*
X177661669Y-102517936D01*
X177654055Y-102531880D01*
X170656590Y-102531880D01*
X170656969Y-102529219D01*
X170658581Y-102517891D01*
X170658581Y-102517888D01*
X170659162Y-102513807D01*
X170659307Y-102500000D01*
X170640276Y-102342733D01*
X170584280Y-102194546D01*
X170508534Y-102084334D01*
X170498855Y-102070251D01*
X170498854Y-102070249D01*
X170494553Y-102063992D01*
X170376275Y-101958611D01*
X170368889Y-101954700D01*
X170262171Y-101898196D01*
X170236274Y-101884484D01*
X170214395Y-101878988D01*
X170189039Y-101872619D01*
X170127843Y-101836623D01*
X170095823Y-101773258D01*
X170103144Y-101702640D01*
X170147482Y-101647190D01*
X170191607Y-101627595D01*
X170194441Y-101626946D01*
X170223332Y-101620329D01*
X170293742Y-101584917D01*
X170358072Y-101552563D01*
X170358075Y-101552561D01*
X170364855Y-101549151D01*
X170370626Y-101544222D01*
X170370629Y-101544220D01*
X170479536Y-101451204D01*
X170479536Y-101451203D01*
X170485314Y-101446269D01*
X170577755Y-101317624D01*
X170636842Y-101170641D01*
X170647092Y-101098619D01*
X170658581Y-101017891D01*
X170658581Y-101017888D01*
X170659162Y-101013807D01*
X170659307Y-101000000D01*
X170640276Y-100842733D01*
X170584280Y-100694546D01*
X170494553Y-100563992D01*
X170376275Y-100458611D01*
X170368889Y-100454700D01*
X170297174Y-100416729D01*
X170236274Y-100384484D01*
X170082633Y-100345892D01*
X170075034Y-100345852D01*
X170075033Y-100345852D01*
X170009181Y-100345507D01*
X169924221Y-100345062D01*
X169916841Y-100346834D01*
X169916839Y-100346834D01*
X169777563Y-100380271D01*
X169777560Y-100380272D01*
X169770184Y-100382043D01*
X169629414Y-100454700D01*
X169510039Y-100558838D01*
X169418950Y-100688444D01*
X169416190Y-100695524D01*
X169416188Y-100695527D01*
X169367060Y-100821535D01*
X169323680Y-100877737D01*
X169256801Y-100901564D01*
X169187657Y-100885451D01*
X169138201Y-100834513D01*
X169131801Y-100820305D01*
X169097982Y-100730808D01*
X169084280Y-100694546D01*
X168994553Y-100563992D01*
X168876275Y-100458611D01*
X168868889Y-100454700D01*
X168797174Y-100416729D01*
X168736274Y-100384484D01*
X168582633Y-100345892D01*
X168575034Y-100345852D01*
X168575033Y-100345852D01*
X168509181Y-100345507D01*
X168424221Y-100345062D01*
X168416841Y-100346834D01*
X168416839Y-100346834D01*
X168277563Y-100380271D01*
X168277560Y-100380272D01*
X168270184Y-100382043D01*
X168129414Y-100454700D01*
X168010039Y-100558838D01*
X167918950Y-100688444D01*
X167890178Y-100762240D01*
X167867540Y-100820305D01*
X167861406Y-100836037D01*
X167860414Y-100843570D01*
X167860414Y-100843571D01*
X167842620Y-100978734D01*
X167840729Y-100993096D01*
X167858113Y-101150553D01*
X167860723Y-101157684D01*
X167860723Y-101157686D01*
X167909293Y-101290410D01*
X167912553Y-101299319D01*
X168000908Y-101430805D01*
X168006527Y-101435918D01*
X168006528Y-101435919D01*
X168051233Y-101476597D01*
X168118076Y-101537419D01*
X168257293Y-101613008D01*
X168291664Y-101622025D01*
X168313718Y-101627811D01*
X168374533Y-101664445D01*
X168405888Y-101728142D01*
X168397829Y-101798680D01*
X168352913Y-101853663D01*
X168311158Y-101872206D01*
X168277564Y-101880271D01*
X168277562Y-101880272D01*
X168270184Y-101882043D01*
X168129414Y-101954700D01*
X168010039Y-102058838D01*
X167918950Y-102188444D01*
X167913802Y-102201649D01*
X167867540Y-102320305D01*
X167861406Y-102336037D01*
X167860414Y-102343570D01*
X167860414Y-102343571D01*
X167854901Y-102385451D01*
X167840729Y-102493096D01*
X167158472Y-102493096D01*
X167140276Y-102342733D01*
X167084280Y-102194546D01*
X167008534Y-102084334D01*
X166998855Y-102070251D01*
X166998854Y-102070249D01*
X166994553Y-102063992D01*
X166876275Y-101958611D01*
X166868889Y-101954700D01*
X166762171Y-101898196D01*
X166736274Y-101884484D01*
X166714395Y-101878988D01*
X166689039Y-101872619D01*
X166627843Y-101836623D01*
X166595823Y-101773258D01*
X166603144Y-101702640D01*
X166647482Y-101647190D01*
X166691607Y-101627595D01*
X166694441Y-101626946D01*
X166723332Y-101620329D01*
X166793742Y-101584917D01*
X166858072Y-101552563D01*
X166858075Y-101552561D01*
X166864855Y-101549151D01*
X166870626Y-101544222D01*
X166870629Y-101544220D01*
X166979536Y-101451204D01*
X166979536Y-101451203D01*
X166985314Y-101446269D01*
X167077755Y-101317624D01*
X167136842Y-101170641D01*
X167147092Y-101098619D01*
X167158581Y-101017891D01*
X167158581Y-101017888D01*
X167159162Y-101013807D01*
X167159307Y-101000000D01*
X167140276Y-100842733D01*
X167084280Y-100694546D01*
X166994553Y-100563992D01*
X166876275Y-100458611D01*
X166868889Y-100454700D01*
X166797174Y-100416729D01*
X166736274Y-100384484D01*
X166582633Y-100345892D01*
X166575034Y-100345852D01*
X166575033Y-100345852D01*
X166509181Y-100345507D01*
X166424221Y-100345062D01*
X166416841Y-100346834D01*
X166416839Y-100346834D01*
X166277563Y-100380271D01*
X166277560Y-100380272D01*
X166270184Y-100382043D01*
X166129414Y-100454700D01*
X166010039Y-100558838D01*
X165918950Y-100688444D01*
X165916190Y-100695524D01*
X165916188Y-100695527D01*
X165867060Y-100821535D01*
X165823680Y-100877737D01*
X165756801Y-100901564D01*
X165687657Y-100885451D01*
X165638201Y-100834513D01*
X165631801Y-100820305D01*
X165597982Y-100730808D01*
X165584280Y-100694546D01*
X165494553Y-100563992D01*
X165376275Y-100458611D01*
X165368889Y-100454700D01*
X165297174Y-100416729D01*
X165236274Y-100384484D01*
X165082633Y-100345892D01*
X165075034Y-100345852D01*
X165075033Y-100345852D01*
X165009181Y-100345507D01*
X164924221Y-100345062D01*
X164916841Y-100346834D01*
X164916839Y-100346834D01*
X164777563Y-100380271D01*
X164777560Y-100380272D01*
X164770184Y-100382043D01*
X164629414Y-100454700D01*
X164510039Y-100558838D01*
X164418950Y-100688444D01*
X164390178Y-100762240D01*
X164367540Y-100820305D01*
X164361406Y-100836037D01*
X164360414Y-100843570D01*
X164360414Y-100843571D01*
X164342620Y-100978734D01*
X164340729Y-100993096D01*
X164358113Y-101150553D01*
X164360723Y-101157684D01*
X164360723Y-101157686D01*
X164409293Y-101290410D01*
X164412553Y-101299319D01*
X164500908Y-101430805D01*
X164506527Y-101435918D01*
X164506528Y-101435919D01*
X164551233Y-101476597D01*
X164618076Y-101537419D01*
X164757293Y-101613008D01*
X164791664Y-101622025D01*
X164813718Y-101627811D01*
X164874533Y-101664445D01*
X164905888Y-101728142D01*
X164897829Y-101798680D01*
X164852913Y-101853663D01*
X164811158Y-101872206D01*
X164777564Y-101880271D01*
X164777562Y-101880272D01*
X164770184Y-101882043D01*
X164629414Y-101954700D01*
X164510039Y-102058838D01*
X164418950Y-102188444D01*
X164413802Y-102201649D01*
X164367540Y-102320305D01*
X164361406Y-102336037D01*
X164360414Y-102343570D01*
X164360414Y-102343571D01*
X164354901Y-102385451D01*
X164340729Y-102493096D01*
X142313491Y-102493096D01*
X140012812Y-100192417D01*
X139998868Y-100184803D01*
X139997035Y-100184934D01*
X139990420Y-100189185D01*
X137661669Y-102517936D01*
X137654055Y-102531880D01*
X135254000Y-102531880D01*
X135254000Y-100037425D01*
X135256421Y-100012844D01*
X135258976Y-100000000D01*
X135257250Y-99991322D01*
X136541120Y-99991322D01*
X136559704Y-100358177D01*
X136560414Y-100364933D01*
X136618508Y-100727622D01*
X136619947Y-100734277D01*
X136716869Y-101088562D01*
X136719018Y-101095023D01*
X136853638Y-101436778D01*
X136856469Y-101442961D01*
X137027211Y-101768178D01*
X137030694Y-101774020D01*
X137235558Y-102078890D01*
X137239660Y-102084334D01*
X137454913Y-102339954D01*
X137467652Y-102348397D01*
X137478096Y-102342299D01*
X139807583Y-100012812D01*
X139813961Y-100001132D01*
X140184803Y-100001132D01*
X140184934Y-100002965D01*
X140189185Y-100009580D01*
X142519487Y-102339882D01*
X142533084Y-102347307D01*
X142542693Y-102340610D01*
X142738369Y-102113117D01*
X142742518Y-102107729D01*
X142950565Y-101805019D01*
X142954112Y-101799208D01*
X143128241Y-101475814D01*
X143131148Y-101469636D01*
X143269338Y-101129316D01*
X143271552Y-101122886D01*
X143356508Y-100824644D01*
X150896000Y-100824644D01*
X150896285Y-100830621D01*
X150910416Y-100978734D01*
X150912676Y-100990472D01*
X150968598Y-101181091D01*
X150973039Y-101192194D01*
X151064000Y-101368807D01*
X151070450Y-101378853D01*
X151193171Y-101535086D01*
X151201408Y-101543735D01*
X151351457Y-101673940D01*
X151361183Y-101680877D01*
X151533139Y-101780357D01*
X151544003Y-101785331D01*
X151731676Y-101850502D01*
X151743278Y-101853330D01*
X151855071Y-101869539D01*
X151869007Y-101867553D01*
X151872349Y-101856197D01*
X152127000Y-101856197D01*
X152131475Y-101871436D01*
X152131689Y-101871622D01*
X152142007Y-101873618D01*
X152150273Y-101873235D01*
X152162090Y-101871554D01*
X152355229Y-101825007D01*
X152366524Y-101821118D01*
X152547379Y-101738888D01*
X152557721Y-101732941D01*
X152719772Y-101617990D01*
X152728800Y-101610197D01*
X152866189Y-101466679D01*
X152873585Y-101457314D01*
X152981354Y-101290410D01*
X152986850Y-101279806D01*
X153061108Y-101095548D01*
X153064502Y-101084089D01*
X153102861Y-100887668D01*
X153103934Y-100878832D01*
X153104000Y-100876129D01*
X153104000Y-100827659D01*
X153395500Y-100827659D01*
X153410493Y-100984806D01*
X153412183Y-100990566D01*
X153412183Y-100990567D01*
X153451002Y-101122886D01*
X153469823Y-101187042D01*
X153472573Y-101192381D01*
X153527650Y-101299319D01*
X153566324Y-101374410D01*
X153570028Y-101379125D01*
X153692808Y-101535432D01*
X153692812Y-101535436D01*
X153696514Y-101540149D01*
X153701044Y-101544080D01*
X153701045Y-101544081D01*
X153851165Y-101674350D01*
X153851170Y-101674354D01*
X153855696Y-101678281D01*
X154038126Y-101783819D01*
X154237222Y-101852957D01*
X154243155Y-101853817D01*
X154243158Y-101853818D01*
X154439860Y-101882338D01*
X154439863Y-101882338D01*
X154445800Y-101883199D01*
X154656333Y-101873455D01*
X154662157Y-101872051D01*
X154662160Y-101872051D01*
X154855393Y-101825482D01*
X154855395Y-101825481D01*
X154861226Y-101824076D01*
X154866684Y-101821594D01*
X154866688Y-101821593D01*
X155044414Y-101740785D01*
X155053084Y-101736843D01*
X155224986Y-101614904D01*
X155370728Y-101462660D01*
X155396494Y-101422756D01*
X155895500Y-101422756D01*
X155902202Y-101484448D01*
X155952929Y-101619764D01*
X155958309Y-101626943D01*
X155958311Y-101626946D01*
X155996785Y-101678281D01*
X156039596Y-101735404D01*
X156046776Y-101740785D01*
X156148054Y-101816689D01*
X156148057Y-101816691D01*
X156155236Y-101822071D01*
X156239509Y-101853663D01*
X156283157Y-101870026D01*
X156283159Y-101870026D01*
X156290552Y-101872798D01*
X156298402Y-101873651D01*
X156298403Y-101873651D01*
X156299149Y-101873732D01*
X156352244Y-101879500D01*
X157647756Y-101879500D01*
X157700851Y-101873732D01*
X157701597Y-101873651D01*
X157701598Y-101873651D01*
X157709448Y-101872798D01*
X157716841Y-101870026D01*
X157716843Y-101870026D01*
X157760491Y-101853663D01*
X157844764Y-101822071D01*
X157851943Y-101816691D01*
X157851946Y-101816689D01*
X157953224Y-101740785D01*
X157960404Y-101735404D01*
X158003215Y-101678281D01*
X158041689Y-101626946D01*
X158041691Y-101626943D01*
X158047071Y-101619764D01*
X158097798Y-101484448D01*
X158104500Y-101422756D01*
X158104500Y-99991322D01*
X176541120Y-99991322D01*
X176559704Y-100358177D01*
X176560414Y-100364933D01*
X176618508Y-100727622D01*
X176619947Y-100734277D01*
X176716869Y-101088562D01*
X176719018Y-101095023D01*
X176853638Y-101436778D01*
X176856469Y-101442961D01*
X177027211Y-101768178D01*
X177030694Y-101774020D01*
X177235558Y-102078890D01*
X177239660Y-102084334D01*
X177454913Y-102339954D01*
X177467652Y-102348397D01*
X177478096Y-102342299D01*
X179807583Y-100012812D01*
X179813961Y-100001132D01*
X180184803Y-100001132D01*
X180184934Y-100002965D01*
X180189185Y-100009580D01*
X182519487Y-102339882D01*
X182533084Y-102347307D01*
X182542693Y-102340610D01*
X182738369Y-102113117D01*
X182742518Y-102107729D01*
X182950565Y-101805019D01*
X182954112Y-101799208D01*
X183128241Y-101475814D01*
X183131148Y-101469636D01*
X183269338Y-101129316D01*
X183271552Y-101122886D01*
X183372179Y-100769630D01*
X183373686Y-100763000D01*
X183435577Y-100400923D01*
X183436357Y-100394183D01*
X183458879Y-100025945D01*
X183458995Y-100022346D01*
X183459067Y-100001821D01*
X183458975Y-99998193D01*
X183439025Y-99629824D01*
X183438290Y-99623058D01*
X183378933Y-99260588D01*
X183377466Y-99253916D01*
X183279313Y-98899990D01*
X183277139Y-98893526D01*
X183141328Y-98552249D01*
X183138472Y-98546069D01*
X182966599Y-98221458D01*
X182963099Y-98215632D01*
X182757162Y-97911465D01*
X182753048Y-97906045D01*
X182544733Y-97660407D01*
X182531907Y-97651970D01*
X182521582Y-97658023D01*
X180192417Y-99987188D01*
X180184803Y-100001132D01*
X179813961Y-100001132D01*
X179815197Y-99998868D01*
X179815066Y-99997035D01*
X179810815Y-99990420D01*
X177480170Y-97659775D01*
X177466633Y-97652383D01*
X177456932Y-97659171D01*
X177254286Y-97896439D01*
X177250132Y-97901872D01*
X177043153Y-98205293D01*
X177039632Y-98211106D01*
X176866619Y-98535130D01*
X176863744Y-98541295D01*
X176726742Y-98882097D01*
X176724548Y-98888542D01*
X176625157Y-99242138D01*
X176623670Y-99248794D01*
X176563047Y-99611056D01*
X176562288Y-99617828D01*
X176541144Y-99984527D01*
X176541120Y-99991322D01*
X158104500Y-99991322D01*
X158104500Y-99877244D01*
X158097798Y-99815552D01*
X158047071Y-99680236D01*
X158041691Y-99673057D01*
X158041689Y-99673054D01*
X157965785Y-99571776D01*
X157960404Y-99564596D01*
X157895804Y-99516181D01*
X157851946Y-99483311D01*
X157851943Y-99483309D01*
X157844764Y-99477929D01*
X157753732Y-99443803D01*
X157716843Y-99429974D01*
X157716841Y-99429974D01*
X157709448Y-99427202D01*
X157701598Y-99426349D01*
X157701597Y-99426349D01*
X157651153Y-99420869D01*
X157651152Y-99420869D01*
X157647756Y-99420500D01*
X156352244Y-99420500D01*
X156348848Y-99420869D01*
X156348847Y-99420869D01*
X156298403Y-99426349D01*
X156298402Y-99426349D01*
X156290552Y-99427202D01*
X156283159Y-99429974D01*
X156283157Y-99429974D01*
X156246268Y-99443803D01*
X156155236Y-99477929D01*
X156148057Y-99483309D01*
X156148054Y-99483311D01*
X156104196Y-99516181D01*
X156039596Y-99564596D01*
X156034215Y-99571776D01*
X155958311Y-99673054D01*
X155958309Y-99673057D01*
X155952929Y-99680236D01*
X155902202Y-99815552D01*
X155895500Y-99877244D01*
X155895500Y-101422756D01*
X155396494Y-101422756D01*
X155424666Y-101379125D01*
X155481800Y-101290640D01*
X155481801Y-101290637D01*
X155485052Y-101285603D01*
X155563834Y-101090122D01*
X155604229Y-100883271D01*
X155604500Y-100877730D01*
X155604500Y-100472341D01*
X155589507Y-100315194D01*
X155530177Y-100112958D01*
X155476934Y-100009580D01*
X155436422Y-99930921D01*
X155436420Y-99930918D01*
X155433676Y-99925590D01*
X155361198Y-99833321D01*
X155307192Y-99764568D01*
X155307188Y-99764564D01*
X155303486Y-99759851D01*
X155298955Y-99755919D01*
X155148835Y-99625650D01*
X155148830Y-99625646D01*
X155144304Y-99621719D01*
X154961874Y-99516181D01*
X154762778Y-99447043D01*
X154756845Y-99446183D01*
X154756842Y-99446182D01*
X154560140Y-99417662D01*
X154560137Y-99417662D01*
X154554200Y-99416801D01*
X154343667Y-99426545D01*
X154337843Y-99427949D01*
X154337840Y-99427949D01*
X154144607Y-99474518D01*
X154144605Y-99474519D01*
X154138774Y-99475924D01*
X154133316Y-99478406D01*
X154133312Y-99478407D01*
X154018706Y-99530516D01*
X153946916Y-99563157D01*
X153775014Y-99685096D01*
X153629272Y-99837340D01*
X153626021Y-99842375D01*
X153518714Y-100008565D01*
X153514948Y-100014397D01*
X153436166Y-100209878D01*
X153435017Y-100215764D01*
X153398858Y-100400923D01*
X153395771Y-100416729D01*
X153395500Y-100422270D01*
X153395500Y-100827659D01*
X153104000Y-100827659D01*
X153104000Y-100795115D01*
X153099525Y-100779876D01*
X153098135Y-100778671D01*
X153090452Y-100777000D01*
X152145115Y-100777000D01*
X152129876Y-100781475D01*
X152128671Y-100782865D01*
X152127000Y-100790548D01*
X152127000Y-101856197D01*
X151872349Y-101856197D01*
X151873000Y-101853985D01*
X151873000Y-100795115D01*
X151868525Y-100779876D01*
X151867135Y-100778671D01*
X151859452Y-100777000D01*
X150914115Y-100777000D01*
X150898876Y-100781475D01*
X150897671Y-100782865D01*
X150896000Y-100790548D01*
X150896000Y-100824644D01*
X143356508Y-100824644D01*
X143372179Y-100769630D01*
X143373686Y-100763000D01*
X143417806Y-100504885D01*
X150896000Y-100504885D01*
X150900475Y-100520124D01*
X150901865Y-100521329D01*
X150909548Y-100523000D01*
X151854885Y-100523000D01*
X151870124Y-100518525D01*
X151871329Y-100517135D01*
X151873000Y-100509452D01*
X151873000Y-100504885D01*
X152127000Y-100504885D01*
X152131475Y-100520124D01*
X152132865Y-100521329D01*
X152140548Y-100523000D01*
X153085885Y-100523000D01*
X153101124Y-100518525D01*
X153102329Y-100517135D01*
X153104000Y-100509452D01*
X153104000Y-100475356D01*
X153103715Y-100469379D01*
X153089584Y-100321266D01*
X153087324Y-100309528D01*
X153031402Y-100118909D01*
X153026961Y-100107806D01*
X152936000Y-99931193D01*
X152929550Y-99921147D01*
X152806829Y-99764914D01*
X152798592Y-99756265D01*
X152648543Y-99626060D01*
X152638817Y-99619123D01*
X152466861Y-99519643D01*
X152455997Y-99514669D01*
X152268324Y-99449498D01*
X152256722Y-99446670D01*
X152144929Y-99430461D01*
X152130993Y-99432447D01*
X152127000Y-99446015D01*
X152127000Y-100504885D01*
X151873000Y-100504885D01*
X151873000Y-99443803D01*
X151868525Y-99428564D01*
X151868311Y-99428378D01*
X151857993Y-99426382D01*
X151849727Y-99426765D01*
X151837910Y-99428446D01*
X151644771Y-99474993D01*
X151633476Y-99478882D01*
X151452621Y-99561112D01*
X151442279Y-99567059D01*
X151280228Y-99682010D01*
X151271200Y-99689803D01*
X151133811Y-99833321D01*
X151126415Y-99842686D01*
X151018646Y-100009590D01*
X151013150Y-100020194D01*
X150938892Y-100204452D01*
X150935498Y-100215911D01*
X150897139Y-100412332D01*
X150896066Y-100421168D01*
X150896000Y-100423871D01*
X150896000Y-100504885D01*
X143417806Y-100504885D01*
X143435577Y-100400923D01*
X143436357Y-100394183D01*
X143458879Y-100025945D01*
X143458995Y-100022346D01*
X143459067Y-100001821D01*
X143458975Y-99998193D01*
X143439025Y-99629824D01*
X143438290Y-99623058D01*
X143378933Y-99260588D01*
X143377466Y-99253916D01*
X143279313Y-98899990D01*
X143277139Y-98893526D01*
X143141328Y-98552249D01*
X143138472Y-98546069D01*
X142966599Y-98221458D01*
X142963099Y-98215632D01*
X142757162Y-97911465D01*
X142753048Y-97906045D01*
X142544733Y-97660407D01*
X142531907Y-97651970D01*
X142521582Y-97658023D01*
X140192417Y-99987188D01*
X140184803Y-100001132D01*
X139813961Y-100001132D01*
X139815197Y-99998868D01*
X139815066Y-99997035D01*
X139810815Y-99990420D01*
X137480170Y-97659775D01*
X137466633Y-97652383D01*
X137456932Y-97659171D01*
X137254286Y-97896439D01*
X137250132Y-97901872D01*
X137043153Y-98205293D01*
X137039632Y-98211106D01*
X136866619Y-98535130D01*
X136863744Y-98541295D01*
X136726742Y-98882097D01*
X136724548Y-98888542D01*
X136625157Y-99242138D01*
X136623670Y-99248794D01*
X136563047Y-99611056D01*
X136562288Y-99617828D01*
X136541144Y-99984527D01*
X136541120Y-99991322D01*
X135257250Y-99991322D01*
X135256556Y-99987831D01*
X135256556Y-99977346D01*
X135255559Y-99964307D01*
X135270516Y-99621719D01*
X135271820Y-99591854D01*
X135272778Y-99580905D01*
X135285626Y-99483311D01*
X135325385Y-99181309D01*
X135327291Y-99170505D01*
X135414527Y-98777010D01*
X135417370Y-98766399D01*
X135538563Y-98382023D01*
X135542322Y-98371694D01*
X135696564Y-97999321D01*
X135701206Y-97989368D01*
X135744582Y-97906045D01*
X135887302Y-97631882D01*
X135892797Y-97622363D01*
X135989406Y-97470718D01*
X137654200Y-97470718D01*
X137654235Y-97471558D01*
X137659287Y-97479682D01*
X139987188Y-99807583D01*
X140001132Y-99815197D01*
X140002965Y-99815066D01*
X140009580Y-99810815D01*
X142338226Y-97482169D01*
X142344479Y-97470718D01*
X177654200Y-97470718D01*
X177654235Y-97471558D01*
X177659287Y-97479682D01*
X179987188Y-99807583D01*
X180001132Y-99815197D01*
X180002965Y-99815066D01*
X180009580Y-99810815D01*
X182338226Y-97482169D01*
X182345840Y-97468225D01*
X182345772Y-97467268D01*
X182340608Y-97459459D01*
X182244369Y-97368132D01*
X182239179Y-97363714D01*
X181946997Y-97141133D01*
X181941371Y-97137309D01*
X181626858Y-96947582D01*
X181620841Y-96944383D01*
X181287684Y-96789737D01*
X181281348Y-96787203D01*
X180933448Y-96669445D01*
X180926880Y-96667611D01*
X180568294Y-96588115D01*
X180561559Y-96587000D01*
X180196473Y-96546694D01*
X180189691Y-96546315D01*
X179822363Y-96545674D01*
X179815590Y-96546029D01*
X179450343Y-96585062D01*
X179443634Y-96586149D01*
X179084758Y-96664397D01*
X179078183Y-96666208D01*
X178729858Y-96782755D01*
X178723536Y-96785258D01*
X178389843Y-96938741D01*
X178383799Y-96941927D01*
X178068639Y-97130547D01*
X178062993Y-97134355D01*
X177770038Y-97355915D01*
X177764827Y-97360318D01*
X177662222Y-97457009D01*
X177654200Y-97470718D01*
X142344479Y-97470718D01*
X142345840Y-97468225D01*
X142345772Y-97467268D01*
X142340608Y-97459459D01*
X142244369Y-97368132D01*
X142239179Y-97363714D01*
X141946997Y-97141133D01*
X141941371Y-97137309D01*
X141626858Y-96947582D01*
X141620841Y-96944383D01*
X141287684Y-96789737D01*
X141281348Y-96787203D01*
X140933448Y-96669445D01*
X140926880Y-96667611D01*
X140568294Y-96588115D01*
X140561559Y-96587000D01*
X140196473Y-96546694D01*
X140189691Y-96546315D01*
X139822363Y-96545674D01*
X139815590Y-96546029D01*
X139450343Y-96585062D01*
X139443634Y-96586149D01*
X139084758Y-96664397D01*
X139078183Y-96666208D01*
X138729858Y-96782755D01*
X138723536Y-96785258D01*
X138389843Y-96938741D01*
X138383799Y-96941927D01*
X138068639Y-97130547D01*
X138062993Y-97134355D01*
X137770038Y-97355915D01*
X137764827Y-97360318D01*
X137662222Y-97457009D01*
X137654200Y-97470718D01*
X135989406Y-97470718D01*
X136109350Y-97282443D01*
X136115655Y-97273439D01*
X136361003Y-96953696D01*
X136368068Y-96945276D01*
X136620820Y-96669445D01*
X136640358Y-96648123D01*
X136648127Y-96640354D01*
X136751453Y-96545674D01*
X136945276Y-96368068D01*
X136953696Y-96361003D01*
X137273439Y-96115655D01*
X137282443Y-96109350D01*
X137622363Y-95892797D01*
X137631883Y-95887301D01*
X137702940Y-95850311D01*
X137989377Y-95701202D01*
X137999321Y-95696564D01*
X138371701Y-95542319D01*
X138382015Y-95538566D01*
X138766400Y-95417370D01*
X138777010Y-95414527D01*
X139170505Y-95327291D01*
X139181309Y-95325385D01*
X139580906Y-95272778D01*
X139591854Y-95271820D01*
X139641724Y-95269643D01*
X139964307Y-95255559D01*
X139977346Y-95256556D01*
X139987831Y-95256556D01*
X140000000Y-95258976D01*
X140012847Y-95256421D01*
X140037425Y-95254000D01*
X179962575Y-95254000D01*
X179987153Y-95256421D01*
G37*
%TD.AperFunction*%
%TD*%
M02*
