%TF.GenerationSoftware,KiCad,Pcbnew,(6.0.0)*%
%TF.CreationDate,2022-01-23T22:47:39+07:00*%
%TF.ProjectId,NarWhelEncoderV2,4e617257-6865-46c4-956e-636f64657256,rev?*%
%TF.SameCoordinates,Original*%
%TF.FileFunction,Legend,Top*%
%TF.FilePolarity,Positive*%
%FSLAX46Y46*%
G04 Gerber Fmt 4.6, Leading zero omitted, Abs format (unit mm)*
G04 Created by KiCad (PCBNEW (6.0.0)) date 2022-01-23 22:47:39*
%MOMM*%
%LPD*%
G01*
G04 APERTURE LIST*
%ADD10C,0.127000*%
%ADD11C,0.120000*%
%ADD12C,0.200000*%
G04 APERTURE END LIST*
D10*
%TO.C,R2*%
X153621666Y-126048333D02*
X153365000Y-125681666D01*
X153181666Y-126048333D02*
X153181666Y-125278333D01*
X153475000Y-125278333D01*
X153548333Y-125315000D01*
X153585000Y-125351666D01*
X153621666Y-125425000D01*
X153621666Y-125535000D01*
X153585000Y-125608333D01*
X153548333Y-125645000D01*
X153475000Y-125681666D01*
X153181666Y-125681666D01*
X153915000Y-125351666D02*
X153951666Y-125315000D01*
X154025000Y-125278333D01*
X154208333Y-125278333D01*
X154281666Y-125315000D01*
X154318333Y-125351666D01*
X154355000Y-125425000D01*
X154355000Y-125498333D01*
X154318333Y-125608333D01*
X153878333Y-126048333D01*
X154355000Y-126048333D01*
%TO.C,FB1*%
X167658333Y-109295000D02*
X167401666Y-109295000D01*
X167401666Y-109698333D02*
X167401666Y-108928333D01*
X167768333Y-108928333D01*
X168318333Y-109295000D02*
X168428333Y-109331666D01*
X168465000Y-109368333D01*
X168501666Y-109441666D01*
X168501666Y-109551666D01*
X168465000Y-109625000D01*
X168428333Y-109661666D01*
X168355000Y-109698333D01*
X168061666Y-109698333D01*
X168061666Y-108928333D01*
X168318333Y-108928333D01*
X168391666Y-108965000D01*
X168428333Y-109001666D01*
X168465000Y-109075000D01*
X168465000Y-109148333D01*
X168428333Y-109221666D01*
X168391666Y-109258333D01*
X168318333Y-109295000D01*
X168061666Y-109295000D01*
X169235000Y-109698333D02*
X168795000Y-109698333D01*
X169015000Y-109698333D02*
X169015000Y-108928333D01*
X168941666Y-109038333D01*
X168868333Y-109111666D01*
X168795000Y-109148333D01*
%TO.C,C4*%
X162971666Y-116725000D02*
X162935000Y-116761666D01*
X162825000Y-116798333D01*
X162751666Y-116798333D01*
X162641666Y-116761666D01*
X162568333Y-116688333D01*
X162531666Y-116615000D01*
X162495000Y-116468333D01*
X162495000Y-116358333D01*
X162531666Y-116211666D01*
X162568333Y-116138333D01*
X162641666Y-116065000D01*
X162751666Y-116028333D01*
X162825000Y-116028333D01*
X162935000Y-116065000D01*
X162971666Y-116101666D01*
X163631666Y-116285000D02*
X163631666Y-116798333D01*
X163448333Y-115991666D02*
X163265000Y-116541666D01*
X163741666Y-116541666D01*
%TO.C,IC1*%
X165998333Y-114648333D02*
X165998333Y-113878333D01*
X166805000Y-114575000D02*
X166768333Y-114611666D01*
X166658333Y-114648333D01*
X166585000Y-114648333D01*
X166475000Y-114611666D01*
X166401666Y-114538333D01*
X166365000Y-114465000D01*
X166328333Y-114318333D01*
X166328333Y-114208333D01*
X166365000Y-114061666D01*
X166401666Y-113988333D01*
X166475000Y-113915000D01*
X166585000Y-113878333D01*
X166658333Y-113878333D01*
X166768333Y-113915000D01*
X166805000Y-113951666D01*
X167538333Y-114648333D02*
X167098333Y-114648333D01*
X167318333Y-114648333D02*
X167318333Y-113878333D01*
X167245000Y-113988333D01*
X167171666Y-114061666D01*
X167098333Y-114098333D01*
%TO.C,IC3*%
X170048333Y-99698333D02*
X170048333Y-98928333D01*
X170855000Y-99625000D02*
X170818333Y-99661666D01*
X170708333Y-99698333D01*
X170635000Y-99698333D01*
X170525000Y-99661666D01*
X170451666Y-99588333D01*
X170415000Y-99515000D01*
X170378333Y-99368333D01*
X170378333Y-99258333D01*
X170415000Y-99111666D01*
X170451666Y-99038333D01*
X170525000Y-98965000D01*
X170635000Y-98928333D01*
X170708333Y-98928333D01*
X170818333Y-98965000D01*
X170855000Y-99001666D01*
X171111666Y-98928333D02*
X171588333Y-98928333D01*
X171331666Y-99221666D01*
X171441666Y-99221666D01*
X171515000Y-99258333D01*
X171551666Y-99295000D01*
X171588333Y-99368333D01*
X171588333Y-99551666D01*
X171551666Y-99625000D01*
X171515000Y-99661666D01*
X171441666Y-99698333D01*
X171221666Y-99698333D01*
X171148333Y-99661666D01*
X171111666Y-99625000D01*
%TO.C,R1*%
X176648333Y-111678333D02*
X176281666Y-111935000D01*
X176648333Y-112118333D02*
X175878333Y-112118333D01*
X175878333Y-111825000D01*
X175915000Y-111751666D01*
X175951666Y-111715000D01*
X176025000Y-111678333D01*
X176135000Y-111678333D01*
X176208333Y-111715000D01*
X176245000Y-111751666D01*
X176281666Y-111825000D01*
X176281666Y-112118333D01*
X176648333Y-110945000D02*
X176648333Y-111385000D01*
X176648333Y-111165000D02*
X175878333Y-111165000D01*
X175988333Y-111238333D01*
X176061666Y-111311666D01*
X176098333Y-111385000D01*
%TO.C,C1*%
X172171666Y-102625000D02*
X172135000Y-102661666D01*
X172025000Y-102698333D01*
X171951666Y-102698333D01*
X171841666Y-102661666D01*
X171768333Y-102588333D01*
X171731666Y-102515000D01*
X171695000Y-102368333D01*
X171695000Y-102258333D01*
X171731666Y-102111666D01*
X171768333Y-102038333D01*
X171841666Y-101965000D01*
X171951666Y-101928333D01*
X172025000Y-101928333D01*
X172135000Y-101965000D01*
X172171666Y-102001666D01*
X172905000Y-102698333D02*
X172465000Y-102698333D01*
X172685000Y-102698333D02*
X172685000Y-101928333D01*
X172611666Y-102038333D01*
X172538333Y-102111666D01*
X172465000Y-102148333D01*
%TO.C,C5*%
X162971666Y-120825000D02*
X162935000Y-120861666D01*
X162825000Y-120898333D01*
X162751666Y-120898333D01*
X162641666Y-120861666D01*
X162568333Y-120788333D01*
X162531666Y-120715000D01*
X162495000Y-120568333D01*
X162495000Y-120458333D01*
X162531666Y-120311666D01*
X162568333Y-120238333D01*
X162641666Y-120165000D01*
X162751666Y-120128333D01*
X162825000Y-120128333D01*
X162935000Y-120165000D01*
X162971666Y-120201666D01*
X163668333Y-120128333D02*
X163301666Y-120128333D01*
X163265000Y-120495000D01*
X163301666Y-120458333D01*
X163375000Y-120421666D01*
X163558333Y-120421666D01*
X163631666Y-120458333D01*
X163668333Y-120495000D01*
X163705000Y-120568333D01*
X163705000Y-120751666D01*
X163668333Y-120825000D01*
X163631666Y-120861666D01*
X163558333Y-120898333D01*
X163375000Y-120898333D01*
X163301666Y-120861666D01*
X163265000Y-120825000D01*
%TO.C,C3*%
X171709166Y-109625000D02*
X171672500Y-109661666D01*
X171562500Y-109698333D01*
X171489166Y-109698333D01*
X171379166Y-109661666D01*
X171305833Y-109588333D01*
X171269166Y-109515000D01*
X171232500Y-109368333D01*
X171232500Y-109258333D01*
X171269166Y-109111666D01*
X171305833Y-109038333D01*
X171379166Y-108965000D01*
X171489166Y-108928333D01*
X171562500Y-108928333D01*
X171672500Y-108965000D01*
X171709166Y-109001666D01*
X171965833Y-108928333D02*
X172442500Y-108928333D01*
X172185833Y-109221666D01*
X172295833Y-109221666D01*
X172369166Y-109258333D01*
X172405833Y-109295000D01*
X172442500Y-109368333D01*
X172442500Y-109551666D01*
X172405833Y-109625000D01*
X172369166Y-109661666D01*
X172295833Y-109698333D01*
X172075833Y-109698333D01*
X172002500Y-109661666D01*
X171965833Y-109625000D01*
%TO.C,IC2*%
X153748333Y-114398333D02*
X153748333Y-113628333D01*
X154555000Y-114325000D02*
X154518333Y-114361666D01*
X154408333Y-114398333D01*
X154335000Y-114398333D01*
X154225000Y-114361666D01*
X154151666Y-114288333D01*
X154115000Y-114215000D01*
X154078333Y-114068333D01*
X154078333Y-113958333D01*
X154115000Y-113811666D01*
X154151666Y-113738333D01*
X154225000Y-113665000D01*
X154335000Y-113628333D01*
X154408333Y-113628333D01*
X154518333Y-113665000D01*
X154555000Y-113701666D01*
X154848333Y-113701666D02*
X154885000Y-113665000D01*
X154958333Y-113628333D01*
X155141666Y-113628333D01*
X155215000Y-113665000D01*
X155251666Y-113701666D01*
X155288333Y-113775000D01*
X155288333Y-113848333D01*
X155251666Y-113958333D01*
X154811666Y-114398333D01*
X155288333Y-114398333D01*
%TO.C,C2*%
X176825000Y-116978333D02*
X176861666Y-117015000D01*
X176898333Y-117125000D01*
X176898333Y-117198333D01*
X176861666Y-117308333D01*
X176788333Y-117381666D01*
X176715000Y-117418333D01*
X176568333Y-117455000D01*
X176458333Y-117455000D01*
X176311666Y-117418333D01*
X176238333Y-117381666D01*
X176165000Y-117308333D01*
X176128333Y-117198333D01*
X176128333Y-117125000D01*
X176165000Y-117015000D01*
X176201666Y-116978333D01*
X176201666Y-116685000D02*
X176165000Y-116648333D01*
X176128333Y-116575000D01*
X176128333Y-116391666D01*
X176165000Y-116318333D01*
X176201666Y-116281666D01*
X176275000Y-116245000D01*
X176348333Y-116245000D01*
X176458333Y-116281666D01*
X176898333Y-116721666D01*
X176898333Y-116245000D01*
D11*
%TO.C,R2*%
X154004724Y-124872500D02*
X153495276Y-124872500D01*
X154004724Y-123827500D02*
X153495276Y-123827500D01*
%TO.C,FB1*%
X168128733Y-107440000D02*
X168471267Y-107440000D01*
X168128733Y-108460000D02*
X168471267Y-108460000D01*
%TO.C,C4*%
X162953733Y-117190000D02*
X163246267Y-117190000D01*
X162953733Y-118210000D02*
X163246267Y-118210000D01*
%TO.C,R9*%
X150477500Y-115804724D02*
X150477500Y-115295276D01*
X151522500Y-115804724D02*
X151522500Y-115295276D01*
D12*
%TO.C,IC1*%
X171600000Y-115000000D02*
X171600000Y-120000000D01*
X167900000Y-115000000D02*
X171600000Y-115000000D01*
X167900000Y-120000000D02*
X167900000Y-115000000D01*
X171600000Y-120000000D02*
X167900000Y-120000000D01*
X166075000Y-114975000D02*
X167550000Y-114975000D01*
D11*
%TO.C,IC3*%
X170910000Y-100340000D02*
X169650000Y-100340000D01*
X170910000Y-104100000D02*
X170910000Y-100340000D01*
X164090000Y-100340000D02*
X165350000Y-100340000D01*
X164090000Y-106350000D02*
X164090000Y-100340000D01*
%TO.C,R1*%
X174427500Y-111295276D02*
X174427500Y-111804724D01*
X175472500Y-111295276D02*
X175472500Y-111804724D01*
%TO.C,C1*%
X171790000Y-104696267D02*
X171790000Y-104403733D01*
X172810000Y-104696267D02*
X172810000Y-104403733D01*
%TO.C,C5*%
X162953733Y-119760000D02*
X163246267Y-119760000D01*
X162953733Y-118740000D02*
X163246267Y-118740000D01*
%TO.C,C3*%
X171691233Y-108460000D02*
X171983767Y-108460000D01*
X171691233Y-107440000D02*
X171983767Y-107440000D01*
%TO.C,R10*%
X148777500Y-118545276D02*
X148777500Y-119054724D01*
X149822500Y-118545276D02*
X149822500Y-119054724D01*
D12*
%TO.C,IC2*%
X159250000Y-120000000D02*
X155550000Y-120000000D01*
X153725000Y-114650000D02*
X155200000Y-114650000D01*
X159250000Y-115000000D02*
X159250000Y-120000000D01*
X155550000Y-120000000D02*
X155550000Y-115000000D01*
X155550000Y-115000000D02*
X159250000Y-115000000D01*
D11*
%TO.C,C2*%
X174490000Y-116996267D02*
X174490000Y-116703733D01*
X175510000Y-116996267D02*
X175510000Y-116703733D01*
%TD*%
M02*
