%TF.GenerationSoftware,KiCad,Pcbnew,(6.0.0)*%
%TF.CreationDate,2022-01-23T22:47:39+07:00*%
%TF.ProjectId,NarWhelEncoderV2,4e617257-6865-46c4-956e-636f64657256,rev?*%
%TF.SameCoordinates,Original*%
%TF.FileFunction,Paste,Top*%
%TF.FilePolarity,Positive*%
%FSLAX46Y46*%
G04 Gerber Fmt 4.6, Leading zero omitted, Abs format (unit mm)*
G04 Created by KiCad (PCBNEW (6.0.0)) date 2022-01-23 22:47:39*
%MOMM*%
%LPD*%
G01*
G04 APERTURE LIST*
G04 Aperture macros list*
%AMRoundRect*
0 Rectangle with rounded corners*
0 $1 Rounding radius*
0 $2 $3 $4 $5 $6 $7 $8 $9 X,Y pos of 4 corners*
0 Add a 4 corners polygon primitive as box body*
4,1,4,$2,$3,$4,$5,$6,$7,$8,$9,$2,$3,0*
0 Add four circle primitives for the rounded corners*
1,1,$1+$1,$2,$3*
1,1,$1+$1,$4,$5*
1,1,$1+$1,$6,$7*
1,1,$1+$1,$8,$9*
0 Add four rect primitives between the rounded corners*
20,1,$1+$1,$2,$3,$4,$5,0*
20,1,$1+$1,$4,$5,$6,$7,0*
20,1,$1+$1,$6,$7,$8,$9,0*
20,1,$1+$1,$8,$9,$2,$3,0*%
G04 Aperture macros list end*
%ADD10RoundRect,0.237500X0.250000X0.237500X-0.250000X0.237500X-0.250000X-0.237500X0.250000X-0.237500X0*%
%ADD11RoundRect,0.237500X-0.287500X-0.237500X0.287500X-0.237500X0.287500X0.237500X-0.287500X0.237500X0*%
%ADD12RoundRect,0.237500X-0.300000X-0.237500X0.300000X-0.237500X0.300000X0.237500X-0.300000X0.237500X0*%
%ADD13RoundRect,0.237500X0.237500X-0.250000X0.237500X0.250000X-0.237500X0.250000X-0.237500X-0.250000X0*%
%ADD14R,1.475000X0.450000*%
%ADD15R,1.500000X2.000000*%
%ADD16R,3.800000X2.000000*%
%ADD17RoundRect,0.237500X-0.237500X0.250000X-0.237500X-0.250000X0.237500X-0.250000X0.237500X0.250000X0*%
%ADD18RoundRect,0.237500X0.237500X-0.300000X0.237500X0.300000X-0.237500X0.300000X-0.237500X-0.300000X0*%
G04 APERTURE END LIST*
D10*
%TO.C,R2*%
X154662500Y-124350000D03*
X152837500Y-124350000D03*
%TD*%
D11*
%TO.C,FB1*%
X167425000Y-107950000D03*
X169175000Y-107950000D03*
%TD*%
D12*
%TO.C,C4*%
X162237500Y-117700000D03*
X163962500Y-117700000D03*
%TD*%
D13*
%TO.C,R9*%
X151000000Y-116462500D03*
X151000000Y-114637500D03*
%TD*%
D14*
%TO.C,IC1*%
X166812000Y-115550000D03*
X166812000Y-116200000D03*
X166812000Y-116850000D03*
X166812000Y-117500000D03*
X166812000Y-118150000D03*
X166812000Y-118800000D03*
X166812000Y-119450000D03*
X172688000Y-119450000D03*
X172688000Y-118800000D03*
X172688000Y-118150000D03*
X172688000Y-117500000D03*
X172688000Y-116850000D03*
X172688000Y-116200000D03*
X172688000Y-115550000D03*
%TD*%
D15*
%TO.C,IC3*%
X165200000Y-105400000D03*
D16*
X167500000Y-99100000D03*
D15*
X167500000Y-105400000D03*
X169800000Y-105400000D03*
%TD*%
D17*
%TO.C,R1*%
X174950000Y-110637500D03*
X174950000Y-112462500D03*
%TD*%
D18*
%TO.C,C1*%
X172300000Y-105412500D03*
X172300000Y-103687500D03*
%TD*%
D12*
%TO.C,C5*%
X162237500Y-119250000D03*
X163962500Y-119250000D03*
%TD*%
%TO.C,C3*%
X170975000Y-107950000D03*
X172700000Y-107950000D03*
%TD*%
D17*
%TO.C,R10*%
X149300000Y-117887500D03*
X149300000Y-119712500D03*
%TD*%
D14*
%TO.C,IC2*%
X154462000Y-115225000D03*
X154462000Y-115875000D03*
X154462000Y-116525000D03*
X154462000Y-117175000D03*
X154462000Y-117825000D03*
X154462000Y-118475000D03*
X154462000Y-119125000D03*
X154462000Y-119775000D03*
X160338000Y-119775000D03*
X160338000Y-119125000D03*
X160338000Y-118475000D03*
X160338000Y-117825000D03*
X160338000Y-117175000D03*
X160338000Y-116525000D03*
X160338000Y-115875000D03*
X160338000Y-115225000D03*
%TD*%
D18*
%TO.C,C2*%
X175000000Y-117712500D03*
X175000000Y-115987500D03*
%TD*%
M02*
